<?xml version="1.0" encoding="utf-8"?>
<!-- Generator: Adobe Illustrator 14.0.0, SVG Export Plug-In . SVG Version: 6.00 Build 43363)  -->
<!DOCTYPE svg PUBLIC "-//W3C//DTD SVG 1.1//EN" "http://www.w3.org/Graphics/SVG/1.1/DTD/svg11.dtd" [
	<!ENTITY ns_extend "http://ns.adobe.com/Extensibility/1.0/">
	<!ENTITY ns_ai "http://ns.adobe.com/AdobeIllustrator/10.0/">
	<!ENTITY ns_graphs "http://ns.adobe.com/Graphs/1.0/">
	<!ENTITY ns_vars "http://ns.adobe.com/Variables/1.0/">
	<!ENTITY ns_imrep "http://ns.adobe.com/ImageReplacement/1.0/">
	<!ENTITY ns_sfw "http://ns.adobe.com/SaveForWeb/1.0/">
	<!ENTITY ns_custom "http://ns.adobe.com/GenericCustomNamespace/1.0/">
	<!ENTITY ns_adobe_xpath "http://ns.adobe.com/XPath/1.0/">
]>
<svg version="1.1" id="Layer_1" xmlns:x="&ns_extend;" xmlns:i="&ns_ai;" xmlns:graph="&ns_graphs;"
	 xmlns="http://www.w3.org/2000/svg" xmlns:xlink="http://www.w3.org/1999/xlink" x="0px" y="0px" width="266.174px"
	 height="138.286px" viewBox="0 0 266.174 138.286" enable-background="new 0 0 266.174 138.286" xml:space="preserve">
<metadata>
	<sfw  xmlns="&ns_sfw;">
		<slices></slices>
		<sliceSourceBounds  height="138.286" width="266.173" x="185.785" y="269.698" bottomLeftOrigin="true"></sliceSourceBounds>
	</sfw>
</metadata>
<g>
	<g>
		<path id="path243" fill="#201C1D" d="M60.865,25.948c-3.688,0-7.803,1.42-8.666,6.097c-0.092,0.497,0.237,0.733,0.554,0.806
			l3.779,0.454c0.35-0.018,0.587-0.397,0.655-0.756c0.323-1.609,1.647-2.368,3.124-2.368c0.798,0,1.694,0.273,2.167,1.008
			c0.542,0.817,0.504,1.929,0.504,2.872v0.554c-2.246,0.259-5.203,0.414-7.306,1.36c-2.426,1.079-4.131,3.273-4.131,6.5
			c0,4.135,2.533,6.197,5.794,6.197c2.754,0,4.275-0.647,6.399-2.872c0.705,1.049,0.93,1.524,2.217,2.62
			c0.287,0.154,0.65,0.139,0.907-0.101v0.05c0.774-0.705,2.181-1.99,2.973-2.67c0.316-0.265,0.247-0.699,0-1.059
			c-0.708-1.003-1.461-1.812-1.461-3.678v-6.197c0-2.625,0.222-5.045-1.663-6.853C65.225,26.45,62.748,25.948,60.865,25.948z
			 M111.653,25.948c-3.689,0-7.803,1.42-8.666,6.097c-0.092,0.497,0.234,0.733,0.554,0.806l3.778,0.454
			c0.35-0.018,0.59-0.397,0.655-0.756c0.325-1.609,1.647-2.368,3.124-2.368c0.8,0,1.694,0.273,2.166,1.008
			c0.541,0.817,0.454,1.929,0.454,2.872v0.554c-2.245,0.259-5.151,0.414-7.255,1.36c-2.429,1.079-4.133,3.273-4.133,6.5
			c0,4.135,2.535,6.197,5.795,6.197c2.75,0,4.273-0.647,6.398-2.872c0.703,1.049,0.931,1.524,2.217,2.62
			c0.29,0.154,0.65,0.139,0.907-0.101v0.05c0.774-0.705,2.181-1.99,2.973-2.67c0.315-0.265,0.243-0.699,0-1.059
			c-0.708-1.003-1.461-1.812-1.461-3.678v-6.197c0-2.625,0.17-5.045-1.713-6.853C115.96,26.45,113.536,25.948,111.653,25.948z
			 M83.084,26.149c-2.383,0-4.15,1.203-5.089,3.779h-0.051v-2.671c-0.024-0.371-0.328-0.686-0.705-0.705h-3.628
			c-0.411,0-0.756,0.348-0.756,0.756v20.406c0.031,0.361,0.336,0.68,0.706,0.705h3.88c0.414,0,0.754-0.345,0.755-0.756V36.831
			c0-2.361-0.114-5.593,2.67-5.593c2.75,0,2.368,3.319,2.368,5.593v10.833c0,0.386,0.315,0.73,0.706,0.756h3.879
			c0.413,0,0.756-0.345,0.756-0.756V36.831c0-1.158-0.047-2.847,0.353-3.879c0.398-1.033,1.376-1.714,2.318-1.714
			c1.122,0,1.979,0.391,2.267,1.764c0.181,0.815,0.101,2.972,0.101,3.829v10.833c0,0.386,0.315,0.73,0.705,0.756h3.88
			c0.412,0,0.756-0.345,0.756-0.756V34.766c0-2.191,0.221-4.68-1.008-6.398c-1.085-1.545-2.859-2.218-4.484-2.218
			c-2.28,0-4.401,1.203-5.341,3.779C87.038,27.353,85.507,26.149,83.084,26.149z M149.038,26.149c-5.605,0-8.717,4.929-8.717,11.286
			c0,6.314,3.077,11.388,8.717,11.388c5.426,0,8.867-4.957,8.867-11.186C157.905,31.197,154.788,26.149,149.038,26.149z
			 M171.157,26.149c-2.678,0-4.209,1.339-5.291,4.132h-0.05v-3.124c-0.069-0.314-0.366-0.535-0.706-0.554h-3.576
			c-0.391,0-0.722,0.283-0.756,0.654v20.406c0,0.386,0.317,0.73,0.705,0.756h3.829c0.413,0,0.749-0.344,0.756-0.756V36.681
			c0-1.377,0.116-2.633,0.655-3.88c0.434-0.989,1.275-1.612,2.217-1.612c2.674,0,2.418,3.258,2.418,5.492v11.084
			c0.038,0.347,0.352,0.633,0.705,0.655h3.881c0.382,0,0.711-0.29,0.755-0.655V34.917c0-1.975,0.005-4.719-1.007-6.349
			C174.606,26.807,172.889,26.149,171.157,26.149L171.157,26.149z M124.601,26.503c-0.394,0-0.704,0.312-0.705,0.755v2.923
			c0.001,0.438,0.302,0.753,0.705,0.756h6.651l-7.608,11.235c-0.465,0.725-0.504,1.545-0.504,2.016v2.973
			c0,0.429,0.466,0.895,0.907,0.655c4.336-2.366,9.531-2.157,13.452-0.051c0.476,0.26,0.958-0.227,0.958-0.655v-3.123
			c-0.038-0.418-0.202-0.819-0.706-1.108c-2.225-1.28-4.809-1.673-7.255-1.612l6.6-9.674c0.611-0.869,0.953-1.394,0.957-1.814v-2.52
			c0-0.434-0.295-0.755-0.705-0.755H124.601z M149.038,30.332c1.229,0,2.135,0.548,2.57,1.965c0.504,1.634,0.554,3.672,0.554,5.391
			c0,2.619-0.123,6.953-3.124,6.953c-3.035,0-3.023-5.365-3.023-7.859C146.014,34.293,146.182,30.332,149.038,30.332z M62.93,37.789
			v0.856c0,1.549,0.056,2.853-0.705,4.232c-0.616,1.121-1.584,1.813-2.67,1.813c-1.483,0-2.368-1.203-2.368-2.922
			C57.187,38.381,60.13,37.789,62.93,37.789z M113.718,37.789v0.856c0,1.549,0.057,2.853-0.706,4.232
			c-0.615,1.121-1.578,1.813-2.67,1.813c-1.484,0-2.368-1.203-2.368-2.922C107.974,38.381,110.916,37.789,113.718,37.789z"/>
		<path id="path257" d="M138.86,49.075v2.922h1.965v-2.922H138.86z M81.875,49.579v20.809h1.814v-1.864
			c0.387,0.738,0.827,1.291,1.36,1.662c0.532,0.372,1.143,0.555,1.814,0.555c1.332,0,2.481-0.68,3.477-2.065
			s1.511-3.394,1.511-5.945c0-1.673-0.215-3.059-0.655-4.232c-0.44-1.172-1.028-2.044-1.764-2.62s-1.57-0.907-2.469-0.907
			c-0.642,0-1.241,0.169-1.764,0.504c-0.524,0.335-0.948,0.882-1.36,1.562v-7.456H81.875z M100.518,54.466
			c-1.367,0-2.453,0.405-3.225,1.209c-0.773,0.804-1.16,1.84-1.16,3.124c0,0.746,0.169,1.378,0.454,1.965
			c0.285,0.588,0.696,1.062,1.209,1.411c0.517,0.35,1.545,0.81,3.073,1.31c1.059,0.341,1.689,0.63,1.965,0.857
			c0.4,0.33,0.605,0.764,0.605,1.36c0,0.689-0.24,1.266-0.705,1.713c-0.467,0.45-1.115,0.655-1.966,0.655s-1.552-0.24-2.065-0.756
			c-0.514-0.517-0.791-1.304-0.907-2.368l-1.965,0.402c0.444,3.233,2.056,4.839,4.837,4.837c1.483,0,2.619-0.42,3.477-1.31
			c0.858-0.89,1.311-2.088,1.311-3.527c0-0.777-0.138-1.451-0.404-2.015c-0.266-0.564-0.631-0.982-1.107-1.311
			c-0.479-0.325-1.547-0.76-3.175-1.31c-1.184-0.414-1.876-0.718-2.116-0.907c-0.401-0.319-0.604-0.754-0.604-1.31
			c0-0.567,0.188-1.049,0.604-1.411c0.418-0.362,1.062-0.554,1.915-0.554c1.502,0,2.343,0.824,2.519,2.469l1.915-0.303
			c-0.132-1.039-0.358-1.861-0.705-2.418c-0.347-0.558-0.86-1.028-1.512-1.36C102.129,54.589,101.38,54.466,100.518,54.466z
			 M112.559,54.466c-1.574,0-2.903,0.648-3.93,2.016c-1.027,1.366-1.512,3.348-1.512,5.945c0,2.504,0.494,4.466,1.512,5.794
			s2.336,1.965,3.98,1.965c1.307,0,2.392-0.392,3.275-1.209c0.885-0.817,1.527-2.02,1.863-3.628l-2.016-0.353
			c-0.578,2.06-1.646,3.07-3.123,3.074c-0.941,0-1.71-0.4-2.368-1.26c-0.658-0.861-1.03-2.139-1.108-3.829h8.666v-0.706
			c0-2.543-0.507-4.451-1.512-5.794C115.282,55.139,114.061,54.466,112.559,54.466z M124.5,54.466c-0.471,0-0.882,0.159-1.26,0.504
			s-0.807,1.057-1.26,2.116v-2.317h-1.764v15.064h1.965v-7.859c0-1.097,0.104-2.151,0.354-3.124
			c0.142-0.558,0.409-0.998,0.756-1.311c0.346-0.312,0.741-0.453,1.158-0.453c0.463,0,0.923,0.186,1.411,0.555l0.655-2.368
			C125.831,54.725,125.159,54.466,124.5,54.466z M148.584,54.466c-1.556,0-2.838,0.655-3.83,1.965
			c-0.988,1.311-1.511,3.277-1.511,5.896c0,2.598,0.528,4.566,1.511,5.895c0.983,1.328,2.211,1.965,3.729,1.965
			c1.254,0,2.331-0.466,3.225-1.41c0.895-0.945,1.439-2.335,1.663-4.132l-1.915-0.302c-0.141,1.284-0.477,2.209-1.007,2.821
			c-0.53,0.609-1.169,0.907-1.915,0.907c-0.951,0-1.76-0.444-2.367-1.361c-0.608-0.916-0.908-2.384-0.908-4.434
			c0-1.986,0.322-3.42,0.958-4.333s1.448-1.41,2.419-1.41c0.648,0,1.201,0.251,1.662,0.755c0.465,0.504,0.771,1.303,0.957,2.318
			l1.915-0.403c-0.229-1.587-0.74-2.784-1.562-3.577C150.782,54.83,149.784,54.466,148.584,54.466z M159.821,54.466
			c-1.575,0-2.904,0.648-3.931,2.016c-1.026,1.366-1.512,3.348-1.512,5.945c0,2.504,0.495,4.466,1.512,5.794
			c1.019,1.328,2.337,1.965,3.98,1.965c1.304,0,2.39-0.392,3.274-1.209c0.884-0.817,1.526-2.02,1.865-3.628l-2.016-0.353
			c-0.58,2.06-1.6,3.07-3.074,3.074c-0.941,0-1.76-0.4-2.418-1.26c-0.658-0.861-1.028-2.139-1.108-3.829h8.666v-0.706
			c0-2.543-0.507-4.451-1.512-5.794C162.545,55.139,161.323,54.466,159.821,54.466z M171.459,54.466
			c-1.37,0-2.453,0.405-3.225,1.209c-0.775,0.804-1.159,1.84-1.159,3.124c0,0.746,0.118,1.378,0.403,1.965
			c0.283,0.588,0.692,1.062,1.209,1.411c0.514,0.35,1.545,0.81,3.073,1.31c1.056,0.341,1.739,0.63,2.016,0.857
			c0.399,0.33,0.604,0.764,0.604,1.36c0,0.689-0.239,1.266-0.705,1.713c-0.465,0.45-1.115,0.655-1.965,0.655
			c-0.854,0-1.553-0.24-2.066-0.756c-0.514-0.517-0.844-1.304-0.957-2.368l-1.965,0.402c0.443,3.233,2.053,4.839,4.836,4.837
			c1.485,0,2.67-0.42,3.527-1.31c0.858-0.89,1.311-2.088,1.311-3.527c0-0.777-0.137-1.451-0.403-2.015
			c-0.267-0.564-0.681-0.982-1.159-1.311c-0.477-0.325-1.496-0.76-3.123-1.31c-1.185-0.414-1.928-0.718-2.167-0.907
			c-0.401-0.319-0.604-0.754-0.604-1.31c0-0.567,0.237-1.049,0.654-1.411c0.418-0.362,1.064-0.554,1.915-0.554
			c1.502,0,2.343,0.824,2.52,2.469l1.915-0.303c-0.135-1.039-0.357-1.861-0.706-2.418c-0.347-0.558-0.86-1.028-1.512-1.36
			C173.075,54.589,172.321,54.466,171.459,54.466z M126.516,54.769l4.383,15.064h1.865l4.383-15.064h-2.016l-2.569,9.22
			c-0.312,1.115-0.586,2.077-0.756,2.872c-0.214-1.001-0.421-2.053-0.705-3.073l-2.52-9.019H126.516z M138.86,54.769v15.064h1.965
			V54.769H138.86z M74.267,54.97c-1.559,0-2.814,0.699-3.83,2.065c-1.017,1.367-1.562,3.348-1.562,5.946
			c0,2.503,0.504,4.416,1.511,5.743c1.008,1.327,2.353,2.016,3.98,2.016c1.293,0,2.349-0.442,3.225-1.26
			c0.874-0.817,1.479-2.02,1.814-3.628l-1.965-0.302c-0.573,2.06-1.612,3.07-3.074,3.073c-0.934,0-1.717-0.399-2.368-1.26
			c-0.651-0.861-1.03-2.138-1.108-3.829h8.565l0.05-0.705c0-2.543-0.516-4.502-1.511-5.845S75.753,54.97,74.267,54.97z
			 M52.148,55.322l3.527,15.065h2.066l2.318-11.589l0.403,2.57l1.864,9.019h2.016l3.577-15.065h-1.864l-1.965,8.717l-0.655,2.922
			l-0.604-2.922l-1.713-8.717h-2.016l-1.814,8.817l-0.604,3.124l-0.705-3.225l-1.814-8.717H52.148z M177.555,55.474v0.705h1.915
			v5.039h0.756v-5.039h1.915v-0.705H177.555z M182.897,55.474v5.744h0.705V56.33l1.662,4.888h0.705l1.663-4.787v4.787h0.756v-5.744
			h-1.058l-1.361,4.031c-0.137,0.402-0.234,0.694-0.302,0.906l-0.302-0.856l-1.361-4.081H182.897z M112.508,56.532
			c0.98,0,1.786,0.474,2.419,1.41c0.435,0.643,0.718,1.619,0.806,2.923h-6.499c0.062-1.323,0.435-2.344,1.058-3.124
			C110.916,56.96,111.63,56.532,112.508,56.532z M159.77,56.532c0.977,0,1.785,0.474,2.418,1.41
			c0.435,0.643,0.719,1.619,0.807,2.923h-6.5c0.062-1.323,0.435-2.344,1.059-3.124C158.173,56.96,158.889,56.532,159.77,56.532z
			 M74.267,57.086c0.967,0,1.744,0.474,2.368,1.411c0.431,0.643,0.717,1.618,0.806,2.922h-6.399
			c0.061-1.322,0.389-2.394,1.007-3.174C72.666,57.464,73.395,57.086,74.267,57.086z M86.762,57.086
			c0.874,0,1.617,0.485,2.217,1.411c0.6,0.927,0.856,2.355,0.856,4.333c0,1.927-0.284,3.363-0.907,4.333
			c-0.623,0.97-1.363,1.461-2.167,1.461c-0.59,0-1.127-0.198-1.612-0.604c-0.486-0.406-0.844-0.989-1.108-1.764
			s-0.403-1.968-0.403-3.526c0-1.836,0.327-3.213,0.957-4.183C85.227,57.577,85.959,57.086,86.762,57.086z"/>
		<path id="polygon287" fill="#F7A80D" d="M23.908,41.114L16.4,44.339l6.953,2.973l8.062-2.973L23.908,41.114z M12.622,45.145
			L12.37,59.655l10.984,4.837V49.428L12.622,45.145z M35.194,45.145l-9.926,3.779v14.208l9.926-4.03V45.145z"/>
		<path id="polygon311" fill="#F7A80D" d="M47.034,0l-7.558,3.225l7.003,2.973l8.062-2.973L47.034,0z M36.554,4.283v14.511
			l9.372,2.721l0.302-13.201L36.554,4.283z M57.514,5.089l-8.868,3.779v14.259l8.868-4.031V5.089z"/>
		<path id="use3387" fill="#F7A80D" d="M11.538,20.423l-7.507,3.225l6.953,2.974l8.062-2.974L11.538,20.423z M0.252,24.454L0,38.965
			l10.984,4.837V28.736L0.252,24.454z M22.824,24.454l-9.926,3.778v14.209l9.926-4.031V24.454z"/>
		<path id="use3389" fill="#F7A80D" d="M35.723,19.887l-7.507,3.225l6.953,2.973l8.062-2.973L35.723,19.887z M24.437,23.917
			l-0.252,14.511l10.984,4.837V28.2L24.437,23.917z M47.009,23.917l-9.926,3.779v14.208l9.926-4.03V23.917z"/>
		<path id="use3391" fill="#F7A80D" d="M70.657,0l-7.507,3.225l6.953,2.973l8.062-2.973L70.657,0z M59.371,4.031l-0.252,14.511
			l10.984,4.837V8.313L59.371,4.031z M81.943,4.031L72.017,7.81v14.209l9.926-4.031V4.031z"/>
	</g>
	<g>
		<path d="M131.295,131.646c-2.587-2.035-5.348-3.984-7.235-6.736c-3.97-4.844-7.026-10.455-9.116-16.351
			c-1.263-3.835-1.696-7.946-3.325-11.634c-1.703-2.675,0.293-5.602,3.226-6.453c1.305-0.251,3.601-1.483,0.83-0.602
			c-2.485,1.822-2.725-1.655-0.177-1.876c1.739-0.23,2.379-1.654,1.784-2.935c-1.868-1.218,4.526-2.555,1.309-4.371
			c-3.349-3.614,4.687-4.311,2.704-0.206c-0.474,3.158,5.617-0.579,4.203,3.067c1.437,1.751,5.38,0.399,5.281,2.855
			c2.093,0.144,2.812,1.903,4.774,2.038c2.038,0.921,5.727,1.643,6.419,3.938c-2.019,1.599-6.695-3.302-6.92,1.123
			c0.61,6.537,0.455,13.273,2.846,19.5c1.131,3.77,3.875,6.736,6.351,9.674c2.371,2.875,5.581,4.9,8.854,6.605
			c2.871,1.354,5.965,2.25,9.094,2.814c1.268-0.971,3.508-4.578,5.486-3.059c0.096,1.713-3.926,3.576-0.188,3.385
			c2.196-0.662,3.718,1.697,5.526-0.432c1.666,1.975,6.925-1.258,5.739,2.773c-1.604,1.033-3.941,0.408-5.546,1.834
			c-2.646-1.324-4.754,1.182-7.685,0.865c-3.253,0.582-6.565,0.816-9.863,0.822c-5.414-0.428-10.94-0.607-16.09-2.492
			C136.675,134.952,133.844,133.3,131.295,131.646L131.295,131.646z M135.866,133.628c2.832,1.225,5.602,2.516,8.707,2.904
			c4.925,0.684,10.012,1.74,14.954,0.779c-2.237-1.012-4.55,0.393-6.778-0.723c-2.672,0.574-5.541-0.148-8.259-0.504
			c-3.089-1.375-6.424-2.322-9.317-4.109c-3.617-1.318,1.869,1.695,2.846,1.939c2.259,1.283-2.485-0.658-3.156-1.189
			c-1.893-1.064-2.134-0.842-0.187,0.236C135.067,133.19,135.455,133.433,135.866,133.628L135.866,133.628z M130.476,129.819
			c2.745,1.016-0.012-1.93-1.269-1.76c-0.557-0.967-2.129-1.578-1.02-2.096c-1.994,0.693-2.089-2.633-3.026-2.158
			c-2.11-0.666-0.821-3.025-3.335-4.477c-0.229-1.527-2.497-2.85-3.219-5.154c-0.319-1.182-2.563-4.566-1.186-1.416
			c1.173,3.035,3.236,5.635,4.955,8.229c1.333,2.471,2.909,5.055,5.336,6.598C128.531,128.37,129.32,129.573,130.476,129.819
			L130.476,129.819z M122.57,121.138C122.665,120.722,123.071,122.032,122.57,121.138L122.57,121.138z M133.765,131.038
			C134.372,130.767,132.89,130.694,133.765,131.038L133.765,131.038z M135.253,131.581
			C135.099,130.831,134.573,132.001,135.253,131.581L135.253,131.581z M137.119,132.358
			C138.006,131.513,135.75,131.825,137.119,132.358L137.119,132.358z M140.315,134.14
			C140.855,133.343,138.589,133.839,140.315,134.14L140.315,134.14z M134.178,129.862
			C135.555,128.97,132.395,129.849,134.178,129.862L134.178,129.862z M135.576,130.558
			C135.536,130.087,135.078,130.769,135.576,130.558L135.576,130.558z M142.568,134.923c1.125,0.709,6.565,1.555,3.158,0.291
			C145.155,135.333,139.409,133.587,142.568,134.923L142.568,134.923z M131.468,126.276
			C131.359,125.806,129.723,125.755,131.468,126.276L131.468,126.276z M134.722,128.177
			C135.571,127.585,132.964,127.72,134.722,128.177L134.722,128.177z M137.46,129.854
			C138.677,129.397,135.49,129.394,137.46,129.854L137.46,129.854z M130.143,124.835c1.319,1.012,5.321,0.131,2.02-0.604
			c-1.501-0.799-4.885-1.348-2.578,0.484L130.143,124.835L130.143,124.835L130.143,124.835z M139.316,130.435
			C139.866,129.497,137.011,129.897,139.316,130.435L139.316,130.435z M136.528,128.218c3.225,0.912-2.712-2.041-0.796-0.336
			l0.425,0.193L136.528,128.218L136.528,128.218L136.528,128.218z M142.117,131.448
			C145.171,131.478,139.358,131.026,142.117,131.448L142.117,131.448L142.117,131.448z M128.967,123.069
			C128.848,122.499,128.215,123.114,128.967,123.069L128.967,123.069z M147.283,134.345
			C147.364,133.319,146.287,135.114,147.283,134.345L147.283,134.345z M134.181,126.261
			C133.995,125.718,133.227,126.235,134.181,126.261L134.181,126.261z M129.257,122.71
			C131.011,122.606,126.856,121.938,129.257,122.71L129.257,122.71z M123.425,118.942
			C123.207,118.099,121.518,117.431,123.425,118.942L123.425,118.942z M138.736,128.657
			C138.416,128.292,138.585,128.737,138.736,128.657L138.736,128.657z M148.265,134.507
			C148.235,133.946,147.746,134.718,148.265,134.507L148.265,134.507z M137.893,127.788
			C138.065,127.065,136.397,127.569,137.893,127.788L137.893,127.788z M130.793,123.288
			C132.099,123.147,128.702,122.405,130.793,123.288L130.793,123.288z M142.802,130.751
			C144.836,129.944,140.82,130.358,142.802,130.751L142.802,130.751z M136.557,126.511c2.342,0.301-2.789-1.596-0.516-0.17
			L136.557,126.511L136.557,126.511L136.557,126.511z M144.699,131.517c2.188-1.307,1.466,3.064,3.713,0.369
			c2.214-1.617-1.913,1.998,0.815,0.289c1.975-1.322,4.89,0.627,6.732,1.26c1.323-0.064,2.611,1.146,3.97,0.408
			c2.613-0.705-5.112-1.043-3.087-2.291c-2.392,0.695-4.158-0.83-5.334-2.363c-2.683-0.619-5.784-1.99-7.124-4.365
			c-0.546-0.891,0.789,0.127-0.471-1.33c-1.616-1.438-2.423-3.072-3.508-4.818c-1.296-0.691-1.449-2.727-1.58-0.068
			c0.011-1.678-1.564-2.809-1.95-2.338c-0.007-1.617,1.687-0.807,0.501-2c-0.255-1.678-1.095-3.422-1.347-5.314
			c-0.392-0.912-0.056-2.863-1.339-0.801c-0.467,2.181-0.155-2.68,0.572-1.077c0.955-1.634-0.343-1.442-0.396-1.217
			c0.621-1.38,0.394-3.337-0.163-2.59c0.332-1.464,0.524-5.383-0.495-4.688c0.618-1.53,1.172-6.999-1.512-4.913
			c-1.086,0.016-2.969,0.396-3.858,0.838c2.789,1.536-0.281,0.555-1.417,0.309c-0.147,1.424-1.272,0.809-2.677,0.823
			c2.246,0.277-1.094,2.295-2.379,1.511c-1.673,0.798,1.442,2.793,0.033,3.412c0.174,0.928-2.562-0.337-2.348,1.812
			c-1.623-0.685-0.222,2.546,0.59,1.453c2.761,0.749,1.943,2.45,2.013,4.069c-0.45,0.942-2.221-2.217-0.395-2.071
			c-1.442-2.341-1.594-0.845-2.792,0.243c-0.278,0.077,3.054,1.546,0.963,2.272c1.839,0.284,1.894,1.893,2.269,2.915
			c1.105,1.152,0.878-1.273,2.202,0.113c-0.838-1.236-4.436-3.476-1.539-2.758c-0.016-1.241-0.524-2.242,0.364-2.219
			c0.88-1.593-0.921,3.926,1.061,1.901c0.548-0.237,0.686-1.592,1.671,0.131c1.432,1.408,0.518,2.427-1.502,1.136
			c0.361,1.229,2.702,1.664,2.261,3.582c0.466,1.688,1.119,1.066,1.688,0.969c0.446,1.637,0.7,0.434,0.721-0.348
			c2.042,0.438,1.563,1.645,2.203,2.49c1.407,0.633-2.015-4.307,0.401-1.486c2.542,2.295,0.955,3.254-1.327,2.885
			c1.444-0.115,1.908,1.953,3.715,1.881c1.647,0.785,2.763,3.793-0.077,2.541c-0.983-0.889-4.47-1.984-1.622-0.295
			c2.628,1.217,4.717,1.943,7.252,3.475c1.814,1.295,2.598,2.777,3.285,3.07c-1.525,0.729-4.595-0.582-2.315-0.982
			c-1.423-0.258-3.022-0.979-1.661,0.793c1.159,0.971,4.104,0.865,4.633,0.975c-0.448,0.986-1.216,1.064,0.017,1.143
			C142.753,130.983,144.572,131.099,144.699,131.517L144.699,131.517z M141.884,123.567c-0.839-0.877-1.055-2.518-0.149-1.09
			C142.2,122.665,143.222,125.157,141.884,123.567L141.884,123.567L141.884,123.567z M151.052,129.392
			C151.575,129.356,151.068,129.788,151.052,129.392L151.052,129.392z M140.562,121.419
			C140.528,120.093,140.864,122.44,140.562,121.419L140.562,121.419z M139.65,120.192
			C138.596,118.159,140.978,120.769,139.65,120.192L139.65,120.192z M128.607,112.571
			C129.227,112.407,128.913,113.63,128.607,112.571L128.607,112.571z M137.396,117.335
			C137.777,115.905,137.843,118.532,137.396,117.335L137.396,117.335z M131.187,113.017
			C130.75,112.229,132.103,113.757,131.187,113.017L131.187,113.017z M136.515,114.724c-0.998-2.234,0.708-1.221,0.222,0.367
			L136.515,114.724L136.515,114.724L136.515,114.724z M127.326,108.597c-0.446-0.734-1.184-2.887-0.945-3.545
			c0.213,1.072,2.274,4.607,1.009,1.468c-1.396-2.635,1.671,0.852,1.987,1.51c0.147,0.651-0.862-0.178-0.179,1.354
			C127.951,107.639,128.463,110.347,127.326,108.597L127.326,108.597z M124.487,106.64
			C124.604,104.934,125.136,107.809,124.487,106.64L124.487,106.64z M125.765,107.08
			C126.374,105.792,126.797,108.875,125.765,107.08L125.765,107.08z M122.691,104.704c-1.057-1.053-1.822-2.021,0.05-0.653
			c0.72,0.028-1.604-2.201,0.173-0.707C124.782,103.682,123.836,106.406,122.691,104.704L122.691,104.704z M124.305,104.661
			C124.919,104.052,124.631,105.26,124.305,104.661L124.305,104.661z M125.299,104.98
			C124.367,103.235,126.429,105.71,125.299,104.98L125.299,104.98z M123.324,103.092c-3.073-2.736,3.861,1.431,0.501,0.506
			L123.324,103.092L123.324,103.092L123.324,103.092z M132.131,108.208c-1.331-0.797-0.354-5.611,0.101-2.319
			c1.293-0.418-0.071,1.704,0.892,1.682C132.973,108.907,132.541,109.39,132.131,108.208L132.131,108.208z M135.388,110.134
			C135.519,108.681,135.663,111.128,135.388,110.134L135.388,110.134z M134.823,109.575
			C134.968,108.955,134.837,110.304,134.823,109.575L134.823,109.575z M123.926,102.193c-1.975-2.724,5.739,2.757,1.265,0.691
			C124.725,102.762,124.161,102.718,123.926,102.193L123.926,102.193z M130.2,105.519C130.013,103.224,130.616,105.9,130.2,105.519
			L130.2,105.519L130.2,105.519z M134.961,108.574C135.329,107.268,134.99,109.44,134.961,108.574L134.961,108.574z M124.23,101.154
			c1.173-0.252,4.862,2.061,1.475,0.66C125.329,101.397,124.525,101.587,124.23,101.154L124.23,101.154z M134.307,106.175
			c0.125-2.346,0.702-1.398,0.005,0.338L134.307,106.175L134.307,106.175L134.307,106.175z M125.103,100.337
			c0.479-0.701-1.271-3.171,0.252-0.885c0.658,0.521,1.903,0.873,0.804,1.094C127.889,102.073,125.737,100.96,125.103,100.337
			L125.103,100.337z M133.81,105.445C134.14,102.772,134.101,107.008,133.81,105.445L133.81,105.445z M124.104,97.87
			C124.469,97.712,124.298,98.356,124.104,97.87L124.104,97.87z M126.375,99.22C126.96,97.995,127.453,100.589,126.375,99.22
			L126.375,99.22z M132.78,102.785C132.775,102.314,132.902,103.468,132.78,102.785L132.78,102.785z M132.409,101.963
			C131.521,99.769,133.236,103.124,132.409,101.963L132.409,101.963z M131.864,100.524
			C131.715,99.619,132.371,101.662,131.864,100.524L131.864,100.524L131.864,100.524z M132.752,99.08
			c-0.61-1.074,0.771-4.737,0.925-2.465c-0.644,1.77-0.186,2.758,0.261,0.386C134.77,95.132,133.761,100.688,132.752,99.08
			L132.752,99.08L132.752,99.08z M133.666,93.633C133.931,93.308,133.725,94.027,133.666,93.633L133.666,93.633z M132.141,123.679
			C131.779,123.362,132.187,123.878,132.141,123.679L132.141,123.679z M135.281,125.265c1.747,0.451,1.739-0.27,0.159-0.486
			c-0.848-0.789-3.529-1.627-1.129-0.096C134.469,125.085,134.97,125.073,135.281,125.265L135.281,125.265z M129.079,121.146
			c0.961,0.719,3.625,2.035,1.371,0.273c0.76-0.883-1.455-1.354-0.72-1.943c-1.869-1.145-1.475-1.043-0.165-1.006
			c-2.246-1.004,0.324-0.928,0.203-1.443c-0.866-0.17-4.302-1.527-2.281,0.111c-2.055-1.047-0.49,0.389-1.111,0.238
			c-2.102-0.572,1.872,1.602-0.333,1.061c1.204,0.955,3.244,2.447,0.509,1.01C126.193,119.964,128.509,120.751,129.079,121.146
			L129.079,121.146z M132.363,123.034C136.357,124.319,130.404,121.458,132.363,123.034L132.363,123.034z M149.18,133.222
			C149.231,132.427,148.635,133.897,149.18,133.222L149.18,133.222z M150.908,133.948c0.922-0.895,0.038,1.422,1.527-0.219
			c0.015-1.176-0.045-1.869-1.711-0.441C150.264,133.544,150.06,134.624,150.908,133.948L150.908,133.948z M123.472,116.718
			C123.189,115.604,121.489,115.61,123.472,116.718L123.472,116.718z M125.316,117.927
			C124.631,116.792,122.871,116.897,125.316,117.927L125.316,117.927z M135.817,124.259c1.026,0.912,4.708,0.668,1.244,0.111
			C136.549,123.612,133.806,123.796,135.817,124.259L135.817,124.259z M150.25,133.173
			C151.828,131.849,148.722,133.763,150.25,133.173L150.25,133.173z M153.532,135.427
			C153.542,135.003,152.852,135.614,153.532,135.427L153.532,135.427z M153.537,134.833
			C155.285,132.981,151.846,134.942,153.537,134.833L153.537,134.833L153.537,134.833z M118.932,112.917
			c-1.489-2.125-0.925-3.08-2.362-4.814c-0.273-1.328-2.464-4.338-1.133-1.148C116.655,108.82,117.017,111.708,118.932,112.917
			L118.932,112.917z M152.989,134.245C156.205,132.169,151.67,133.341,152.989,134.245L152.989,134.245z M155.443,135.206
			C157.054,133.823,154.424,134.919,155.443,135.206L155.443,135.206z M122.925,114.368
			C123.385,113.685,121.735,114.28,122.925,114.368L122.925,114.368z M154.93,134.548c1.559-1.002-0.359-0.848-0.282,0.094
			L154.93,134.548L154.93,134.548L154.93,134.548z M133.78,121.218C133.726,120.538,132.956,121.276,133.78,121.218L133.78,121.218z
			 M135.086,121.97C134.67,121.13,134.448,122.103,135.086,121.97L135.086,121.97z M157.431,135.228
			c1.998-1.439-1.208-0.275-0.418,0.273L157.431,135.228L157.431,135.228L157.431,135.228z M156.666,134.86
			C158.294,133.497,154.949,135.462,156.666,134.86L156.666,134.86z M160.574,137.46
			C161.666,136.729,159.247,137.224,160.574,137.46L160.574,137.46z M123.926,113.874c1.463,0.328,5.85,3.604,3.263,0.227
			c-1.325-0.391-0.531-3.631-1.883-3.057c0.908,1.516,0.746,2.158-1.16,1.205c-2.393-1.17-1.344,0.578-0.875,1.061
			C122.632,113.454,124.114,113.862,123.926,113.874L123.926,113.874z M117.257,108.609c0.262-1.087-2.414-5.964-1.264-2.446
			C116.409,106.9,116.365,108.297,117.257,108.609L117.257,108.609z M129.499,116.155
			C128.744,115.524,129.462,116.065,129.499,116.155L129.499,116.155z M131.354,116.589
			C131.354,115.438,129.303,116.12,131.354,116.589L131.354,116.589z M147.441,126.726
			C147.134,125.942,146.228,126.71,147.441,126.726L147.441,126.726L147.441,126.726z M148.213,127.29
			C148.098,126.851,147.767,127.376,148.213,127.29L148.213,127.29z M154.589,131.308
			C155.202,130.854,153.824,131.249,154.589,131.308L154.589,131.308z M120.588,109.458
			C122.342,108.78,118.708,108.973,120.588,109.458L120.588,109.458z M146.025,125.483
			C146.004,124.347,144.906,125.765,146.025,125.483L146.025,125.483z M119.895,107.842
			C121.021,107.461,118.852,107.593,119.895,107.842L119.895,107.842z M123.164,109.427
			C123.146,109.054,122.819,109.569,123.164,109.427L123.164,109.427z M163.052,133.888c1.449-0.293,4.752,0.736,5.284-0.385
			c-1.759-0.043-6.086-1.242-6.291,0.285l0.385,0.061L163.052,133.888L163.052,133.888L163.052,133.888z M124.204,109.688
			C124.23,108.538,123.307,109.646,124.204,109.688L124.204,109.688z M115.608,103.725
			C115.217,101.532,114.122,103.392,115.608,103.725L115.608,103.725z M117.657,104.239
			C117.683,103.535,115.781,103.606,117.657,104.239L117.657,104.239z M118.828,104.816
			C118.49,104.542,118.564,105.161,118.828,104.816L118.828,104.816z M126.202,109.544
			C126.549,109.226,125.378,109.31,126.202,109.544L126.202,109.544z M118.049,103.517
			C117.85,101.862,115.673,103.27,118.049,103.517L118.049,103.517z M113.844,100.79
			C113.785,100.027,113.435,101.078,113.844,100.79L113.844,100.79z M114.47,100.318C114.369,99.411,113.933,100.432,114.47,100.318
			L114.47,100.318z M117.924,102.378c1.461-0.572-2.661-1.187-0.299-0.106L117.924,102.378L117.924,102.378z M164.162,130.94
			C165.097,130.083,162.974,130.675,164.162,130.94L164.162,130.94z M169.748,133.835
			C170.123,132.728,168.804,133.979,169.748,133.835L169.748,133.835z M118.278,100.569
			C118.432,99.497,117.119,100.783,118.278,100.569L118.278,100.569z M113.361,97.276c-0.264-1.513-0.228-4.17,2.298-3.272
			c-3.37,0.671,2.334,4.191,1.614,1.41c1.418,0.068,2.773-0.838,2.028,0.538c2.794-0.308,4.729-2.729,7.427-2.39
			c2.102-0.279,4.399-0.488,6.664-1.335c1.862-0.134,3.654-2.139,2.634-3.328c-2.539-0.214-5.198,0.104-8.003,0.662
			c-3.11,0.646-5.935,1.874-9.073,2.401c-3.06,0.412,0.614,1.132-0.262,1.294c-1.595,0.552,1.903,0.926-0.207,1.512
			c-1.303-0.249-2.66-0.696-2.102-2.071c-2.93,0.382-5.505,1.597-3.19,4.578L113.361,97.276L113.361,97.276L113.361,97.276z
			 M120.423,93.681c0.686-2.529,3.679,2.082,1.124,0.336C121.244,93.788,120.74,93.602,120.423,93.681L120.423,93.681z
			 M120.557,92.454C121.547,91.714,121.083,92.87,120.557,92.454L120.557,92.454z M121.814,92.474
			c0.091-1.164,2.882,0.617,0.46,0.419L121.814,92.474L121.814,92.474L121.814,92.474z M123.536,91.783
			C124.166,91.046,123.718,92.435,123.536,91.783L123.536,91.783z M123.978,91.488c1.047-1.258,5.929-0.804,2.355-0.124
			C125.375,90.642,124.642,91.79,123.978,91.488L123.978,91.488z M130.349,90.504C130.191,87.066,133.516,91.726,130.349,90.504
			L130.349,90.504z M132.158,90.495c0.661-1.731,2.566-0.696,0.307-0.349C132.513,90.332,132.397,91.041,132.158,90.495
			L132.158,90.495z M117.564,99.68C119.539,98.47,115.468,98.63,117.564,99.68L117.564,99.68L117.564,99.68z M119.026,100.085
			C119.718,99.349,117.519,99.787,119.026,100.085L119.026,100.085z M114.722,97.034C115.85,96.166,113.386,96.704,114.722,97.034
			L114.722,97.034z M173.045,133.519C173.077,132.513,172.182,133.972,173.045,133.519L173.045,133.519z M167.118,129.474
			C167.287,128.317,166.356,129.575,167.118,129.474L167.118,129.474z M174.674,133.909c1.578,0.006,4.781-0.492,1.349-0.49
			C175.483,133.503,172.883,133.485,174.674,133.909L174.674,133.909L174.674,133.909z M120.311,99.375
			c1.277-0.086,1.997-1.407-0.249-1.332c-3.479-0.358,3.07,1.192-0.446,0.748C119.144,99.103,120.282,99.461,120.311,99.375
			L120.311,99.375z M121.435,99.946C121.301,99.125,121.039,100.38,121.435,99.946L121.435,99.946z M122.769,96.388
			C123.323,95.701,122.001,96.203,122.769,96.388L122.769,96.388z M118.521,89.288c2.28-0.773,5.397-1.645,6.474,0.383
			c-1.096-1.318-0.443-2.614,0.591-0.688c1.463,1.95,2.195-0.886,1.244-1.541c1.085,1.347,2.316,1.984,0.726,0.085
			c1.73-2.08-3.462,0.273-4.642,0.248C122.346,88.03,117.051,89.125,118.521,89.288L118.521,89.288z M119.857,86.731
			c1.3-0.98,4.497,0.584,2.445-0.976C122.101,85.578,117.811,86.939,119.857,86.731L119.857,86.731z M124.597,86.926
			c1.52,0.04-0.656-2.045,1.155-1.101c-0.296-0.971-2.11-1.155-2.997-1.542C122.254,85.173,123.775,86.939,124.597,86.926
			L124.597,86.926z M120.688,82.625C121.214,81.911,119.765,82.988,120.688,82.625L120.688,82.625z M122.625,83.088
			c2.452-0.325-0.625-1.056-0.495-0.025L122.625,83.088L122.625,83.088L122.625,83.088z M119.009,80.258
			c-1.727-2.252,3.247,0.379,1.492-1.98C119.024,77.104,117.606,79.602,119.009,80.258L119.009,80.258z M141.161,92.19
			c0.792-1.403-3.268-1.892-0.533-0.496C140.879,91.778,140.823,92.288,141.161,92.19L141.161,92.19z M141.161,92.19"/>
		<path d="M178.53,82.51c-0.282,1.117-0.458,2.991-0.524,5.623c0,0.516-0.233,0.775-0.699,0.775c-0.467,0-0.792-0.227-0.976-0.676
			c-0.5-1.216-0.974-2.064-1.425-2.549c-0.532-0.566-1.24-0.908-2.124-1.024c-0.949-0.15-3.315-0.226-7.096-0.226
			c-0.866,0-1.434,0.093-1.699,0.276c-0.167,0.116-0.25,0.366-0.25,0.75V96.78c0,0.384,0.241,0.564,0.723,0.55
			c1.484-0.017,3.633-0.118,6.447-0.301c0.55-0.068,0.921-0.246,1.113-0.538c0.192-0.292,0.38-1.045,0.562-2.261
			c0.116-0.666,0.509-0.925,1.176-0.773c0.565,0.117,0.809,0.375,0.725,0.773c-0.467,2.266-0.618,5.214-0.452,8.847
			c0.018,0.433-0.257,0.666-0.824,0.701c-0.467,0.049-0.758-0.202-0.875-0.752c-0.432-2.081-1.237-3.194-2.411-3.337
			c-1.175-0.14-3.087-0.211-5.735-0.211c-0.3,0-0.45,0.107-0.45,0.324v11.246c0,0.832,0.307,1.4,0.923,1.699
			c0.484,0.25,1.525,0.475,3.124,0.676c0.817,0.082,1.175,0.441,1.076,1.072c-0.101,0.549-0.833,0.768-2.2,0.65
			c-3.948-0.316-7.206-0.299-9.771,0.051c-0.717,0.1-1.074-0.193-1.074-0.875c0-0.434,0.357-0.684,1.074-0.75
			c1.633-0.184,2.448-1.615,2.448-4.299v-21.39c0-1.099-0.196-1.942-0.586-2.536c-0.392-0.59-1.121-1.129-2.187-1.611
			c-0.667-0.3-0.917-0.707-0.75-1.225c0.083-0.316,0.217-0.493,0.399-0.524c0.167-0.051,0.609-0.018,1.324,0.102
			c1.05,0.165,3.524,0.249,7.422,0.249c4.599,0,8.571-0.101,11.92-0.3c1.116-0.068,1.674,0.023,1.674,0.274
			C178.556,82.377,178.547,82.444,178.53,82.51L178.53,82.51z M178.53,82.51"/>
		<path d="M194.773,114.272c0,0.666-0.375,0.957-1.125,0.873c-2.297-0.215-5.147-0.184-8.545,0.1
			c-0.683,0.068-1.104,0.051-1.262-0.049c-0.159-0.102-0.237-0.373-0.237-0.826c0-0.398,0.454-0.734,1.361-1.012
			c0.91-0.273,1.362-1.096,1.362-2.459V88.284c0-1.35-0.196-2.341-0.587-2.976c-0.392-0.631-1.079-1.124-2.062-1.472
			c-0.517-0.186-0.775-0.442-0.775-0.775c0-0.501,0.375-0.876,1.125-1.126c1.133-0.365,2.308-0.932,3.524-1.699
			c1-0.6,1.633-0.897,1.898-0.897c0.617,0,0.925,0.422,0.925,1.273c0-0.066-0.033,0.767-0.101,2.498
			c-0.048,1.649-0.066,3.274-0.048,4.873l0.099,22.315c0,1.016,0.249,1.754,0.75,2.213c0.5,0.457,1.358,0.762,2.573,0.912
			C194.399,113.505,194.773,113.788,194.773,114.272L194.773,114.272z M194.773,114.272"/>
		<path d="M217.564,112.597c0,0.352-0.637,0.879-1.91,1.586c-1.276,0.709-2.297,1.062-3.061,1.062c-0.651,0-1.227-0.314-1.726-0.949
			c-0.5-0.633-0.851-0.949-1.051-0.949c-0.148,0-0.94,0.342-2.373,1.023c-1.432,0.684-2.874,1.025-4.323,1.025
			c-1.366,0-2.508-0.4-3.424-1.197c-1-0.885-1.5-2.082-1.5-3.602c0-2.881,3.3-4.946,9.897-6.195
			c1.132-0.219,1.708-0.677,1.723-1.376l0.051-1.599c0.102-2.733-1.106-4.098-3.623-4.098c-0.718,0-1.396,0.64-2.038,1.923
			c-0.64,1.284-1.562,1.975-2.761,2.074c-1.365,0.134-2.049-0.442-2.049-1.724c0-0.801,1.017-1.732,3.048-2.8
			c2.133-1.116,4.183-1.674,6.149-1.674c3.38,0,5.055,1.609,5.021,4.824l-0.1,10.295c-0.016,1.082,0.442,1.621,1.373,1.621
			c0.185,0,0.535-0.041,1.05-0.123c0.518-0.084,0.818-0.125,0.9-0.125C217.322,111.622,217.564,111.948,217.564,112.597
			L217.564,112.597z M209.868,106.9c0.018-0.417-0.08-0.692-0.288-0.824c-0.208-0.133-0.536-0.16-0.985-0.076
			c-4.016,0.717-6.023,2.025-6.023,3.923c0,1.914,1.041,2.873,3.123,2.873c0.833,0,1.693-0.156,2.575-0.473
			c1.034-0.367,1.549-0.809,1.549-1.326L209.868,106.9z M209.868,106.9"/>
		<path d="M236.207,109.624c0,1.766-0.68,3.17-2.037,4.211c-1.355,1.041-3.211,1.561-5.561,1.561c-1.564,0-3.133-0.166-4.697-0.5
			c-1.35-0.299-2.133-0.574-2.35-0.822c-0.133-0.236-0.199-1.375-0.199-3.426c0-0.883,0.199-1.342,0.6-1.375
			c0.4-0.049,0.74,0.168,1.023,0.65c1.25,2.184,3.266,3.273,6.049,3.273c2.348,0,3.523-0.816,3.523-2.449
			c0-0.717-0.266-1.314-0.801-1.797c-0.582-0.551-1.715-1.191-3.398-1.924c-2.432-1.083-4.057-2.032-4.871-2.851
			c-0.885-0.866-1.324-2.031-1.324-3.499c0-1.8,0.689-3.197,2.072-4.198c1.283-0.966,3-1.448,5.148-1.448
			c1.35,0,2.582,0.107,3.699,0.324c1.199,0.217,1.824,0.483,1.875,0.801c0.131,0.931,0.406,2.282,0.822,4.048
			c0.051,0.216-0.182,0.392-0.697,0.524c-0.551,0.116-0.918,0.024-1.102-0.274c-1.316-2.15-2.98-3.225-4.998-3.225
			c-2.281,0-3.424,0.733-3.424,2.2c0,0.815,0.309,1.466,0.924,1.948c0.551,0.417,1.844,1.067,3.875,1.95
			c2.133,0.917,3.582,1.742,4.348,2.473C235.709,106.75,236.207,108.025,236.207,109.624L236.207,109.624z M236.207,109.624"/>
		<path d="M265.195,114.122c0,0.582-0.393,0.891-1.176,0.922c-1.166,0.018-2.691,0.102-4.572,0.252
			c-0.934,0.184-1.602,0.068-1.998-0.35c-2.633-2.83-4.867-5.797-6.699-8.896c-0.15-0.267-0.34-0.399-0.574-0.399
			c-0.283,0-0.773,0.25-1.475,0.75c-0.783,0.432-1.174,1.048-1.174,1.848c0,0.567,0.016,1.383,0.051,2.45
			c0.031,1.064,0.299,1.764,0.799,2.098c0.35,0.236,1.158,0.416,2.422,0.551c0.783,0.102,1.176,0.393,1.176,0.875
			c0,0.383-0.062,0.621-0.188,0.713s-0.455,0.109-0.988,0.061c-1.664-0.148-4.479-0.064-8.445,0.25
			c-0.998,0.084-1.539-0.041-1.623-0.375c-0.033-0.115-0.051-0.281-0.051-0.5c0-0.516,0.508-0.906,1.525-1.174
			c0.916-0.234,1.375-1.309,1.375-3.225V88.133c0-1.365-0.135-2.315-0.402-2.849c-0.365-0.684-1.133-1.217-2.299-1.601
			c-0.549-0.183-0.824-0.439-0.824-0.773c0-0.484,0.393-0.858,1.174-1.123c1.25-0.417,2.441-0.993,3.574-1.726
			c0.916-0.6,1.484-0.899,1.699-0.899c0.684,0,1.025,0.432,1.025,1.299c0-0.117-0.01,0.709-0.027,2.475
			c-0.016,1.216-0.023,2.849-0.023,4.899l0.051,15.641c0,0.433,0.115,0.648,0.35,0.648c0.248,0,0.633-0.216,1.15-0.648
			c1.383-1.083,3.08-2.498,5.096-4.247c0.4-0.418,0.6-0.751,0.6-1c0-0.45-0.674-0.768-2.023-0.95
			c-0.582-0.067-0.857-0.392-0.824-0.975c0.049-0.584,0.342-0.833,0.873-0.751c1.201,0.167,2.951,0.259,5.248,0.276
			c1.602,0.016,3.191,0.025,4.775,0.025c0.516,0.018,0.773,0.323,0.773,0.925c0,0.564-0.408,0.874-1.225,0.925
			c-1.283,0.047-2.49,0.339-3.621,0.874c-1.584,0.715-3.275,1.975-5.076,3.772c-0.131,0.101-0.199,0.228-0.199,0.375
			c0,0.232,0.283,0.791,0.852,1.676c2.082,3.165,4.047,5.554,5.896,7.171c1.184,1.016,2.291,1.523,3.322,1.523
			c0.768,0,1.242,0.055,1.424,0.164C265.104,113.368,265.195,113.655,265.195,114.122L265.195,114.122z M265.195,114.122"/>
		<path d="M198.195,122.831c0,0.059-0.113,0.117-0.337,0.18c-0.145,0.039-0.267,0.172-0.368,0.398
			c-0.582,1.295-1.104,2.34-1.564,3.137c-0.01,0.018-0.034,0.025-0.073,0.021c-0.034-0.002-0.059-0.014-0.072-0.033
			c-0.079-0.115-0.278-0.523-0.598-1.219c-0.295-0.643-0.455-0.963-0.477-0.963c-0.036,0-0.208,0.309-0.52,0.928
			c-0.354,0.689-0.562,1.084-0.628,1.182c-0.008,0.021-0.031,0.033-0.068,0.029c-0.034,0-0.062-0.016-0.081-0.039
			c-0.238-0.369-0.781-1.381-1.633-3.033c-0.097-0.193-0.206-0.316-0.326-0.369c-0.207-0.092-0.311-0.156-0.311-0.199
			c0-0.127,0.07-0.184,0.208-0.168c0.626,0.062,1.173,0.051,1.643-0.041c0.106-0.02,0.16,0.016,0.16,0.107
			c0,0.127-0.073,0.207-0.219,0.244c-0.19,0.043-0.286,0.115-0.286,0.213c0,0.061,0.022,0.152,0.067,0.271
			c0.116,0.301,0.292,0.684,0.526,1.146c0.231,0.463,0.368,0.695,0.408,0.695c0.025,0,0.163-0.242,0.413-0.723
			c0.25-0.484,0.374-0.75,0.374-0.803c0-0.127-0.042-0.262-0.125-0.408c-0.102-0.215-0.217-0.342-0.351-0.385
			c-0.213-0.074-0.322-0.148-0.322-0.219c0-0.129,0.073-0.182,0.219-0.16c0.5,0.068,1.028,0.057,1.584-0.039
			c0.108-0.02,0.16,0.014,0.16,0.1c0,0.121-0.078,0.197-0.238,0.227c-0.187,0.035-0.281,0.131-0.281,0.287
			c0,0.074,0.021,0.162,0.062,0.262c0.5,1.221,0.788,1.832,0.866,1.832c0.028,0,0.158-0.238,0.389-0.715
			c0.247-0.51,0.417-0.918,0.514-1.229c0.007-0.016,0.01-0.033,0.01-0.055c0-0.139-0.107-0.246-0.326-0.324
			c-0.168-0.057-0.252-0.117-0.252-0.186c0-0.113,0.054-0.158,0.16-0.131c0.146,0.031,0.408,0.057,0.788,0.072
			c0.355,0.014,0.591,0.012,0.705-0.004C198.128,122.704,198.195,122.741,198.195,122.831L198.195,122.831z M198.195,122.831"/>
		<path d="M202.499,125.585c0,0.141-0.187,0.312-0.562,0.521c-0.43,0.23-0.868,0.346-1.318,0.346c-0.488,0-0.901-0.162-1.234-0.482
			c-0.357-0.34-0.535-0.793-0.535-1.361c0-0.639,0.198-1.154,0.598-1.543c0.373-0.363,0.83-0.545,1.37-0.545
			c0.319,0,0.62,0.102,0.899,0.307c0.248,0.182,0.414,0.389,0.494,0.621c0.029,0.082,0.073,0.127,0.132,0.137
			c0.083,0.018,0.127,0.072,0.127,0.168c0,0.135-0.16,0.248-0.478,0.34l-2.24,0.666c0.145,0.771,0.542,1.156,1.188,1.156
			c0.371,0,0.796-0.135,1.271-0.406c0.071-0.041,0.14-0.062,0.21-0.062C202.476,125.446,202.499,125.493,202.499,125.585
			L202.499,125.585z M201.349,123.638c0-0.18-0.073-0.334-0.217-0.469c-0.144-0.135-0.32-0.201-0.531-0.201
			c-0.596,0-0.895,0.43-0.895,1.287v0.115l1.322-0.396C201.241,123.911,201.349,123.798,201.349,123.638L201.349,123.638z
			 M201.349,123.638"/>
		<path d="M207.412,124.22c0,0.643-0.224,1.18-0.67,1.615c-0.428,0.418-0.937,0.627-1.525,0.627c-0.335,0-0.682-0.057-1.044-0.166
			c-0.351-0.107-0.528-0.205-0.531-0.291c-0.001-0.074-0.001-0.336,0.005-0.783c0.011-0.549,0.016-0.945,0.016-1.195
			c0-0.375-0.003-0.92-0.009-1.635c-0.008-0.715-0.011-1.189-0.011-1.422s-0.035-0.393-0.105-0.48
			c-0.064-0.078-0.207-0.141-0.423-0.186c-0.083-0.027-0.127-0.082-0.127-0.16c0-0.066,0.064-0.125,0.191-0.17
			c0.18-0.062,0.406-0.174,0.675-0.326c0.213-0.119,0.347-0.18,0.397-0.18c0.1,0,0.151,0.084,0.151,0.25
			c0,0.012-0.005,0.18-0.014,0.504c-0.007,0.305-0.009,0.613-0.005,0.93l0.011,1.68c0,0.16,0.054,0.205,0.165,0.137
			c0.389-0.225,0.793-0.334,1.215-0.334c0.485,0,0.881,0.145,1.185,0.438C207.261,123.366,207.412,123.747,207.412,124.22
			L207.412,124.22z M206.635,124.651c0-0.441-0.123-0.805-0.37-1.092c-0.232-0.27-0.515-0.402-0.851-0.402
			c-0.229,0-0.456,0.059-0.681,0.182c-0.222,0.119-0.334,0.244-0.334,0.377v1.303c0,0.625,0.346,0.938,1.036,0.938
			c0.359,0,0.649-0.117,0.87-0.348C206.525,125.376,206.635,125.06,206.635,124.651L206.635,124.651z M206.635,124.651"/>
		<path d="M215.275,125.927c0.012,0.029,0.02,0.049,0.02,0.062c0,0.068-0.166,0.18-0.497,0.338
			c-0.382,0.176-0.608,0.266-0.675,0.266c-0.06,0-0.125-0.098-0.201-0.295s-0.129-0.293-0.159-0.293c0.003,0-0.18,0.086-0.552,0.256
			c-0.371,0.168-0.651,0.254-0.843,0.254c-0.427,0-0.799-0.154-1.112-0.461c-0.379-0.367-0.57-0.881-0.57-1.541
			c0-0.555,0.225-1.031,0.673-1.434c0.395-0.354,0.798-0.529,1.209-0.529c0.292,0,0.641,0.037,1.045,0.111
			c0.127,0.021,0.188-0.014,0.188-0.111v-1.664c0-0.188-0.044-0.316-0.135-0.396c-0.059-0.051-0.195-0.113-0.413-0.186
			c-0.104-0.037-0.156-0.1-0.156-0.189c0-0.082,0.07-0.141,0.21-0.178c0.191-0.059,0.418-0.156,0.684-0.293
			c0.221-0.117,0.358-0.176,0.41-0.176c0.119,0,0.179,0.084,0.179,0.25c0-0.004-0.006,0.156-0.014,0.482
			c-0.011,0.326-0.016,0.643-0.016,0.951v4.416c0,0.186,0.083,0.277,0.248,0.277c0.062,0,0.144-0.01,0.248-0.029
			C215.159,125.796,215.234,125.833,215.275,125.927L215.275,125.927z M213.772,125.446v-1.742c0-0.141-0.124-0.287-0.378-0.439
			c-0.269-0.162-0.56-0.244-0.874-0.244c-0.678,0-1.016,0.418-1.016,1.254c0,0.449,0.134,0.83,0.401,1.148
			c0.271,0.316,0.586,0.475,0.949,0.475c0.165,0,0.358-0.055,0.583-0.166C213.661,125.622,213.772,125.526,213.772,125.446
			L213.772,125.446z M213.772,125.446"/>
		<path d="M219.488,125.585c0,0.141-0.189,0.312-0.564,0.521c-0.428,0.23-0.867,0.346-1.316,0.346c-0.49,0-0.9-0.162-1.234-0.482
			c-0.357-0.34-0.535-0.793-0.535-1.361c0-0.639,0.199-1.154,0.598-1.543c0.373-0.363,0.83-0.545,1.369-0.545
			c0.322,0,0.621,0.102,0.898,0.307c0.252,0.182,0.416,0.389,0.498,0.621c0.029,0.082,0.072,0.127,0.131,0.137
			c0.084,0.018,0.125,0.072,0.125,0.168c0,0.135-0.158,0.248-0.475,0.34l-2.24,0.666c0.145,0.771,0.541,1.156,1.186,1.156
			c0.371,0,0.797-0.135,1.273-0.406c0.07-0.041,0.141-0.062,0.207-0.062C219.461,125.446,219.488,125.493,219.488,125.585
			L219.488,125.585z M218.336,123.638c0-0.18-0.072-0.334-0.217-0.469c-0.143-0.135-0.32-0.201-0.533-0.201
			c-0.596,0-0.893,0.43-0.893,1.287v0.115l1.322-0.396C218.229,123.911,218.336,123.798,218.336,123.638L218.336,123.638z
			 M218.336,123.638"/>
		<path d="M224.818,122.823c0,0.061-0.104,0.123-0.309,0.188c-0.131,0.039-0.244,0.172-0.338,0.398
			c-0.16,0.383-0.438,0.943-0.83,1.68c-0.334,0.629-0.592,1.084-0.773,1.373c-0.01,0.021-0.031,0.033-0.062,0.029
			c-0.033-0.002-0.059-0.018-0.074-0.039c-0.688-0.988-1.273-1.998-1.762-3.033c-0.105-0.221-0.207-0.344-0.309-0.369
			c-0.188-0.074-0.281-0.141-0.281-0.199c0-0.129,0.062-0.186,0.189-0.168c0.197,0.023,0.49,0.031,0.881,0.018
			c0.373-0.01,0.641-0.029,0.791-0.059c0.094-0.02,0.139,0.016,0.139,0.107c0,0.113-0.064,0.186-0.195,0.219
			c-0.254,0.068-0.381,0.154-0.381,0.264c0,0.047,0.018,0.117,0.049,0.207c0.111,0.273,0.307,0.664,0.594,1.178
			c0.283,0.514,0.445,0.771,0.486,0.771c0.029,0,0.164-0.248,0.412-0.738c0.258-0.521,0.445-0.945,0.559-1.264
			c0.016-0.037,0.023-0.072,0.023-0.107c0-0.127-0.078-0.23-0.234-0.311c-0.15-0.062-0.227-0.119-0.227-0.176
			c0-0.111,0.051-0.158,0.15-0.141c0.129,0.023,0.357,0.043,0.684,0.057c0.328,0.018,0.541,0.023,0.637,0.012
			C224.758,122.698,224.818,122.731,224.818,122.823L224.818,122.823z M224.818,122.823"/>
		<path d="M229.127,125.585c0,0.141-0.188,0.312-0.562,0.521c-0.43,0.23-0.867,0.346-1.316,0.346c-0.49,0-0.9-0.162-1.234-0.482
			c-0.357-0.34-0.533-0.793-0.533-1.361c0-0.639,0.197-1.154,0.596-1.543c0.373-0.363,0.83-0.545,1.371-0.545
			c0.318,0,0.619,0.102,0.898,0.307c0.248,0.182,0.414,0.389,0.494,0.621c0.031,0.082,0.074,0.127,0.133,0.137
			c0.084,0.018,0.127,0.072,0.127,0.168c0,0.135-0.16,0.248-0.479,0.34l-2.238,0.666c0.145,0.771,0.541,1.156,1.186,1.156
			c0.371,0,0.797-0.135,1.271-0.406c0.072-0.041,0.143-0.062,0.211-0.062C229.102,125.446,229.127,125.493,229.127,125.585
			L229.127,125.585z M227.977,123.638c0-0.18-0.074-0.334-0.217-0.469c-0.145-0.135-0.32-0.201-0.531-0.201
			c-0.598,0-0.896,0.43-0.896,1.287v0.115l1.322-0.396C227.869,123.911,227.977,123.798,227.977,123.638L227.977,123.638z
			 M227.977,123.638"/>
		<path d="M232.131,126.261c0,0.131-0.072,0.186-0.219,0.17c-0.447-0.041-1.002-0.035-1.662,0.021
			c-0.133,0.012-0.213,0.01-0.246-0.01c-0.031-0.02-0.045-0.072-0.045-0.162c0-0.076,0.088-0.143,0.264-0.195
			c0.178-0.055,0.266-0.213,0.266-0.48v-4.396c0-0.262-0.037-0.455-0.113-0.578s-0.211-0.219-0.402-0.285
			c-0.1-0.037-0.15-0.088-0.15-0.152c0-0.096,0.072-0.168,0.219-0.219c0.221-0.07,0.449-0.182,0.686-0.33
			c0.195-0.117,0.318-0.176,0.367-0.176c0.123,0,0.182,0.084,0.182,0.25c0-0.016-0.008,0.148-0.02,0.486
			c-0.012,0.318-0.014,0.635-0.012,0.947l0.02,4.338c0,0.197,0.049,0.34,0.146,0.432c0.098,0.088,0.266,0.145,0.502,0.176
			C232.059,126.112,232.131,126.167,232.131,126.261L232.131,126.261z M232.131,126.261"/>
		<path d="M236.84,124.444c0,0.564-0.209,1.041-0.627,1.432c-0.418,0.389-0.938,0.586-1.555,0.586c-0.619,0-1.109-0.172-1.469-0.516
			c-0.346-0.338-0.518-0.783-0.518-1.338c0-0.572,0.219-1.055,0.654-1.447c0.424-0.379,0.932-0.568,1.521-0.568
			c0.631,0,1.123,0.17,1.477,0.512C236.668,123.435,236.84,123.88,236.84,124.444L236.84,124.444z M235.982,124.741
			c0-0.508-0.121-0.92-0.369-1.24c-0.238-0.307-0.543-0.461-0.912-0.461c-0.344,0-0.623,0.121-0.84,0.361
			c-0.217,0.242-0.326,0.537-0.326,0.885c0,0.557,0.127,0.988,0.377,1.299c0.236,0.287,0.539,0.428,0.916,0.428
			c0.355,0,0.637-0.117,0.844-0.352C235.881,125.425,235.982,125.116,235.982,124.741L235.982,124.741z M235.982,124.741"/>
		<path d="M241.916,124.312c0,0.607-0.201,1.121-0.607,1.543c-0.408,0.424-0.883,0.637-1.422,0.637
			c-0.328,0-0.645-0.061-0.947-0.176c-0.033-0.014-0.049,0.066-0.049,0.238v1.463c0,0.236,0.191,0.387,0.578,0.455
			c0.178,0.033,0.289,0.062,0.336,0.092c0.049,0.025,0.072,0.072,0.072,0.139c0,0.107-0.074,0.158-0.219,0.15
			c-0.682-0.047-1.277-0.029-1.793,0.049c-0.107,0.016-0.174,0.016-0.199,0c-0.027-0.018-0.039-0.061-0.039-0.133
			c0-0.055,0.092-0.119,0.275-0.199c0.16-0.064,0.238-0.221,0.238-0.467v-4.285c0-0.346-0.096-0.562-0.287-0.65
			c-0.225-0.1-0.338-0.184-0.338-0.248c0-0.07,0.066-0.125,0.199-0.16c0.172-0.043,0.348-0.117,0.527-0.223
			c0.152-0.09,0.244-0.133,0.277-0.133c0.098,0,0.178,0.09,0.238,0.268c0.092,0.258,0.15,0.389,0.182,0.389
			c0.004,0,0.146-0.076,0.416-0.229c0.299-0.166,0.59-0.248,0.875-0.248c0.463,0,0.846,0.133,1.146,0.395
			C241.736,123.286,241.916,123.729,241.916,124.312L241.916,124.312z M241.09,124.7c0-0.525-0.131-0.938-0.393-1.232
			c-0.213-0.246-0.465-0.369-0.754-0.369c-0.225,0-0.436,0.078-0.639,0.232c-0.27,0.201-0.406,0.482-0.406,0.842v1.377
			c0,0.086,0.123,0.178,0.371,0.275c0.264,0.105,0.553,0.16,0.861,0.16C240.771,125.985,241.09,125.558,241.09,124.7L241.09,124.7z
			 M241.09,124.7"/>
		<path d="M250.697,126.272c0,0.105-0.051,0.156-0.152,0.15c-0.66-0.049-1.275-0.049-1.844,0c-0.127,0.008-0.189-0.049-0.189-0.17
			c0-0.096,0.084-0.148,0.256-0.156c0.217-0.014,0.326-0.189,0.326-0.529v-1.293c0-0.725-0.295-1.088-0.885-1.088
			c-0.311,0-0.596,0.055-0.855,0.17c-0.236,0.102-0.355,0.199-0.359,0.301l-0.02,1.928c0,0.203,0.025,0.336,0.072,0.4
			c0.037,0.045,0.115,0.076,0.238,0.098c0.285,0.049,0.428,0.107,0.428,0.178c0,0.064-0.006,0.105-0.025,0.127
			c-0.02,0.033-0.076,0.047-0.172,0.043c-0.371-0.01-0.908-0.006-1.613,0.021c-0.102,0.002-0.166-0.006-0.195-0.025
			c-0.031-0.02-0.043-0.064-0.043-0.137c0-0.084,0.092-0.133,0.273-0.156c0.203-0.021,0.305-0.203,0.305-0.549v-1.322
			c0-0.355-0.082-0.631-0.244-0.824c-0.143-0.174-0.324-0.262-0.545-0.262c-0.322,0-0.613,0.064-0.873,0.197
			c-0.26,0.131-0.391,0.27-0.391,0.42v1.773c0,0.199,0.053,0.34,0.156,0.418c0.094,0.072,0.264,0.115,0.512,0.131
			c0.133,0.008,0.199,0.051,0.199,0.137c0,0.092-0.055,0.141-0.162,0.141c-0.809,0-1.396,0.023-1.758,0.068
			c-0.123,0.014-0.203,0.014-0.236,0c-0.031-0.016-0.047-0.057-0.047-0.117c0-0.082,0.123-0.152,0.361-0.211
			c0.146-0.037,0.219-0.227,0.219-0.566v-1.492c0-0.379-0.104-0.598-0.307-0.656c-0.172-0.049-0.277-0.084-0.312-0.105
			c-0.039-0.023-0.059-0.061-0.059-0.113c0-0.057,0.17-0.18,0.506-0.369c0.357-0.199,0.576-0.301,0.658-0.301
			c0.066,0,0.125,0.098,0.17,0.295c0.049,0.195,0.084,0.295,0.111,0.295c0.035,0,0.135-0.051,0.295-0.152
			c0.203-0.125,0.383-0.221,0.545-0.283c0.266-0.102,0.539-0.154,0.822-0.154c0.227,0,0.424,0.049,0.592,0.146
			c0.115,0.064,0.221,0.152,0.316,0.268c0.078,0.096,0.115,0.145,0.115,0.145l0.254-0.145c0.197-0.115,0.391-0.203,0.578-0.268
			c0.275-0.098,0.543-0.146,0.801-0.146c0.889,0,1.332,0.488,1.332,1.463v1.574c0,0.186,0.045,0.316,0.131,0.395
			c0.078,0.062,0.232,0.121,0.457,0.164C250.611,126.159,250.697,126.206,250.697,126.272L250.697,126.272z M250.697,126.272"/>
		<path d="M254.803,125.585c0,0.141-0.189,0.312-0.562,0.521c-0.43,0.23-0.867,0.346-1.318,0.346c-0.488,0-0.898-0.162-1.232-0.482
			c-0.357-0.34-0.535-0.793-0.535-1.361c0-0.639,0.199-1.154,0.598-1.543c0.373-0.363,0.828-0.545,1.369-0.545
			c0.322,0,0.621,0.102,0.9,0.307c0.25,0.182,0.414,0.389,0.494,0.621c0.029,0.082,0.072,0.127,0.133,0.137
			c0.084,0.018,0.125,0.072,0.125,0.168c0,0.135-0.16,0.248-0.477,0.34l-2.238,0.666c0.145,0.771,0.539,1.156,1.186,1.156
			c0.373,0,0.795-0.135,1.271-0.406c0.072-0.041,0.143-0.062,0.211-0.062C254.777,125.446,254.803,125.493,254.803,125.585
			L254.803,125.585z M253.652,123.638c0-0.18-0.072-0.334-0.219-0.469c-0.143-0.135-0.32-0.201-0.531-0.201
			c-0.596,0-0.893,0.43-0.893,1.287v0.115l1.32-0.396C253.543,123.911,253.652,123.798,253.652,123.638L253.652,123.638z
			 M253.652,123.638"/>
		<path d="M260.635,126.315c0,0.102-0.072,0.146-0.219,0.137c-0.697-0.035-1.227-0.043-1.584-0.021
			c-0.186,0.016-0.285-0.008-0.303-0.066c-0.006-0.02-0.008-0.047-0.008-0.084c0-0.062,0.092-0.121,0.279-0.174
			c0.172-0.049,0.258-0.217,0.258-0.502v-1.293c0-0.74-0.32-1.111-0.967-1.111c-0.287,0-0.555,0.068-0.803,0.205
			c-0.23,0.131-0.348,0.271-0.348,0.412v1.779c0,0.303,0.197,0.473,0.598,0.51c0.152,0.012,0.229,0.061,0.229,0.146
			c0,0.08-0.021,0.129-0.064,0.145c-0.018,0.006-0.074,0.008-0.164,0.004c-0.51-0.018-1.033,0.008-1.574,0.078
			c-0.117,0.018-0.189,0.021-0.219,0.018c-0.064-0.016-0.098-0.066-0.098-0.152c0-0.076,0.092-0.143,0.275-0.199
			c0.174-0.053,0.26-0.266,0.26-0.645v-1.475c0-0.25-0.033-0.408-0.098-0.475c-0.045-0.051-0.195-0.117-0.453-0.205
			c-0.064-0.023-0.098-0.068-0.098-0.135s0.068-0.123,0.201-0.172c0.182-0.066,0.381-0.176,0.598-0.324
			c0.182-0.125,0.297-0.186,0.348-0.186c0.09,0,0.146,0.1,0.178,0.299c0.029,0.199,0.068,0.299,0.121,0.299
			c-0.027,0,0.139-0.094,0.496-0.285c0.355-0.189,0.707-0.283,1.053-0.283c0.84,0,1.262,0.477,1.268,1.434l0.012,1.564
			c0,0.201,0.053,0.344,0.154,0.432c0.078,0.066,0.229,0.119,0.453,0.168C260.562,126.183,260.635,126.235,260.635,126.315
			L260.635,126.315z M260.635,126.315"/>
		<path d="M263.754,125.946c0,0.154-0.145,0.287-0.428,0.398c-0.254,0.098-0.508,0.146-0.77,0.146c-0.701,0-1.053-0.375-1.053-1.125
			v-1.758c0-0.223-0.018-0.359-0.055-0.41c-0.033-0.051-0.152-0.1-0.354-0.148c-0.051-0.014-0.078-0.064-0.078-0.148
			c0-0.096,0.02-0.152,0.059-0.17c0.35-0.174,0.654-0.482,0.914-0.924c0.033-0.062,0.105-0.082,0.207-0.061
			c0.072,0.023,0.109,0.066,0.113,0.127l0.02,0.607c0,0.047,0.008,0.078,0.023,0.098c0.023,0.029,0.074,0.043,0.156,0.043h1.084
			c0.059,0,0.059,0.076,0,0.229c-0.076,0.186-0.186,0.277-0.332,0.277h-0.732c-0.125,0-0.205,0.02-0.234,0.064
			c-0.021,0.027-0.033,0.105-0.033,0.236v1.59c0,0.4,0.035,0.654,0.107,0.762c0.094,0.135,0.312,0.205,0.654,0.205
			c0.115,0,0.252-0.02,0.414-0.057c0.164-0.037,0.248-0.057,0.258-0.057C263.734,125.872,263.754,125.897,263.754,125.946
			L263.754,125.946z M263.754,125.946"/>
		<path d="M265.959,126.165c0,0.842-0.354,1.475-1.064,1.9c-0.064,0.037-0.111,0.059-0.141,0.059c-0.045,0-0.088-0.053-0.127-0.156
			c-0.012-0.037-0.02-0.064-0.02-0.088c0-0.055,0.092-0.145,0.277-0.271c0.318-0.221,0.477-0.471,0.477-0.748
			c0-0.145-0.092-0.271-0.277-0.389c-0.258-0.162-0.389-0.363-0.389-0.6c0-0.156,0.055-0.289,0.162-0.396
			c0.105-0.104,0.25-0.156,0.426-0.156c0.213,0,0.381,0.078,0.498,0.232C265.9,125.708,265.959,125.913,265.959,126.165
			L265.959,126.165z M265.959,126.165"/>
		<path d="M195.985,133.399c0,0.566-0.21,1.041-0.628,1.434c-0.417,0.389-0.936,0.584-1.556,0.584c-0.617,0-1.107-0.17-1.466-0.514
			c-0.347-0.338-0.521-0.783-0.521-1.338c0-0.572,0.219-1.055,0.656-1.447c0.425-0.381,0.932-0.568,1.523-0.568
			c0.631,0,1.122,0.17,1.477,0.51C195.812,132.392,195.985,132.837,195.985,133.399L195.985,133.399z M195.129,133.696
			c0-0.508-0.123-0.92-0.37-1.238c-0.24-0.309-0.545-0.461-0.912-0.461c-0.344,0-0.625,0.121-0.842,0.361s-0.324,0.535-0.324,0.881
			c0,0.559,0.125,0.992,0.378,1.305c0.232,0.283,0.538,0.426,0.914,0.426c0.357,0,0.637-0.117,0.846-0.354
			C195.025,134.38,195.129,134.073,195.129,133.696L195.129,133.696z M195.129,133.696"/>
		<path d="M201.896,135.271c0,0.102-0.071,0.146-0.218,0.137c-0.695-0.035-1.224-0.041-1.583-0.02
			c-0.184,0.014-0.286-0.01-0.301-0.066c-0.007-0.02-0.01-0.047-0.01-0.084c0-0.064,0.094-0.123,0.282-0.174
			c0.172-0.049,0.257-0.217,0.257-0.502v-1.293c0-0.74-0.323-1.111-0.967-1.111c-0.288,0-0.554,0.068-0.802,0.205
			c-0.234,0.131-0.351,0.27-0.351,0.412v1.779c0,0.303,0.2,0.475,0.6,0.51c0.15,0.014,0.227,0.061,0.227,0.146
			c0,0.08-0.021,0.129-0.062,0.145c-0.02,0.006-0.076,0.008-0.165,0.004c-0.509-0.02-1.035,0.008-1.577,0.076
			c-0.116,0.016-0.188,0.023-0.219,0.016c-0.063-0.014-0.097-0.062-0.097-0.148c0-0.078,0.093-0.145,0.277-0.201
			c0.172-0.051,0.257-0.266,0.257-0.645v-1.475c0-0.248-0.031-0.408-0.097-0.475c-0.046-0.049-0.195-0.115-0.452-0.203
			c-0.063-0.023-0.097-0.068-0.097-0.135c0-0.068,0.066-0.123,0.2-0.172c0.18-0.066,0.379-0.176,0.596-0.326
			c0.182-0.123,0.299-0.184,0.351-0.184c0.087,0,0.146,0.098,0.176,0.299c0.027,0.197,0.069,0.297,0.121,0.297
			c-0.025,0,0.14-0.092,0.495-0.283c0.357-0.189,0.709-0.283,1.055-0.283c0.838,0,1.262,0.477,1.268,1.434l0.009,1.562
			c0,0.203,0.052,0.348,0.156,0.434c0.078,0.064,0.228,0.117,0.451,0.168C201.825,135.14,201.896,135.194,201.896,135.271
			L201.896,135.271z M201.896,135.271"/>
		<path d="M205.96,134.544c0,0.139-0.187,0.311-0.564,0.52c-0.427,0.229-0.866,0.344-1.316,0.344c-0.488,0-0.899-0.158-1.234-0.48
			c-0.356-0.342-0.534-0.793-0.534-1.361c0-0.641,0.2-1.156,0.598-1.543c0.373-0.363,0.831-0.547,1.371-0.547
			c0.32,0,0.62,0.102,0.897,0.309c0.251,0.18,0.416,0.389,0.497,0.621c0.03,0.082,0.073,0.125,0.131,0.135
			c0.085,0.018,0.127,0.074,0.127,0.17c0,0.133-0.158,0.246-0.476,0.34l-2.24,0.668c0.146,0.771,0.541,1.156,1.185,1.156
			c0.374,0,0.796-0.137,1.273-0.41c0.071-0.041,0.141-0.062,0.208-0.062C205.934,134.401,205.96,134.45,205.96,134.544
			L205.96,134.544z M204.807,132.593c0-0.178-0.071-0.332-0.214-0.467c-0.145-0.135-0.321-0.203-0.533-0.203
			c-0.596,0-0.895,0.43-0.895,1.289v0.117l1.323-0.4C204.702,132.868,204.807,132.755,204.807,132.593L204.807,132.593z
			 M204.807,132.593"/>
		<path d="M213.74,134.884c0.012,0.029,0.019,0.049,0.019,0.062c0,0.068-0.165,0.18-0.496,0.336
			c-0.382,0.178-0.607,0.268-0.675,0.268c-0.058,0-0.125-0.1-0.202-0.295c-0.075-0.197-0.128-0.293-0.157-0.293
			c0.003,0-0.181,0.084-0.552,0.254c-0.37,0.17-0.65,0.254-0.844,0.254c-0.427,0-0.798-0.154-1.112-0.461
			c-0.379-0.365-0.567-0.879-0.567-1.541c0-0.553,0.222-1.029,0.67-1.434c0.396-0.352,0.799-0.527,1.209-0.527
			c0.292,0,0.642,0.035,1.045,0.111c0.127,0.021,0.189-0.016,0.189-0.111v-1.664c0-0.188-0.045-0.318-0.136-0.396
			c-0.06-0.053-0.195-0.115-0.413-0.186c-0.104-0.039-0.156-0.102-0.156-0.189c0-0.082,0.072-0.141,0.21-0.178
			c0.191-0.061,0.421-0.158,0.687-0.293c0.22-0.117,0.355-0.176,0.406-0.176c0.121,0,0.18,0.082,0.18,0.25
			c0-0.004-0.003,0.156-0.015,0.48c-0.009,0.328-0.013,0.643-0.013,0.953v4.414c0,0.186,0.081,0.277,0.246,0.277
			c0.062,0,0.146-0.008,0.247-0.029C213.625,134.751,213.7,134.79,213.74,134.884L213.74,134.884z M212.239,134.401v-1.74
			c0-0.143-0.126-0.289-0.38-0.441c-0.27-0.162-0.561-0.242-0.875-0.242c-0.677,0-1.015,0.418-1.015,1.254
			c0,0.447,0.135,0.828,0.401,1.146c0.27,0.318,0.586,0.475,0.948,0.475c0.166,0,0.36-0.055,0.582-0.164
			C212.125,134.577,212.239,134.481,212.239,134.401L212.239,134.401z M212.239,134.401"/>
		<path d="M217.408,131.915c0,0.391-0.113,0.588-0.342,0.588c-0.035,0-0.152-0.023-0.355-0.068
			c-0.199-0.047-0.346-0.068-0.439-0.068c-0.363,0-0.545,0.242-0.545,0.732v1.434c0,0.168,0.059,0.289,0.176,0.361
			c0.066,0.041,0.236,0.098,0.51,0.17c0.146,0.035,0.219,0.092,0.219,0.164c0,0.088-0.012,0.139-0.037,0.158
			c-0.023,0.018-0.084,0.021-0.182,0.014c-0.713-0.074-1.277-0.078-1.692-0.012c-0.129,0.023-0.211,0.023-0.247,0
			c-0.029-0.02-0.045-0.076-0.045-0.17c0-0.088,0.09-0.156,0.271-0.209c0.179-0.051,0.27-0.207,0.27-0.465v-1.562
			c0-0.201-0.026-0.34-0.08-0.412c-0.054-0.07-0.2-0.166-0.439-0.285l-0.029-0.016c-0.064-0.033-0.097-0.076-0.097-0.135
			c0-0.066,0.065-0.121,0.199-0.166c0.223-0.078,0.427-0.188,0.611-0.33c0.152-0.121,0.25-0.182,0.291-0.182
			c0.119,0,0.188,0.104,0.211,0.303c0.029,0.256,0.062,0.385,0.102,0.385c0.004,0,0.184-0.121,0.543-0.365
			c0.238-0.16,0.496-0.236,0.779-0.236C217.291,131.542,217.408,131.663,217.408,131.915L217.408,131.915z M217.408,131.915"/>
		<path d="M222.223,133.399c0,0.566-0.209,1.041-0.627,1.434c-0.416,0.389-0.936,0.584-1.555,0.584s-1.107-0.17-1.467-0.514
			c-0.348-0.338-0.52-0.783-0.52-1.338c0-0.572,0.219-1.055,0.654-1.447c0.426-0.381,0.932-0.568,1.521-0.568
			c0.633,0,1.123,0.17,1.479,0.51C222.053,132.392,222.223,132.837,222.223,133.399L222.223,133.399z M221.369,133.696
			c0-0.508-0.125-0.92-0.369-1.238c-0.242-0.309-0.547-0.461-0.914-0.461c-0.344,0-0.625,0.121-0.842,0.361
			s-0.324,0.535-0.324,0.881c0,0.559,0.125,0.992,0.377,1.305c0.234,0.283,0.539,0.426,0.914,0.426c0.357,0,0.639-0.117,0.848-0.354
			C221.264,134.38,221.369,134.073,221.369,133.696L221.369,133.696z M221.369,133.696"/>
		<path d="M227.301,133.269c0,0.605-0.203,1.121-0.609,1.541c-0.406,0.426-0.881,0.639-1.422,0.639
			c-0.326,0-0.643-0.061-0.947-0.178c-0.031-0.014-0.049,0.068-0.049,0.24v1.461c0,0.236,0.193,0.389,0.578,0.457
			c0.178,0.031,0.291,0.062,0.338,0.09s0.072,0.072,0.072,0.139c0,0.109-0.074,0.16-0.221,0.15c-0.68-0.045-1.277-0.027-1.793,0.051
			c-0.105,0.016-0.172,0.016-0.197,0c-0.027-0.02-0.041-0.061-0.041-0.133c0-0.055,0.092-0.123,0.277-0.199
			c0.158-0.066,0.238-0.221,0.238-0.467v-4.285c0-0.348-0.096-0.564-0.287-0.65c-0.227-0.1-0.34-0.184-0.34-0.248
			c0-0.07,0.066-0.127,0.199-0.162c0.172-0.041,0.348-0.115,0.529-0.221c0.152-0.09,0.246-0.133,0.275-0.133
			c0.098,0,0.178,0.088,0.24,0.268c0.09,0.258,0.148,0.389,0.18,0.389c0.006,0,0.146-0.076,0.418-0.23
			c0.299-0.164,0.59-0.244,0.875-0.244c0.463,0,0.844,0.129,1.146,0.391C227.121,132.241,227.301,132.685,227.301,133.269
			L227.301,133.269z M226.477,133.657c0-0.527-0.133-0.939-0.395-1.234c-0.213-0.246-0.467-0.369-0.754-0.369
			c-0.225,0-0.438,0.08-0.641,0.234c-0.27,0.201-0.404,0.48-0.404,0.842v1.375c0,0.086,0.123,0.178,0.371,0.275
			c0.266,0.107,0.553,0.162,0.863,0.162C226.156,134.942,226.477,134.513,226.477,133.657L226.477,133.657z M226.477,133.657"/>
		<path d="M234.502,134.894c0,0.068-0.125,0.17-0.371,0.307c-0.248,0.139-0.447,0.207-0.596,0.207c-0.127,0-0.238-0.061-0.336-0.184
			c-0.098-0.125-0.164-0.184-0.205-0.184c-0.029,0-0.18,0.064-0.461,0.197c-0.277,0.133-0.559,0.197-0.84,0.197
			c-0.266,0-0.488-0.076-0.666-0.23c-0.195-0.172-0.291-0.406-0.291-0.699c0-0.562,0.643-0.963,1.924-1.205
			c0.221-0.043,0.332-0.131,0.334-0.27l0.012-0.311c0.02-0.529-0.215-0.797-0.705-0.797c-0.139,0-0.271,0.127-0.396,0.373
			c-0.123,0.252-0.303,0.387-0.537,0.404c-0.266,0.027-0.396-0.084-0.396-0.334c0-0.156,0.197-0.338,0.592-0.545
			c0.414-0.217,0.812-0.326,1.195-0.326c0.656,0,0.984,0.312,0.977,0.939l-0.018,2c-0.006,0.213,0.084,0.316,0.266,0.316
			c0.035,0,0.102-0.008,0.203-0.025c0.1-0.016,0.16-0.023,0.176-0.023c0.094,0,0.141,0.064,0.141,0.189V134.894z M233.006,133.786
			c0.002-0.082-0.016-0.135-0.057-0.162c-0.041-0.025-0.105-0.029-0.191-0.014c-0.781,0.139-1.172,0.393-1.172,0.762
			c0,0.375,0.203,0.561,0.607,0.561c0.164,0,0.33-0.031,0.502-0.092c0.199-0.074,0.299-0.158,0.299-0.26L233.006,133.786z
			 M233.006,133.786"/>
		<path d="M237.768,134.903c0,0.154-0.143,0.287-0.43,0.398c-0.252,0.098-0.508,0.146-0.768,0.146c-0.701,0-1.053-0.377-1.053-1.125
			v-1.758c0-0.223-0.02-0.361-0.053-0.41c-0.037-0.051-0.154-0.102-0.355-0.148c-0.053-0.014-0.078-0.064-0.078-0.15
			c0-0.096,0.02-0.152,0.059-0.17c0.35-0.172,0.652-0.48,0.912-0.922c0.037-0.064,0.107-0.082,0.211-0.061
			c0.07,0.023,0.107,0.064,0.111,0.127l0.018,0.607c0,0.045,0.01,0.078,0.025,0.096c0.025,0.029,0.074,0.043,0.156,0.043h1.082
			c0.062,0,0.062,0.078,0,0.23c-0.072,0.184-0.184,0.275-0.328,0.275h-0.734c-0.127,0-0.203,0.021-0.234,0.064
			c-0.021,0.029-0.033,0.107-0.033,0.238v1.588c0,0.404,0.037,0.656,0.107,0.764c0.094,0.137,0.312,0.205,0.656,0.205
			c0.113,0,0.25-0.02,0.412-0.057s0.248-0.057,0.258-0.057C237.748,134.829,237.768,134.853,237.768,134.903L237.768,134.903z
			 M237.768,134.903"/>
		<path d="M244.803,134.894c0,0.068-0.123,0.17-0.371,0.307c-0.25,0.139-0.445,0.207-0.596,0.207c-0.127,0-0.238-0.061-0.334-0.184
			c-0.098-0.125-0.166-0.184-0.205-0.184c-0.029,0-0.184,0.064-0.463,0.197c-0.277,0.133-0.559,0.197-0.84,0.197
			c-0.266,0-0.486-0.076-0.666-0.23c-0.193-0.172-0.291-0.406-0.291-0.699c0-0.562,0.641-0.963,1.924-1.205
			c0.221-0.043,0.332-0.131,0.336-0.27l0.01-0.311c0.02-0.529-0.215-0.797-0.705-0.797c-0.139,0-0.27,0.127-0.395,0.373
			c-0.125,0.252-0.303,0.387-0.539,0.404c-0.264,0.027-0.396-0.084-0.396-0.334c0-0.156,0.197-0.338,0.592-0.545
			c0.414-0.217,0.814-0.326,1.195-0.326c0.658,0,0.984,0.312,0.977,0.939l-0.02,2c-0.002,0.213,0.086,0.316,0.268,0.316
			c0.035,0,0.102-0.008,0.203-0.025c0.102-0.016,0.16-0.023,0.176-0.023c0.094,0,0.141,0.064,0.141,0.189V134.894z M243.307,133.786
			c0.004-0.082-0.016-0.135-0.055-0.162c-0.043-0.025-0.107-0.029-0.193-0.014c-0.781,0.139-1.172,0.393-1.172,0.762
			c0,0.375,0.203,0.561,0.607,0.561c0.164,0,0.33-0.031,0.502-0.092c0.199-0.074,0.301-0.158,0.301-0.26L243.307,133.786z
			 M243.307,133.786"/>
		<path d="M250.537,134.903c0,0.154-0.143,0.287-0.428,0.398c-0.254,0.098-0.508,0.146-0.77,0.146c-0.701,0-1.053-0.377-1.053-1.125
			v-1.758c0-0.223-0.018-0.361-0.053-0.41c-0.035-0.051-0.154-0.102-0.355-0.148c-0.051-0.014-0.078-0.064-0.078-0.15
			c0-0.096,0.02-0.152,0.057-0.17c0.352-0.172,0.656-0.48,0.916-0.922c0.033-0.064,0.105-0.082,0.209-0.061
			c0.07,0.023,0.107,0.064,0.111,0.127l0.02,0.607c0,0.045,0.008,0.078,0.023,0.096c0.023,0.029,0.076,0.043,0.156,0.043h1.084
			c0.061,0,0.061,0.078,0,0.23c-0.074,0.184-0.186,0.275-0.332,0.275h-0.732c-0.127,0-0.205,0.021-0.234,0.064
			c-0.021,0.029-0.033,0.107-0.033,0.238v1.588c0,0.404,0.035,0.656,0.107,0.764c0.094,0.137,0.312,0.205,0.654,0.205
			c0.115,0,0.252-0.02,0.414-0.057c0.164-0.037,0.248-0.057,0.258-0.057C250.518,134.829,250.537,134.853,250.537,134.903
			L250.537,134.903z M250.537,134.903"/>
		<path d="M252.971,129.737c0,0.15-0.055,0.287-0.168,0.414c-0.111,0.129-0.232,0.193-0.367,0.193c-0.15,0-0.277-0.045-0.373-0.137
			c-0.1-0.09-0.146-0.209-0.146-0.354c0-0.143,0.061-0.277,0.18-0.4c0.117-0.123,0.244-0.184,0.379-0.184
			C252.807,129.271,252.971,129.425,252.971,129.737L252.971,129.737z M253.51,135.237c-0.016,0.094-0.055,0.146-0.115,0.162
			c-0.018,0.002-0.094,0-0.234-0.012c-0.482-0.033-0.957-0.025-1.424,0.02c-0.127,0.014-0.205,0.01-0.236-0.016
			c-0.033-0.021-0.049-0.072-0.049-0.154c0-0.074,0.084-0.137,0.258-0.184c0.188-0.057,0.279-0.234,0.279-0.541v-1.273
			c0-0.254-0.025-0.436-0.076-0.539c-0.07-0.141-0.219-0.25-0.441-0.324c-0.102-0.035-0.152-0.09-0.152-0.16
			c0-0.094,0.074-0.166,0.219-0.209c0.273-0.084,0.514-0.197,0.725-0.336c0.168-0.117,0.271-0.176,0.311-0.176
			c0.131,0,0.193,0.086,0.191,0.254c-0.016,0.85-0.021,1.711-0.021,2.594c0,0.211,0.031,0.361,0.094,0.453
			c0.066,0.1,0.197,0.17,0.389,0.213C253.434,135.058,253.529,135.136,253.51,135.237L253.51,135.237z M253.51,135.237"/>
		<path d="M262.068,135.228c0,0.105-0.051,0.156-0.15,0.152c-0.662-0.049-1.279-0.049-1.848,0c-0.127,0.008-0.189-0.049-0.189-0.17
			c0-0.096,0.086-0.15,0.258-0.156c0.217-0.014,0.326-0.189,0.326-0.531v-1.291c0-0.727-0.295-1.088-0.885-1.088
			c-0.311,0-0.596,0.055-0.855,0.168c-0.236,0.102-0.355,0.201-0.359,0.303l-0.02,1.93c0,0.199,0.023,0.334,0.072,0.398
			c0.035,0.045,0.115,0.076,0.238,0.098c0.285,0.049,0.426,0.107,0.426,0.178c0,0.062-0.006,0.105-0.023,0.125
			c-0.02,0.035-0.076,0.049-0.174,0.045c-0.369-0.012-0.908-0.006-1.613,0.02c-0.102,0.004-0.166-0.004-0.193-0.023
			c-0.029-0.02-0.045-0.064-0.045-0.135c0-0.086,0.092-0.135,0.277-0.158c0.199-0.021,0.301-0.205,0.301-0.547v-1.322
			c0-0.357-0.082-0.631-0.242-0.826c-0.143-0.176-0.324-0.262-0.545-0.262c-0.322,0-0.615,0.064-0.875,0.195
			c-0.258,0.131-0.389,0.271-0.389,0.422v1.771c0,0.201,0.051,0.342,0.156,0.42c0.094,0.07,0.264,0.113,0.51,0.129
			c0.135,0.008,0.201,0.053,0.201,0.139c0,0.092-0.055,0.141-0.164,0.141c-0.807,0-1.395,0.021-1.756,0.066
			c-0.123,0.018-0.203,0.018-0.24,0c-0.027-0.016-0.043-0.055-0.043-0.115c0-0.082,0.121-0.15,0.361-0.211
			c0.145-0.037,0.217-0.227,0.217-0.568v-1.492c0-0.377-0.102-0.596-0.307-0.654c-0.172-0.049-0.275-0.084-0.312-0.107
			c-0.039-0.023-0.057-0.059-0.057-0.111c0-0.057,0.17-0.182,0.506-0.371c0.355-0.199,0.576-0.299,0.656-0.299
			c0.068,0,0.125,0.096,0.172,0.293c0.047,0.195,0.084,0.295,0.109,0.295c0.037,0,0.135-0.051,0.297-0.152
			c0.201-0.125,0.383-0.219,0.545-0.281c0.266-0.104,0.539-0.154,0.822-0.154c0.223,0,0.422,0.047,0.59,0.146
			c0.117,0.062,0.223,0.152,0.316,0.266c0.078,0.098,0.117,0.146,0.117,0.146l0.252-0.146c0.199-0.113,0.391-0.203,0.578-0.266
			c0.275-0.1,0.543-0.146,0.803-0.146c0.889,0,1.33,0.486,1.33,1.463v1.572c0,0.186,0.045,0.318,0.133,0.396
			c0.078,0.062,0.23,0.119,0.455,0.162C261.98,135.114,262.068,135.163,262.068,135.228L262.068,135.228z M262.068,135.228"/>
		<path d="M266.174,134.544c0,0.139-0.189,0.311-0.562,0.52c-0.432,0.229-0.867,0.344-1.318,0.344c-0.488,0-0.902-0.158-1.234-0.48
			c-0.355-0.342-0.533-0.793-0.533-1.361c0-0.641,0.199-1.156,0.596-1.543c0.373-0.363,0.83-0.547,1.371-0.547
			c0.32,0,0.619,0.102,0.898,0.309c0.25,0.18,0.416,0.389,0.496,0.621c0.027,0.082,0.072,0.125,0.131,0.135
			c0.086,0.018,0.127,0.074,0.127,0.17c0,0.133-0.16,0.246-0.477,0.34l-2.24,0.668c0.146,0.771,0.541,1.156,1.188,1.156
			c0.371,0,0.795-0.137,1.271-0.41c0.072-0.041,0.141-0.062,0.209-0.062C266.148,134.401,266.174,134.45,266.174,134.544
			L266.174,134.544z M265.021,132.593c0-0.178-0.07-0.332-0.217-0.467c-0.145-0.135-0.32-0.203-0.531-0.203
			c-0.598,0-0.893,0.43-0.893,1.289v0.117l1.318-0.4C264.914,132.868,265.021,132.755,265.021,132.593L265.021,132.593z
			 M265.021,132.593"/>
	</g>
	<g>
		<path d="M54.875,111.06v-9.751h15.317V85.99h9.826v15.318h15.317v9.751H80.019v15.393h-9.826V111.06H54.875z"/>
	</g>
</g>
</svg>
