<?xml version="1.0" encoding="utf-8"?>
<!-- Generator: Adobe Illustrator 14.0.0, SVG Export Plug-In . SVG Version: 6.00 Build 43363)  -->
<!DOCTYPE svg PUBLIC "-//W3C//DTD SVG 1.1//EN" "http://www.w3.org/Graphics/SVG/1.1/DTD/svg11.dtd" [
	<!ENTITY ns_extend "http://ns.adobe.com/Extensibility/1.0/">
	<!ENTITY ns_ai "http://ns.adobe.com/AdobeIllustrator/10.0/">
	<!ENTITY ns_graphs "http://ns.adobe.com/Graphs/1.0/">
	<!ENTITY ns_vars "http://ns.adobe.com/Variables/1.0/">
	<!ENTITY ns_imrep "http://ns.adobe.com/ImageReplacement/1.0/">
	<!ENTITY ns_sfw "http://ns.adobe.com/SaveForWeb/1.0/">
	<!ENTITY ns_custom "http://ns.adobe.com/GenericCustomNamespace/1.0/">
	<!ENTITY ns_adobe_xpath "http://ns.adobe.com/XPath/1.0/">
]>
<svg version="1.1" id="Layer_1" xmlns:x="&ns_extend;" xmlns:i="&ns_ai;" xmlns:graph="&ns_graphs;"
	 xmlns="http://www.w3.org/2000/svg" xmlns:xlink="http://www.w3.org/1999/xlink" x="0px" y="0px" width="280.5px" height="109px"
	 viewBox="0 0 280.5 109" enable-background="new 0 0 280.5 109" xml:space="preserve">
<metadata>
	<sfw  xmlns="&ns_sfw;">
		<slices></slices>
		<sliceSourceBounds  bottomLeftOrigin="true" y="364.263" x="289.47" width="276.28" height="105.544"></sliceSourceBounds>
	</sfw>
</metadata>
<g>
	<g>
		<path fill="#4C0000" d="M278.25,93.347c0,5.5-4.5,10-10,10H163.511c-5.5,0-10-4.5-10-10V11.193c0-5.5,4.5-10,10-10H268.25
			c5.5,0,10,4.5,10,10V93.347z"/>
	</g>
	<g>
		<g>
			<path fill="#CC0000" d="M277.24,94.756c0,5.5-4.5,10-10,10H162.5c-5.5,0-10-4.5-10-10V12.602c0-5.5,4.5-10,10-10h104.74
				c5.5,0,10,4.5,10,10V94.756z"/>
		</g>
		<defs>
			<filter id="Adobe_OpacityMaskFilter" filterUnits="userSpaceOnUse" x="152.5" y="2.602" width="124.74" height="102.154">
				
					<feColorMatrix  type="matrix" values="-1 0 0 0 1  0 -1 0 0 1  0 0 -1 0 1  0 0 0 1 0" color-interpolation-filters="sRGB" result="source"/>
			</filter>
		</defs>
		<mask maskUnits="userSpaceOnUse" x="152.5" y="2.602" width="124.74" height="102.154" id="SVGID_1_">
			<g filter="url(#Adobe_OpacityMaskFilter)">
				<image overflow="visible" width="129" height="107" xlink:href="2AF9E446.jpg"  transform="matrix(1 0 0 1 150.5 0)">
				</image>
			</g>
		</mask>
		<g opacity="0.75" mask="url(#SVGID_1_)">
			<path fill="#330000" d="M277.24,94.756c0,5.5-4.5,10-10,10H162.5c-5.5,0-10-4.5-10-10V12.602c0-5.5,4.5-10,10-10h104.74
				c5.5,0,10,4.5,10,10V94.756z"/>
		</g>
	</g>
</g>
<g>
	<path fill="#FFFFFF" d="M200.857,14.117c0,3.667-1.345,6.035-4.036,7.108l-13.797,5.499V89.75c0,2.236-0.516,4.068-1.548,5.499
		c-1.034,1.43-2.333,2.146-3.898,2.146c-1.562,0-2.845-0.716-3.845-2.146c-1.002-1.431-1.505-3.262-1.505-5.499V31.014l-8.822,3.353
		c-0.687,0.268-1.219,0.402-1.595,0.402c-1.563,0-2.831-0.782-3.801-2.346c-0.97-1.564-1.454-3.464-1.454-5.699
		c0-3.666,1.344-6.035,4.036-7.108l33.414-13.142c0.688-0.268,1.22-0.402,1.596-0.402c1.562,0,2.829,0.784,3.802,2.347
		C200.372,9.983,200.857,11.884,200.857,14.117z"/>
	<path fill="#FFFFFF" d="M215.646,79.862c0,1.584-0.393,2.97-1.178,4.158s-1.732,1.782-2.84,1.782c-1.711,0-3.58-2.012-5.613-6.039
		c-2.957,3.366-6.053,5.049-9.285,5.049c-5.082,0-8.5-4.092-10.254-12.276c-0.416-1.913-0.625-4.091-0.625-6.534
		c0-6.534,1.316-14.321,3.949-23.364c0.693-2.376,1.871-3.564,3.535-3.564c1.107,0,2.078,0.529,2.91,1.584
		c0.832,1.057,1.246,2.376,1.246,3.96c0,0.792-0.115,1.584-0.346,2.376c-2.217,7.657-3.326,13.993-3.326,19.008
		c0,1.254,0.092,2.311,0.277,3.168c0.646,3.037,1.732,4.554,3.256,4.554c1.756,0,3.65-1.748,5.684-5.247
		c-0.094-1.122-0.139-2.31-0.139-3.564c0-4.884,0.992-12.111,2.979-21.681c0.555-2.706,1.777-4.059,3.672-4.059
		c1.154,0,2.137,0.512,2.945,1.535c0.809,1.024,1.213,2.36,1.213,4.009c0,0.594-0.068,1.222-0.207,1.881
		c-1.803,8.383-2.703,14.29-2.703,17.721c0,4.95,1.109,8.68,3.326,11.187C215.139,76.694,215.646,78.147,215.646,79.862z"/>
	<path fill="#FFFFFF" d="M244.125,59.765c0,6.997-1.271,12.64-3.812,16.929c-2.725,4.554-6.467,6.831-11.225,6.831
		c-2.727,0-5.082-0.825-7.068-2.475c-1.801,2.905-3.35,4.356-4.643,4.356c-1.062,0-1.951-0.445-2.666-1.336
		c-0.717-0.891-1.074-2.062-1.074-3.515c0-2.243,0.9-4.752,2.701-7.524V23.333c0-1.649,0.369-3.002,1.109-4.059
		c0.738-1.055,1.686-1.584,2.84-1.584s2.115,0.529,2.877,1.584c0.762,1.057,1.143,2.41,1.143,4.059v19.008
		c3.141-3.498,6.352-5.247,9.631-5.247C240.729,37.094,244.125,44.652,244.125,59.765z M236.156,59.765
		c0-2.574-0.301-4.817-0.9-6.732c-0.787-2.574-1.965-3.861-3.535-3.861c-2.125,0-4.227,2.212-6.305,6.633
		c-0.371,0.792-0.74,1.485-1.109,2.079v13.563c1.617,0.396,3.002,0.594,4.158,0.594C233.592,72.042,236.156,67.95,236.156,59.765z"
		/>
	<path fill="#FFFFFF" d="M271.701,46.697c0,2.838-0.531,5.677-1.594,8.514c-1.156,3.103-3.027,5.891-5.613,8.365
		c-2.588,2.475-5.197,3.945-7.83,4.406c-1.34,0.265-2.332,0.133-2.979-0.396c0.83,4.489,2.285,6.732,4.365,6.732
		c1.846,0,4.041-1.617,6.582-4.851c0.785-0.99,1.662-1.485,2.633-1.485c0.877,0,1.697,0.562,2.461,1.683
		c0.762,1.123,1.143,2.442,1.143,3.96c0,1.584-0.463,2.97-1.387,4.158c-3.74,4.752-7.391,7.128-10.947,7.128
		c-3.881,0-7.068-2.574-9.562-7.722c-2.217-4.619-3.326-9.833-3.326-15.642c0-5.213,0.924-9.965,2.771-14.256
		c1.479-3.498,3.627-6.5,6.445-9.009c2.816-2.507,5.611-3.762,8.385-3.762c2.539,0,4.584,1.123,6.131,3.366
		C270.926,40.131,271.701,43.068,271.701,46.697z M264.84,47.588c0-1.386-0.738-2.079-2.217-2.079c-0.785,0-1.455,0.166-2.01,0.495
		c-4.111,2.574-6.467,6.435-7.066,11.583c0.369,0.396,0.992,0.759,1.871,1.089c2.217-0.263,4.133-1.122,5.75-2.574
		c1.062-0.924,1.963-2.31,2.703-4.158C264.518,50.295,264.84,48.843,264.84,47.588z"/>
</g>
<g>
	<g id="XMLID_1_">
		<g>
			<path fill="#FFFFFF" d="M158.425,43.446c2.778,13.523-0.906,38.67-3.89,49.251c-1.499,5.311-6.731,4.584-9.331,2.231
				c-37.336,1.801-74.698,5.642-112.002,7.964c0.312-7.574,0.79-15.244,1.157-22.847c-0.205-3.797,0.267-7.625,0.217-11.438
				c0.114-6.609-0.237-13.222-1.138-19.669c-0.173-0.195-0.205-0.746-0.365-1.42C31.41,40.618,19.12,33.323,11.672,29.284
				c-2.61-1.423-5.167-2.785-6.973-1.835c-1.114-4.633-0.188-9.729,0.359-13.435c0.989-6.785,8.178-7.425,13.243-7.954
				c11.361-1.194,27.57-1.793,36.576-2.103c14.621-0.513,29.836,0.231,45.759,0.675c10.225,0.285,20.371-0.243,28.089,0.783
				c9.645,1.289,9.926,13.502,11.151,23.32c4.896,2.177,9.704,4.752,14.245,7.99C155.844,37.663,157.728,40.056,158.425,43.446z"/>
			<path fill="#FFFFFF" d="M34.577,68.607c0.049,3.813-0.422,7.641-0.217,11.438c-0.368,7.603-0.845,15.272-1.157,22.847
				c-3.607,1.45-6.509,4.11-10.797,2.15c-8.439-3.856-18.076-25.533-18.903-33.75C2.235,58.742,3.47,38.139,4.7,27.449
				c1.806-0.95,4.363,0.412,6.973,1.835c7.447,4.039,19.737,11.334,21.402,18.233c0.16,0.675,0.191,1.226,0.365,1.42
				C34.339,55.385,34.691,61.998,34.577,68.607z"/>
		</g>
		<g>
			<path fill="none" stroke="#000000" stroke-width="2" stroke-linecap="round" d="M33.202,102.892
				c-3.607,1.45-6.509,4.11-10.797,2.15c-8.439-3.856-18.076-25.533-18.903-33.75C2.235,58.742,3.47,38.139,4.7,27.449"/>
			<path fill="none" stroke="#000000" stroke-width="2" stroke-linecap="round" d="M4.7,27.449
				c-1.114-4.633-0.188-9.729,0.359-13.435c0.989-6.785,8.178-7.425,13.243-7.954c11.361-1.194,27.57-1.793,36.576-2.103
				c14.621-0.513,29.836,0.231,45.759,0.675c10.225,0.285,20.371-0.243,28.089,0.783c9.645,1.289,9.926,13.502,11.151,23.32
				c4.896,2.177,9.704,4.752,14.245,7.99"/>
			<path fill="none" stroke="#000000" stroke-width="2" stroke-linecap="round" d="M4.7,27.449c1.806-0.95,4.363,0.412,6.973,1.835
				c7.447,4.039,19.737,11.334,21.402,18.233c0.16,0.675,0.191,1.226,0.365,1.42"/>
			<path fill="none" stroke="#000000" stroke-width="2" stroke-linecap="round" d="M33.202,102.892
				c37.304-2.322,74.666-6.163,112.002-7.964"/>
			<path fill="none" stroke="#000000" stroke-width="2" stroke-linecap="round" d="M145.204,94.928
				c2.6,2.354,7.832,3.08,9.331-2.231c2.983-10.581,6.668-35.728,3.89-49.251c-0.697-3.391-2.581-5.784-4.303-6.722"/>
			<path fill="none" stroke="#000000" stroke-width="2" stroke-linecap="round" d="M33.202,102.892
				c0.312-7.574,0.79-15.244,1.157-22.847"/>
			<path fill="none" stroke="#000000" stroke-width="2" stroke-linecap="round" d="M34.359,80.045
				c-0.205-3.797,0.267-7.625,0.217-11.438"/>
			<path fill="none" stroke="#000000" stroke-width="2" stroke-linecap="round" d="M34.577,68.607
				c0.114-6.609-0.237-13.222-1.138-19.669"/>
			<path fill="none" stroke="#000000" stroke-width="0.5" stroke-linecap="round" d="M21.633,95.377
				c-0.869-13.7-1.989-28.176,0.36-41.646"/>
		</g>
	</g>
</g>
<g>
	<path stroke="#FFFFFF" d="M52.388,25.47c0,2.052-0.578,3.811-1.731,5.282c-1.155,1.471-2.449,2.207-3.885,2.207
		c-2.059,0-3.588-1.425-4.585-4.279c-0.688-1.959-1.342-3.387-1.965-4.279c-5.741,1.337-10.233,5.572-13.477,12.704
		c-2.871,6.418-4.306,13.996-4.306,22.732c0,4.814,0.562,9.317,1.686,13.505c1.497,5.797,3.649,8.514,6.458,8.157
		c4.055-0.535,7.674-4.5,10.856-11.901c1.06-2.495,2.526-3.745,4.398-3.745c1.497,0,2.808,0.736,3.931,2.207
		c1.123,1.47,1.685,3.275,1.685,5.415c0,1.428-0.281,2.809-0.842,4.146c-5.555,12.926-12.074,19.389-19.561,19.389
		c-6.364,0-11.325-4.323-14.881-12.971c-2.934-7.131-4.431-15.599-4.493-25.407c-0.126-16.759,3.775-29.863,11.699-39.313
		c5.99-7.131,11.605-10.697,16.846-10.697c4.617,0,8.454,4.369,11.512,13.104C52.169,22.976,52.388,24.223,52.388,25.47z"/>
	<path stroke="#FFFFFF" d="M69.834,59.477c0,6.93-1.225,13.3-3.672,19.107c-2.818,6.732-6.514,10.098-11.086,10.098
		c-0.832,0-1.687-0.133-2.564-0.396c-3.326-0.99-5.844-3.597-7.553-7.821c-1.524-3.696-2.287-8.151-2.287-13.365
		c0-6.93,1.224-13.266,3.672-19.008c2.864-6.732,6.559-10.098,11.086-10.098c0.832,0,1.686,0.133,2.564,0.396
		c3.326,0.99,5.843,3.598,7.553,7.821C69.072,49.842,69.834,54.264,69.834,59.477z M61.935,59.972c0-1.98-0.277-4.025-0.831-6.138
		c-0.693-2.574-1.618-4.025-2.772-4.356c-1.709-0.527-3.35,0.858-4.919,4.158c-1.248,2.574-2.079,5.247-2.495,8.019
		c-0.231,1.584-0.347,3.234-0.347,4.95c0,1.98,0.277,4.027,0.832,6.138c0.693,2.574,1.617,4.026,2.772,4.356
		c1.154,0.331,2.425-0.396,3.811-2.178c1.755-2.243,2.956-5.577,3.603-9.999C61.819,63.338,61.935,61.689,61.935,59.972z"/>
	<path stroke="#FFFFFF" d="M98.604,81.455c0,1.584-0.393,2.97-1.178,4.158c-0.786,1.188-1.732,1.782-2.841,1.782
		c-1.709,0-3.581-2.012-5.613-6.039c-2.957,3.366-6.052,5.049-9.285,5.049c-5.083,0-8.5-4.092-10.255-12.276
		c-0.416-1.913-0.624-4.091-0.624-6.534c0-6.534,1.316-14.321,3.95-23.364c0.693-2.376,1.871-3.564,3.534-3.564
		c1.109,0,2.079,0.529,2.91,1.584c0.832,1.057,1.248,2.376,1.248,3.96c0,0.792-0.116,1.584-0.347,2.376
		c-2.217,7.657-3.326,13.993-3.326,19.008c0,1.254,0.092,2.311,0.277,3.168c0.646,3.037,1.732,4.554,3.257,4.554
		c1.755,0,3.648-1.748,5.682-5.247c-0.093-1.122-0.139-2.31-0.139-3.564c0-4.884,0.993-12.111,2.979-21.681
		c0.555-2.706,1.778-4.059,3.673-4.059c1.154,0,2.136,0.512,2.945,1.535c0.808,1.024,1.212,2.36,1.212,4.009
		c0,0.594-0.069,1.222-0.208,1.881c-1.801,8.383-2.702,14.29-2.702,17.721c0,4.95,1.108,8.68,3.326,11.187
		C98.094,78.287,98.604,79.74,98.604,81.455z"/>
	<path stroke="#FFFFFF" d="M122.012,49.28c0,1.584-0.416,2.955-1.247,4.108c-0.831,1.155-1.802,1.732-2.91,1.732
		c-1.156,0-2.149-0.726-2.98-2.178c-1.155-2.045-2.355-3.069-3.603-3.069c-2.079,0-3.788,2.277-5.127,6.831
		c-1.063,3.63-1.594,7.162-1.594,10.593c0,4.95,0.993,7.954,2.979,9.009c0.738,0.396,1.432,0.594,2.079,0.594
		c1.386,0,2.587-0.956,3.603-2.871c0.832-1.584,1.848-2.376,3.049-2.376c1.062,0,2.021,0.579,2.876,1.732
		c0.854,1.155,1.282,2.492,1.282,4.009c0,1.188-0.301,2.344-0.9,3.465c-2.772,5.082-6.006,7.623-9.702,7.623
		c-3.927,0-7.206-2.376-9.839-7.128c-2.449-4.487-3.672-9.603-3.672-15.345c0-5.609,1.154-11.187,3.465-16.731
		c2.956-7.128,6.652-10.692,11.086-10.692c2.078,0,4.365,1.024,6.86,3.069C120.58,43.968,122.012,46.508,122.012,49.28z"/>
	<path stroke="#FFFFFF" d="M152.264,57.497c0.322,9.835-0.439,18.711-2.287,26.631c-0.554,2.508-1.756,3.762-3.603,3.762
		c-1.108,0-2.067-0.529-2.876-1.584s-1.213-2.31-1.213-3.762c0-0.659,0.07-1.485,0.209-2.475c1.339-7.193,1.893-14.85,1.662-22.968
		c-0.093-4.817-1.363-7.227-3.811-7.227c-2.264,0-5.429,5.643-9.492,16.929v12.969c0,1.717-0.371,3.086-1.109,4.109
		c-0.739,1.024-1.709,1.534-2.91,1.534c-1.155,0-2.103-0.527-2.841-1.584c-0.739-1.055-1.108-2.408-1.108-4.059v-57.42
		c0-2.111,0.542-3.992,1.628-5.643c1.085-1.649,2.344-2.475,3.776-2.475c1.709,0,2.564,1.386,2.564,4.158v30.591
		c3.556-6.401,7.021-9.603,10.393-9.603c3.002,0,5.613,2.014,7.83,6.039C151.108,49.116,152.171,53.141,152.264,57.497z"/>
</g>
</svg>
