<?xml version="1.0" encoding="utf-8"?>
<!-- Generator: Adobe Illustrator 14.0.0, SVG Export Plug-In . SVG Version: 6.00 Build 43363)  -->
<!DOCTYPE svg PUBLIC "-//W3C//DTD SVG 1.1//EN" "http://www.w3.org/Graphics/SVG/1.1/DTD/svg11.dtd" [
	<!ENTITY ns_extend "http://ns.adobe.com/Extensibility/1.0/">
	<!ENTITY ns_ai "http://ns.adobe.com/AdobeIllustrator/10.0/">
	<!ENTITY ns_graphs "http://ns.adobe.com/Graphs/1.0/">
	<!ENTITY ns_vars "http://ns.adobe.com/Variables/1.0/">
	<!ENTITY ns_imrep "http://ns.adobe.com/ImageReplacement/1.0/">
	<!ENTITY ns_sfw "http://ns.adobe.com/SaveForWeb/1.0/">
	<!ENTITY ns_custom "http://ns.adobe.com/GenericCustomNamespace/1.0/">
	<!ENTITY ns_adobe_xpath "http://ns.adobe.com/XPath/1.0/">
]>
<svg version="1.1" id="Layer_1" xmlns:x="&ns_extend;" xmlns:i="&ns_ai;" xmlns:graph="&ns_graphs;"
	 xmlns="http://www.w3.org/2000/svg" xmlns:xlink="http://www.w3.org/1999/xlink" x="0px" y="0px" width="800px" height="151.513px"
	 viewBox="0 0 800 151.513" enable-background="new 0 0 800 151.513" xml:space="preserve">
<metadata>
	<sfw  xmlns="&ns_sfw;">
		<slices></slices>
		<sliceSourceBounds  y="448.487" x="0" width="800" height="151.513" bottomLeftOrigin="true"></sliceSourceBounds>
	</sfw>
</metadata>
<radialGradient id="SVGID_1_" cx="400" cy="150.7568" r="79.4296" gradientTransform="matrix(-4.371139e-08 -1 6 -2.622683e-07 -504.541 550.7569)" gradientUnits="userSpaceOnUse">
	<stop  offset="0" style="stop-color:#FFFFFF"/>
	<stop  offset="1" style="stop-color:#FFFFFF;stop-opacity:0"/>
</radialGradient>
<path fill="url(#SVGID_1_)" d="M800,114c0,0-234,36.667-400,37.5S0,114,0,114V0h800V114z"/>
<g>
	<path id="path243" fill="#201C1D" d="M154.769,54.665c-3.688,0-7.804,1.42-8.666,6.097c-0.093,0.497,0.237,0.733,0.554,0.806
		l3.779,0.454c0.35-0.018,0.587-0.397,0.654-0.756c0.323-1.609,1.647-2.368,3.125-2.368c0.798,0,1.693,0.273,2.166,1.008
		c0.541,0.817,0.504,1.929,0.504,2.872v0.554c-2.246,0.259-5.203,0.414-7.307,1.36c-2.426,1.079-4.131,3.273-4.131,6.5
		c0,4.135,2.533,6.197,5.795,6.197c2.754,0,4.275-0.647,6.398-2.872c0.705,1.049,0.93,1.524,2.217,2.62
		c0.287,0.154,0.65,0.139,0.906-0.101v0.05c0.774-0.705,2.182-1.99,2.973-2.67c0.316-0.265,0.247-0.699,0-1.059
		c-0.707-1.003-1.461-1.812-1.461-3.678v-6.197c0-2.625,0.223-5.045-1.662-6.853C159.129,55.167,156.651,54.665,154.769,54.665z
		 M205.557,54.665c-3.689,0-7.803,1.42-8.666,6.097c-0.092,0.497,0.234,0.733,0.554,0.806l3.778,0.454
		c0.35-0.018,0.59-0.397,0.655-0.756c0.325-1.609,1.647-2.368,3.124-2.368c0.8,0,1.694,0.273,2.166,1.008
		c0.541,0.817,0.454,1.929,0.454,2.872v0.554c-2.245,0.259-5.151,0.414-7.255,1.36c-2.429,1.079-4.133,3.273-4.133,6.5
		c0,4.135,2.535,6.197,5.795,6.197c2.75,0,4.273-0.647,6.398-2.872c0.703,1.049,0.931,1.524,2.217,2.62
		c0.29,0.154,0.65,0.139,0.907-0.101v0.05c0.774-0.705,2.181-1.99,2.973-2.67c0.315-0.265,0.243-0.699,0-1.059
		c-0.708-1.003-1.461-1.812-1.461-3.678v-6.197c0-2.625,0.17-5.045-1.713-6.853C209.864,55.167,207.439,54.665,205.557,54.665z
		 M176.988,54.866c-2.383,0-4.15,1.203-5.089,3.779h-0.051v-2.671c-0.024-0.371-0.328-0.686-0.705-0.705h-3.628
		c-0.41,0-0.756,0.348-0.756,0.756v20.406c0.031,0.361,0.336,0.68,0.705,0.705h3.881c0.414,0,0.754-0.345,0.755-0.756V65.548
		c0-2.361-0.114-5.593,2.671-5.593c2.749,0,2.367,3.319,2.367,5.593v10.833c0,0.386,0.315,0.73,0.706,0.756h3.88
		c0.412,0,0.756-0.345,0.756-0.756V65.548c0-1.158-0.048-2.847,0.352-3.879c0.398-1.033,1.377-1.714,2.318-1.714
		c1.122,0,1.979,0.391,2.268,1.764c0.18,0.815,0.101,2.972,0.101,3.829v10.833c0,0.386,0.315,0.73,0.705,0.756h3.88
		c0.412,0,0.756-0.345,0.756-0.756V63.482c0-2.191,0.221-4.68-1.008-6.398c-1.085-1.545-2.859-2.218-4.484-2.218
		c-2.279,0-4.4,1.203-5.341,3.779C180.941,56.069,179.411,54.866,176.988,54.866z M242.941,54.866
		c-5.605,0-8.717,4.929-8.717,11.286c0,6.314,3.077,11.388,8.717,11.388c5.426,0,8.867-4.957,8.867-11.186
		C251.809,59.914,248.691,54.866,242.941,54.866z M265.061,54.866c-2.678,0-4.209,1.339-5.291,4.132h-0.05v-3.124
		c-0.069-0.314-0.366-0.535-0.706-0.554h-3.576c-0.391,0-0.722,0.283-0.756,0.654v20.406c0,0.386,0.317,0.73,0.705,0.756h3.829
		c0.413,0,0.749-0.344,0.756-0.756V65.397c0-1.377,0.116-2.633,0.655-3.88c0.434-0.989,1.275-1.612,2.217-1.612
		c2.674,0,2.418,3.258,2.418,5.492v11.084c0.038,0.347,0.352,0.633,0.705,0.655h3.881c0.382,0,0.711-0.29,0.755-0.655V63.634
		c0-1.975,0.005-4.719-1.007-6.349C268.51,55.523,266.793,54.866,265.061,54.866L265.061,54.866z M218.505,55.22
		c-0.394,0-0.704,0.312-0.705,0.755v2.923c0.001,0.438,0.302,0.753,0.705,0.756h6.651l-7.608,11.235
		c-0.465,0.725-0.504,1.545-0.504,2.016v2.973c0,0.429,0.466,0.895,0.907,0.655c4.336-2.366,9.531-2.157,13.452-0.051
		c0.476,0.26,0.958-0.227,0.958-0.655v-3.123c-0.038-0.418-0.202-0.819-0.706-1.108c-2.225-1.28-4.809-1.673-7.255-1.612l6.6-9.674
		c0.611-0.869,0.953-1.394,0.957-1.814v-2.52c0-0.434-0.295-0.755-0.705-0.755H218.505z M242.941,59.049
		c1.229,0,2.135,0.548,2.57,1.965c0.504,1.634,0.554,3.672,0.554,5.391c0,2.619-0.123,6.953-3.124,6.953
		c-3.035,0-3.023-5.365-3.023-7.859C239.918,63.01,240.086,59.049,242.941,59.049z M156.834,66.506v0.856
		c0,1.549,0.057,2.853-0.705,4.232c-0.615,1.121-1.584,1.813-2.67,1.813c-1.484,0-2.369-1.203-2.369-2.922
		C151.09,67.098,154.034,66.506,156.834,66.506z M207.622,66.506v0.856c0,1.549,0.057,2.853-0.706,4.232
		c-0.615,1.121-1.578,1.813-2.67,1.813c-1.484,0-2.368-1.203-2.368-2.922C201.878,67.098,204.819,66.506,207.622,66.506z"/>
	<path id="path257" d="M232.764,77.792v2.922h1.965v-2.922H232.764z M175.779,78.296v20.809h1.813V97.24
		c0.388,0.738,0.827,1.291,1.36,1.662c0.532,0.372,1.143,0.555,1.814,0.555c1.332,0,2.48-0.68,3.477-2.065
		c0.994-1.386,1.511-3.394,1.511-5.945c0-1.673-0.215-3.059-0.655-4.232c-0.439-1.172-1.027-2.044-1.764-2.62
		c-0.734-0.576-1.57-0.907-2.469-0.907c-0.641,0-1.24,0.169-1.764,0.504s-0.947,0.882-1.359,1.562v-7.456H175.779z M194.422,83.183
		c-1.367,0-2.453,0.405-3.225,1.209c-0.773,0.804-1.16,1.84-1.16,3.124c0,0.746,0.169,1.378,0.454,1.965
		c0.285,0.588,0.696,1.062,1.209,1.411c0.517,0.35,1.545,0.81,3.073,1.31c1.059,0.341,1.689,0.63,1.965,0.857
		c0.4,0.33,0.605,0.764,0.605,1.36c0,0.689-0.24,1.266-0.705,1.713c-0.467,0.45-1.115,0.655-1.966,0.655s-1.552-0.24-2.065-0.756
		c-0.514-0.517-0.791-1.304-0.907-2.368l-1.965,0.402c0.444,3.233,2.056,4.839,4.837,4.837c1.483,0,2.619-0.42,3.477-1.31
		c0.858-0.89,1.311-2.088,1.311-3.527c0-0.777-0.138-1.451-0.404-2.015c-0.266-0.564-0.631-0.982-1.107-1.311
		c-0.479-0.325-1.547-0.76-3.175-1.31c-1.184-0.414-1.876-0.718-2.116-0.907c-0.401-0.319-0.604-0.754-0.604-1.31
		c0-0.567,0.188-1.049,0.604-1.411c0.418-0.362,1.062-0.554,1.915-0.554c1.502,0,2.343,0.824,2.519,2.469l1.915-0.303
		c-0.132-1.039-0.358-1.861-0.705-2.418c-0.347-0.558-0.86-1.028-1.512-1.36C196.033,83.306,195.284,83.183,194.422,83.183z
		 M206.463,83.183c-1.574,0-2.903,0.648-3.93,2.016c-1.027,1.366-1.512,3.348-1.512,5.945c0,2.504,0.494,4.466,1.512,5.794
		s2.336,1.965,3.98,1.965c1.307,0,2.392-0.392,3.275-1.209c0.885-0.817,1.527-2.02,1.863-3.628l-2.016-0.353
		c-0.578,2.06-1.646,3.07-3.123,3.074c-0.941,0-1.71-0.4-2.368-1.26c-0.658-0.861-1.03-2.139-1.108-3.829h8.666v-0.706
		c0-2.543-0.507-4.451-1.512-5.794C209.186,83.855,207.965,83.183,206.463,83.183z M218.404,83.183c-0.471,0-0.882,0.159-1.26,0.504
		s-0.807,1.057-1.26,2.116v-2.317h-1.764V98.55h1.965V90.69c0-1.097,0.104-2.151,0.354-3.124c0.142-0.558,0.409-0.998,0.756-1.311
		c0.346-0.312,0.741-0.453,1.158-0.453c0.463,0,0.923,0.186,1.411,0.555l0.655-2.368C219.734,83.441,219.062,83.183,218.404,83.183z
		 M242.488,83.183c-1.556,0-2.838,0.655-3.83,1.965c-0.988,1.311-1.511,3.277-1.511,5.896c0,2.598,0.528,4.566,1.511,5.895
		c0.983,1.328,2.211,1.965,3.729,1.965c1.254,0,2.331-0.466,3.225-1.41c0.895-0.945,1.439-2.335,1.663-4.132l-1.915-0.302
		c-0.141,1.284-0.477,2.209-1.007,2.821c-0.53,0.609-1.169,0.907-1.915,0.907c-0.951,0-1.76-0.444-2.367-1.361
		c-0.608-0.916-0.908-2.384-0.908-4.434c0-1.986,0.322-3.42,0.958-4.333s1.448-1.41,2.419-1.41c0.648,0,1.201,0.251,1.662,0.755
		c0.465,0.504,0.771,1.303,0.957,2.318l1.915-0.403c-0.229-1.587-0.74-2.784-1.562-3.577
		C244.686,83.547,243.688,83.183,242.488,83.183z M253.725,83.183c-1.575,0-2.904,0.648-3.931,2.016
		c-1.026,1.366-1.512,3.348-1.512,5.945c0,2.504,0.495,4.466,1.512,5.794c1.019,1.328,2.337,1.965,3.98,1.965
		c1.304,0,2.39-0.392,3.274-1.209c0.884-0.817,1.526-2.02,1.865-3.628l-2.016-0.353c-0.58,2.06-1.6,3.07-3.074,3.074
		c-0.941,0-1.76-0.4-2.418-1.26c-0.658-0.861-1.028-2.139-1.108-3.829h8.666v-0.706c0-2.543-0.507-4.451-1.512-5.794
		C256.449,83.855,255.227,83.183,253.725,83.183z M265.363,83.183c-1.37,0-2.453,0.405-3.225,1.209
		c-0.775,0.804-1.159,1.84-1.159,3.124c0,0.746,0.118,1.378,0.403,1.965c0.283,0.588,0.692,1.062,1.209,1.411
		c0.514,0.35,1.545,0.81,3.073,1.31c1.056,0.341,1.739,0.63,2.016,0.857c0.399,0.33,0.604,0.764,0.604,1.36
		c0,0.689-0.239,1.266-0.705,1.713c-0.465,0.45-1.115,0.655-1.965,0.655c-0.854,0-1.553-0.24-2.066-0.756
		c-0.514-0.517-0.844-1.304-0.957-2.368l-1.965,0.402c0.443,3.233,2.053,4.839,4.836,4.837c1.485,0,2.67-0.42,3.527-1.31
		c0.858-0.89,1.311-2.088,1.311-3.527c0-0.777-0.137-1.451-0.403-2.015c-0.267-0.564-0.681-0.982-1.159-1.311
		c-0.477-0.325-1.496-0.76-3.123-1.31c-1.185-0.414-1.928-0.718-2.167-0.907c-0.401-0.319-0.604-0.754-0.604-1.31
		c0-0.567,0.237-1.049,0.654-1.411c0.418-0.362,1.064-0.554,1.915-0.554c1.502,0,2.343,0.824,2.52,2.469l1.915-0.303
		c-0.135-1.039-0.357-1.861-0.706-2.418c-0.347-0.558-0.86-1.028-1.512-1.36C266.979,83.306,266.225,83.183,265.363,83.183z
		 M220.42,83.485l4.383,15.064h1.865l4.383-15.064h-2.016l-2.569,9.22c-0.312,1.115-0.586,2.077-0.756,2.872
		c-0.214-1.001-0.421-2.053-0.705-3.073l-2.52-9.019H220.42z M232.764,83.485V98.55h1.965V83.485H232.764z M168.171,83.687
		c-1.56,0-2.813,0.699-3.829,2.065c-1.018,1.367-1.562,3.348-1.562,5.946c0,2.503,0.504,4.416,1.512,5.743s2.353,2.016,3.98,2.016
		c1.293,0,2.35-0.442,3.225-1.26c0.874-0.817,1.479-2.02,1.814-3.628l-1.965-0.302c-0.573,2.06-1.613,3.07-3.074,3.073
		c-0.934,0-1.717-0.399-2.368-1.26c-0.651-0.861-1.03-2.138-1.108-3.829h8.565l0.05-0.705c0-2.543-0.516-4.502-1.511-5.845
		S169.657,83.687,168.171,83.687z M146.052,84.039l3.526,15.065h2.066l2.318-11.589l0.402,2.57l1.864,9.019h2.016l3.577-15.065
		h-1.864l-1.965,8.717l-0.655,2.922l-0.604-2.922l-1.713-8.717h-2.016l-1.813,8.817l-0.605,3.124l-0.705-3.225l-1.813-8.717H146.052
		z M271.459,84.19v0.705h1.915v5.039h0.756v-5.039h1.915V84.19H271.459z M276.801,84.19v5.744h0.705v-4.888l1.662,4.888h0.705
		l1.663-4.787v4.787h0.756V84.19h-1.058l-1.361,4.031c-0.137,0.402-0.234,0.694-0.302,0.906l-0.302-0.856l-1.361-4.081H276.801z
		 M206.412,85.249c0.98,0,1.786,0.474,2.419,1.41c0.435,0.643,0.718,1.619,0.806,2.923h-6.499c0.062-1.323,0.435-2.344,1.058-3.124
		C204.819,85.677,205.534,85.249,206.412,85.249z M253.674,85.249c0.977,0,1.785,0.474,2.418,1.41
		c0.435,0.643,0.719,1.619,0.807,2.923h-6.5c0.062-1.323,0.435-2.344,1.059-3.124C252.077,85.677,252.793,85.249,253.674,85.249z
		 M168.171,85.803c0.968,0,1.743,0.474,2.368,1.411c0.431,0.643,0.717,1.618,0.807,2.922h-6.399
		c0.062-1.322,0.389-2.394,1.007-3.174C166.569,86.181,167.299,85.803,168.171,85.803z M180.666,85.803
		c0.874,0,1.617,0.485,2.217,1.411c0.6,0.927,0.857,2.355,0.857,4.333c0,1.927-0.285,3.363-0.908,4.333
		c-0.622,0.97-1.363,1.461-2.166,1.461c-0.59,0-1.127-0.198-1.612-0.604c-0.486-0.406-0.844-0.989-1.108-1.764
		s-0.402-1.968-0.402-3.526c0-1.836,0.326-3.213,0.957-4.183S179.863,85.803,180.666,85.803z"/>
	<path id="polygon287" fill="#F7A80D" d="M117.812,69.831l-7.507,3.225l6.953,2.973l8.061-2.973L117.812,69.831z M106.525,73.861
		l-0.252,14.511l10.984,4.837V78.145L106.525,73.861z M129.098,73.861l-9.926,3.779v14.208l9.926-4.03V73.861z"/>
	<path id="polygon311" fill="#F7A80D" d="M140.938,28.717l-7.557,3.225l7.003,2.973l8.062-2.973L140.938,28.717z M130.458,33v14.511
		l9.372,2.721l0.302-13.201L130.458,33z M151.418,33.806l-8.867,3.779v14.259l8.867-4.031V33.806z"/>
	<path id="use3387" fill="#F7A80D" d="M105.441,49.14l-7.507,3.225l6.953,2.974l8.062-2.974L105.441,49.14z M94.156,53.171
		l-0.252,14.511l10.983,4.837V57.453L94.156,53.171z M116.729,53.171l-9.926,3.778v14.209l9.926-4.031V53.171z"/>
	<path id="use3389" fill="#F7A80D" d="M129.627,48.604l-7.508,3.225l6.953,2.973l8.062-2.973L129.627,48.604z M118.34,52.634
		l-0.252,14.511l10.984,4.837V56.917L118.34,52.634z M140.912,52.634l-9.926,3.779v14.208l9.926-4.03V52.634z"/>
	<path id="use3391" fill="#F7A80D" d="M164.561,28.717l-7.508,3.225l6.953,2.973l8.062-2.973L164.561,28.717z M153.274,32.748
		l-0.252,14.511l10.983,4.837V37.03L153.274,32.748z M175.847,32.748l-9.926,3.778v14.209l9.926-4.031V32.748z"/>
</g>
<g>
	<path d="M329.454,93.227c-3.187-2.506-6.586-4.908-8.909-8.295c-4.889-5.967-8.652-12.875-11.226-20.137
		c-1.556-4.723-2.088-9.785-4.095-14.326c-2.097-3.294,0.361-6.897,3.973-7.946c1.607-0.309,4.434-1.826,1.021-0.74
		c-3.061,2.244-3.355-2.039-0.218-2.311c2.142-0.283,2.93-2.037,2.196-3.613c-2.299-1.5,5.574-3.146,1.611-5.383
		c-4.123-4.451,5.771-5.309,3.33-0.254c-0.584,3.889,6.917-0.713,5.176,3.777c1.77,2.156,6.625,0.492,6.503,3.516
		c2.577,0.178,3.462,2.344,5.878,2.51c2.51,1.135,7.053,2.023,7.905,4.85c-2.487,1.969-8.245-4.066-8.522,1.383
		c0.752,8.05,0.561,16.345,3.505,24.013c1.394,4.641,4.771,8.295,7.821,11.912c2.919,3.539,6.873,6.035,10.902,8.133
		c3.535,1.668,7.346,2.771,11.199,3.467c1.561-1.195,4.32-5.639,6.756-3.766c0.117,2.107-4.835,4.402-0.232,4.168
		c2.705-0.816,4.58,2.09,6.807-0.531c2.051,2.43,8.527-1.551,7.066,3.414c-1.975,1.273-4.854,0.504-6.829,2.258
		c-3.259-1.629-5.854,1.455-9.463,1.066c-4.007,0.717-8.085,1.006-12.146,1.012c-6.666-0.525-13.473-0.748-19.813-3.068
		C336.078,97.297,332.594,95.262,329.454,93.227L329.454,93.227z M335.082,95.666c3.488,1.508,6.898,3.098,10.723,3.578
		c6.064,0.842,12.328,2.143,18.414,0.959c-2.755-1.246-5.604,0.482-8.348-0.891c-3.29,0.707-6.822-0.182-10.17-0.619
		c-3.804-1.693-7.91-2.859-11.473-5.061c-4.455-1.625,2.301,2.086,3.504,2.389c2.783,1.578-3.061-0.811-3.885-1.467
		c-2.331-1.309-2.629-1.035-0.23,0.293C334.1,95.129,334.576,95.426,335.082,95.666L335.082,95.666z M328.445,90.977
		c3.381,1.252-0.015-2.377-1.562-2.166c-0.686-1.191-2.621-1.943-1.256-2.582c-2.455,0.854-2.573-3.242-3.727-2.656
		c-2.599-0.82-1.012-3.727-4.107-5.514c-0.283-1.881-3.075-3.51-3.965-6.348c-0.393-1.453-3.156-5.621-1.459-1.742
		c1.443,3.736,3.984,6.938,6.101,10.133c1.642,3.043,3.582,6.225,6.571,8.123C326.05,89.191,327.021,90.674,328.445,90.977
		L328.445,90.977z M318.71,80.285C318.826,79.773,319.327,81.389,318.71,80.285L318.71,80.285z M332.495,92.477
		C333.242,92.143,331.418,92.055,332.495,92.477L332.495,92.477z M334.328,93.146C334.139,92.223,333.49,93.664,334.328,93.146
		L334.328,93.146z M336.626,94.104C337.719,93.062,334.939,93.447,336.626,94.104L336.626,94.104z M340.562,96.297
		C341.227,95.316,338.436,95.928,340.562,96.297L340.562,96.297z M333.004,91.029C334.7,89.93,330.809,91.014,333.004,91.029
		L333.004,91.029z M334.726,91.887C334.677,91.307,334.112,92.146,334.726,91.887L334.726,91.887z M343.336,97.262
		c1.385,0.873,8.084,1.914,3.889,0.359C346.521,97.768,339.446,95.617,343.336,97.262L343.336,97.262z M329.668,86.615
		C329.533,86.033,327.518,85.971,329.668,86.615L329.668,86.615z M333.674,88.953C334.72,88.225,331.51,88.391,333.674,88.953
		L333.674,88.953z M337.047,91.02C338.545,90.457,334.619,90.453,337.047,91.02L337.047,91.02z M328.035,84.84
		c1.624,1.246,6.552,0.16,2.486-0.744c-1.848-0.984-6.016-1.66-3.174,0.596L328.035,84.84L328.035,84.84L328.035,84.84z
		 M339.332,91.734C340.008,90.58,336.493,91.074,339.332,91.734L339.332,91.734z M335.898,89.006c3.971,1.123-3.34-2.514-0.98-0.414
		l0.523,0.236L335.898,89.006L335.898,89.006L335.898,89.006z M342.781,92.982C346.541,93.02,339.383,92.463,342.781,92.982
		L342.781,92.982L342.781,92.982z M326.588,82.664C326.441,81.963,325.661,82.721,326.588,82.664L326.588,82.664z M349.143,96.551
		C349.242,95.287,347.915,97.496,349.143,96.551L349.143,96.551z M333.008,86.594C332.779,85.926,331.832,86.564,333.008,86.594
		L333.008,86.594z M326.944,82.223C329.104,82.094,323.988,81.273,326.944,82.223L326.944,82.223z M319.763,77.582
		C319.494,76.545,317.414,75.721,319.763,77.582L319.763,77.582z M338.617,89.547C338.223,89.096,338.432,89.645,338.617,89.547
		L338.617,89.547z M350.352,96.75C350.314,96.059,349.713,97.01,350.352,96.75L350.352,96.75z M337.578,88.475
		C337.791,87.586,335.737,88.205,337.578,88.475L337.578,88.475z M328.836,82.934C330.443,82.762,326.262,81.848,328.836,82.934
		L328.836,82.934z M343.625,92.123C346.129,91.131,341.184,91.641,343.625,92.123L343.625,92.123z M335.934,86.902
		c2.885,0.371-3.435-1.965-0.635-0.209L335.934,86.902L335.934,86.902L335.934,86.902z M345.96,93.066
		c2.694-1.609,1.806,3.773,4.571,0.455c2.727-1.99-2.355,2.461,1.004,0.355c2.432-1.627,6.021,0.771,8.29,1.551
		c1.63-0.078,3.216,1.412,4.89,0.504c3.218-0.867-6.296-1.285-3.803-2.822c-2.945,0.857-5.12-1.021-6.568-2.908
		c-3.304-0.764-7.123-2.451-8.773-5.377c-0.672-1.096,0.971,0.156-0.58-1.639c-1.99-1.77-2.983-3.781-4.319-5.932
		c-1.597-0.852-1.784-3.359-1.945-0.084c0.015-2.066-1.927-3.459-2.401-2.881c-0.008-1.99,2.077-0.992,0.617-2.463
		c-0.313-2.064-1.348-4.213-1.658-6.543c-0.482-1.123-0.068-3.525-1.648-0.986c-0.576,2.688-0.191-3.299,0.704-1.326
		c1.175-2.012-0.423-1.775-0.487-1.498c0.766-1.699,0.485-4.109-0.201-3.189c0.408-1.803,0.646-6.629-0.608-5.773
		c0.761-1.885,1.442-8.618-1.862-6.05c-1.337,0.02-3.655,0.486-4.75,1.031c3.435,1.892-0.346,0.684-1.746,0.381
		c-0.182,1.753-1.566,0.995-3.297,1.013c2.766,0.342-1.346,2.826-2.93,1.861c-2.061,0.982,1.775,3.439,0.041,4.201
		c0.214,1.143-3.154-0.414-2.892,2.232c-1.998-0.844-0.274,3.135,0.727,1.789c3.399,0.922,2.394,3.018,2.479,5.012
		c-0.555,1.16-2.736-2.73-0.486-2.551c-1.775-2.883-1.963-1.041-3.438,0.299c-0.342,0.096,3.76,1.904,1.186,2.799
		c2.266,0.35,2.332,2.332,2.793,3.588c1.361,1.42,1.082-1.566,2.712,0.141c-1.032-1.521-5.462-4.281-1.896-3.396
		c-0.02-1.529-0.646-2.762,0.449-2.732c1.084-1.961-1.135,4.834,1.306,2.342c0.675-0.293,0.844-1.961,2.058,0.16
		c1.764,1.734,0.637,2.99-1.851,1.4c0.444,1.512,3.327,2.049,2.784,4.41c0.574,2.078,1.379,1.312,2.079,1.193
		c0.55,2.016,0.862,0.533,0.888-0.428c2.515,0.539,1.925,2.025,2.713,3.066c1.732,0.779-2.48-5.303,0.494-1.83
		c3.131,2.826,1.176,4.006-1.635,3.553c1.778-0.143,2.351,2.404,4.575,2.314c2.028,0.967,3.402,4.672-0.095,3.129
		c-1.211-1.094-5.504-2.443-1.997-0.363c3.235,1.5,5.809,2.395,8.931,4.279c2.232,1.594,3.198,3.42,4.045,3.781
		c-1.878,0.896-5.658-0.717-2.851-1.209c-1.753-0.318-3.722-1.205-2.046,0.977c1.428,1.193,5.055,1.064,5.707,1.199
		c-0.552,1.215-1.498,1.311,0.021,1.406C343.564,92.41,345.805,92.553,345.96,93.066L345.96,93.066z M342.494,83.277
		c-1.033-1.08-1.3-3.1-0.184-1.342C342.883,82.166,344.141,85.236,342.494,83.277L342.494,83.277L342.494,83.277z M353.783,90.449
		C354.427,90.406,353.803,90.938,353.783,90.449L353.783,90.449z M340.865,80.633C340.824,79,341.237,81.891,340.865,80.633
		L340.865,80.633z M339.743,79.123C338.444,76.617,341.378,79.832,339.743,79.123L339.743,79.123z M326.144,69.738
		C326.906,69.535,326.52,71.041,326.144,69.738L326.144,69.738z M336.968,75.604C337.436,73.844,337.518,77.078,336.968,75.604
		L336.968,75.604z M329.321,70.285C328.783,69.316,330.448,71.197,329.321,70.285L329.321,70.285z M335.882,72.389
		c-1.229-2.752,0.872-1.504,0.273,0.451L335.882,72.389L335.882,72.389L335.882,72.389z M324.566,64.844
		c-0.549-0.904-1.457-3.555-1.164-4.365c0.263,1.32,2.801,5.672,1.243,1.807c-1.72-3.244,2.058,1.049,2.446,1.859
		c0.182,0.803-1.062-0.219-0.22,1.668C325.336,63.664,325.967,66.998,324.566,64.844L324.566,64.844z M321.07,62.434
		C321.215,60.332,321.87,63.873,321.07,62.434L321.07,62.434z M322.644,62.975C323.394,61.389,323.915,65.186,322.644,62.975
		L322.644,62.975z M318.859,60.049c-1.302-1.297-2.244-2.488,0.061-0.805c0.888,0.035-1.974-2.711,0.215-0.871
		C321.434,58.791,320.27,62.145,318.859,60.049L318.859,60.049z M320.846,59.996C321.604,59.246,321.248,60.734,320.846,59.996
		L320.846,59.996z M322.07,60.389C320.922,58.24,323.462,61.289,322.07,60.389L322.07,60.389z M319.639,58.064
		c-3.784-3.369,4.755,1.762,0.617,0.623L319.639,58.064L319.639,58.064L319.639,58.064z M330.484,64.363
		c-1.639-0.98-0.437-6.91,0.123-2.855c1.592-0.516-0.088,2.098,1.099,2.07C331.521,65.225,330.988,65.818,330.484,64.363
		L330.484,64.363z M334.494,66.736C334.656,64.947,334.833,67.959,334.494,66.736L334.494,66.736z M333.799,66.047
		C333.978,65.283,333.816,66.945,333.799,66.047L333.799,66.047z M320.38,56.957c-2.432-3.354,7.067,3.395,1.558,0.852
		C321.363,57.658,320.67,57.604,320.38,56.957L320.38,56.957z M328.105,61.053C327.875,58.227,328.618,61.521,328.105,61.053
		L328.105,61.053L328.105,61.053z M333.969,64.814C334.422,63.207,334.004,65.881,333.969,64.814L333.969,64.814z M320.754,55.678
		c1.445-0.311,5.988,2.537,1.816,0.812C322.107,55.977,321.117,56.211,320.754,55.678L320.754,55.678z M333.163,61.861
		c0.155-2.889,0.864-1.723,0.007,0.416L333.163,61.861L333.163,61.861L333.163,61.861z M321.829,54.672
		c0.59-0.863-1.564-3.904,0.31-1.09c0.811,0.643,2.345,1.076,0.99,1.348C325.26,56.809,322.609,55.439,321.829,54.672
		L321.829,54.672z M332.551,60.961C332.957,57.67,332.91,62.887,332.551,60.961L332.551,60.961z M320.599,51.633
		C321.049,51.439,320.838,52.232,320.599,51.633L320.599,51.633z M323.396,53.297C324.115,51.787,324.723,54.982,323.396,53.297
		L323.396,53.297z M331.283,57.686C331.276,57.105,331.433,58.527,331.283,57.686L331.283,57.686z M330.826,56.674
		C329.732,53.973,331.845,58.104,330.826,56.674L330.826,56.674z M330.154,54.902C329.972,53.787,330.779,56.303,330.154,54.902
		L330.154,54.902L330.154,54.902z M331.248,53.123c-0.751-1.322,0.949-5.833,1.141-3.035c-0.793,2.18-0.229,3.396,0.321,0.475
		C333.732,48.263,332.49,55.104,331.248,53.123L331.248,53.123L331.248,53.123z M332.373,46.417
		C332.7,46.017,332.445,46.901,332.373,46.417L332.373,46.417z M330.495,83.414C330.05,83.025,330.553,83.66,330.495,83.414
		L330.495,83.414z M334.363,85.369c2.15,0.555,2.141-0.334,0.195-0.6c-1.045-0.971-4.346-2.004-1.391-0.119
		C333.363,85.146,333.98,85.133,334.363,85.369L334.363,85.369z M326.725,80.297c1.184,0.885,4.465,2.504,1.688,0.336
		c0.937-1.088-1.791-1.666-0.887-2.395c-2.302-1.408-1.816-1.283-0.202-1.238c-2.766-1.236,0.398-1.143,0.25-1.777
		c-1.066-0.209-5.299-1.881-2.809,0.137c-2.531-1.287-0.604,0.48-1.368,0.295c-2.588-0.705,2.304,1.971-0.41,1.307
		c1.483,1.174,3.995,3.012,0.626,1.242C323.172,78.842,326.023,79.811,326.725,80.297L326.725,80.297z M330.77,82.621
		C335.688,84.203,328.357,80.682,330.77,82.621L330.77,82.621z M351.478,95.166C351.541,94.188,350.807,95.998,351.478,95.166
		L351.478,95.166z M353.606,96.062c1.135-1.102,0.047,1.75,1.88-0.271c0.02-1.447-0.055-2.301-2.106-0.543
		C352.812,95.562,352.561,96.895,353.606,96.062L353.606,96.062z M319.82,74.844C319.473,73.473,317.379,73.479,319.82,74.844
		L319.82,74.844z M322.092,76.332C321.248,74.934,319.08,75.064,322.092,76.332L322.092,76.332z M335.023,84.129
		c1.264,1.123,5.797,0.824,1.531,0.139C335.924,83.334,332.547,83.559,335.023,84.129L335.023,84.129z M352.797,95.107
		C354.738,93.477,350.914,95.834,352.797,95.107L352.797,95.107z M356.838,97.883C356.85,97.359,356,98.113,356.838,97.883
		L356.838,97.883z M356.844,97.15C358.996,94.871,354.761,97.285,356.844,97.15L356.844,97.15L356.844,97.15z M314.23,70.162
		c-1.834-2.615-1.139-3.791-2.908-5.928c-0.336-1.635-3.035-5.342-1.396-1.414C311.426,65.117,311.871,68.674,314.23,70.162
		L314.23,70.162z M356.168,96.426C360.129,93.869,354.545,95.312,356.168,96.426L356.168,96.426z M359.19,97.611
		C361.174,95.908,357.936,97.256,359.19,97.611L359.19,97.611z M319.146,71.951C319.714,71.107,317.682,71.842,319.146,71.951
		L319.146,71.951z M358.559,96.801c1.92-1.234-0.441-1.045-0.347,0.113L358.559,96.801L358.559,96.801L358.559,96.801z
		 M332.514,80.385C332.447,79.549,331.5,80.457,332.514,80.385L332.514,80.385z M334.123,81.311
		C333.611,80.277,333.337,81.475,334.123,81.311L334.123,81.311z M361.639,97.637c2.46-1.773-1.488-0.34-0.515,0.338L361.639,97.637
		L361.639,97.637L361.639,97.637z M360.697,97.184C362.701,95.506,358.582,97.926,360.697,97.184L360.697,97.184z M365.509,100.385
		C366.854,99.486,363.875,100.096,365.509,100.385L365.509,100.385z M320.38,71.342c1.802,0.404,7.204,4.438,4.019,0.279
		c-1.633-0.482-0.654-4.473-2.319-3.766c1.118,1.867,0.919,2.658-1.428,1.484c-2.946-1.439-1.655,0.713-1.079,1.307
		C318.786,70.824,320.611,71.328,320.38,71.342L320.38,71.342z M312.168,64.857c0.322-1.338-2.973-7.344-1.557-3.012
		C311.123,62.754,311.069,64.475,312.168,64.857L312.168,64.857z M327.242,74.15C326.312,73.375,327.197,74.039,327.242,74.15
		L327.242,74.15z M329.527,74.684C329.527,73.268,327.001,74.107,329.527,74.684L329.527,74.684z M349.336,87.168
		C348.959,86.203,347.843,87.148,349.336,87.168L349.336,87.168L349.336,87.168z M350.287,87.863
		C350.146,87.322,349.738,87.969,350.287,87.863L350.287,87.863z M358.139,92.811C358.894,92.252,357.196,92.736,358.139,92.811
		L358.139,92.811z M316.27,65.904C318.43,65.068,313.954,65.307,316.27,65.904L316.27,65.904z M347.593,85.637
		C347.567,84.238,346.215,85.984,347.593,85.637L347.593,85.637z M315.416,63.914C316.803,63.445,314.131,63.607,315.416,63.914
		L315.416,63.914z M319.441,65.865C319.419,65.406,319.018,66.041,319.441,65.865L319.441,65.865z M368.561,95.986
		c1.784-0.361,5.852,0.908,6.508-0.473c-2.167-0.053-7.495-1.531-7.747,0.35l0.474,0.076L368.561,95.986L368.561,95.986
		L368.561,95.986z M320.723,66.188C320.754,64.77,319.617,66.135,320.723,66.188L320.723,66.188z M310.137,58.844
		C309.654,56.143,308.307,58.434,310.137,58.844L310.137,58.844z M312.66,59.477C312.691,58.609,310.35,58.697,312.66,59.477
		L312.66,59.477z M314.102,60.188C313.686,59.85,313.777,60.611,314.102,60.188L314.102,60.188z M323.182,66.01
		C323.609,65.617,322.168,65.721,323.182,66.01L323.182,66.01z M313.143,58.588C312.896,56.549,310.217,58.283,313.143,58.588
		L313.143,58.588z M307.965,55.229C307.893,54.289,307.46,55.584,307.965,55.229L307.965,55.229z M308.736,54.648
		C308.61,53.531,308.074,54.789,308.736,54.648L308.736,54.648z M312.988,57.186c1.8-0.705-3.276-1.461-0.367-0.131L312.988,57.186
		L312.988,57.186z M369.927,92.357C371.078,91.301,368.465,92.031,369.927,92.357L369.927,92.357z M376.806,95.922
		C377.268,94.559,375.643,96.1,376.806,95.922L376.806,95.922z M313.424,54.957C313.614,53.637,311.997,55.221,313.424,54.957
		L313.424,54.957z M307.37,50.902c-0.325-1.863-0.28-5.136,2.829-4.03c-4.148,0.826,2.875,5.161,1.988,1.737
		c1.746,0.084,3.414-1.032,2.498,0.662c3.44-0.379,5.822-3.36,9.146-2.942c2.588-0.344,5.418-0.602,8.206-1.645
		c2.293-0.164,4.5-2.633,3.244-4.098c-3.125-0.264-6.4,0.127-9.855,0.814c-3.83,0.795-7.309,2.309-11.172,2.957
		c-3.768,0.508,0.756,1.395-0.323,1.594c-1.964,0.68,2.344,1.141-0.255,1.861c-1.604-0.307-3.275-0.857-2.589-2.551
		c-3.608,0.471-6.779,1.967-3.929,5.638L307.37,50.902L307.37,50.902L307.37,50.902z M316.066,46.476
		c0.844-3.115,4.529,2.563,1.384,0.414C317.076,46.606,316.456,46.378,316.066,46.476L316.066,46.476z M316.23,44.964
		C317.45,44.054,316.878,45.476,316.23,44.964L316.23,44.964z M317.779,44.989c0.111-1.434,3.55,0.76,0.566,0.516L317.779,44.989
		L317.779,44.989L317.779,44.989z M319.899,44.138C320.676,43.231,320.124,44.94,319.899,44.138L319.899,44.138z M320.443,43.774
		c1.289-1.549,7.301-0.99,2.9-0.152C322.164,42.733,321.262,44.146,320.443,43.774L320.443,43.774z M328.289,42.563
		C328.096,38.329,332.189,44.067,328.289,42.563L328.289,42.563z M330.516,42.552c0.814-2.133,3.161-0.857,0.379-0.43
		C330.954,42.351,330.811,43.224,330.516,42.552L330.516,42.552z M312.546,53.863C314.978,52.373,309.965,52.57,312.546,53.863
		L312.546,53.863L312.546,53.863z M314.346,54.361C315.198,53.455,312.49,53.994,314.346,54.361L314.346,54.361z M309.046,50.604
		C310.435,49.535,307.4,50.197,309.046,50.604L309.046,50.604z M380.865,95.533C380.906,94.293,379.803,96.09,380.865,95.533
		L380.865,95.533z M373.568,90.551C373.775,89.127,372.63,90.676,373.568,90.551L373.568,90.551z M382.872,96.014
		c1.942,0.008,5.888-0.605,1.661-0.604C383.868,95.514,380.667,95.492,382.872,96.014L382.872,96.014L382.872,96.014z
		 M315.928,53.486c1.572-0.105,2.459-1.732-0.307-1.641c-4.284-0.441,3.781,1.469-0.549,0.922
		C314.49,53.152,315.893,53.594,315.928,53.486L315.928,53.486z M317.312,54.189C317.146,53.18,316.824,54.725,317.312,54.189
		L317.312,54.189z M318.955,49.809C319.637,48.963,318.01,49.58,318.955,49.809L318.955,49.809z M313.723,41.065
		c2.809-0.953,6.646-2.025,7.973,0.471c-1.35-1.623-0.545-3.219,0.729-0.846c1.801,2.4,2.703-1.092,1.531-1.898
		c1.336,1.658,2.853,2.443,0.894,0.105c2.131-2.562-4.264,0.336-5.716,0.305C318.434,39.517,311.914,40.864,313.723,41.065
		L313.723,41.065z M315.369,37.917c1.601-1.207,5.537,0.719,3.011-1.201C318.132,36.497,312.85,38.173,315.369,37.917
		L315.369,37.917z M321.205,38.157c1.872,0.049-0.808-2.518,1.424-1.355c-0.365-1.195-2.599-1.422-3.691-1.898
		C318.32,35.999,320.194,38.173,321.205,38.157L321.205,38.157z M316.393,32.86C317.04,31.981,315.256,33.308,316.393,32.86
		L316.393,32.86z M318.777,33.431c3.02-0.4-0.77-1.299-0.609-0.031L318.777,33.431L318.777,33.431L318.777,33.431z M314.324,29.946
		c-2.127-2.773,3.998,0.467,1.838-2.439C314.344,26.062,312.598,29.138,314.324,29.946L314.324,29.946z M341.604,44.64
		c0.975-1.729-4.025-2.33-0.656-0.611C341.256,44.132,341.187,44.759,341.604,44.64L341.604,44.64z M341.604,44.64"/>
	<path d="M387.62,32.72c-0.348,1.375-0.563,3.684-0.646,6.924c0,0.635-0.286,0.955-0.86,0.955c-0.575,0-0.975-0.279-1.201-0.832
		c-0.616-1.498-1.199-2.543-1.755-3.139c-0.656-0.697-1.527-1.119-2.615-1.262c-1.169-0.186-4.082-0.277-8.738-0.277
		c-1.066,0-1.766,0.113-2.092,0.34c-0.205,0.143-0.309,0.451-0.309,0.924v13.938c0,0.473,0.298,0.695,0.891,0.678
		c1.828-0.021,4.475-0.146,7.939-0.371c0.678-0.084,1.135-0.303,1.371-0.662s0.468-1.287,0.691-2.784
		c0.143-0.82,0.627-1.139,1.447-0.953c0.696,0.145,0.996,0.463,0.893,0.953c-0.574,2.79-0.761,6.421-0.556,10.894
		c0.022,0.533-0.315,0.82-1.015,0.863c-0.574,0.061-0.934-0.248-1.077-0.926c-0.532-2.562-1.523-3.934-2.968-4.109
		c-1.447-0.172-3.803-0.26-7.062-0.26c-0.37,0-0.555,0.133-0.555,0.4v13.848c0,1.025,0.379,1.725,1.138,2.092
		c0.597,0.309,1.878,0.584,3.847,0.832c1.006,0.102,1.446,0.545,1.324,1.322c-0.123,0.676-1.025,0.943-2.709,0.801
		c-4.861-0.391-8.873-0.369-12.031,0.062c-0.883,0.121-1.322-0.238-1.322-1.078c0-0.535,0.439-0.842,1.322-0.924
		c2.011-0.227,3.015-1.99,3.015-5.293V39.335c0-1.354-0.241-2.393-0.722-3.123c-0.482-0.727-1.381-1.391-2.693-1.984
		c-0.82-0.369-1.128-0.871-0.922-1.508c0.102-0.391,0.267-0.607,0.49-0.646c0.205-0.062,0.75-0.021,1.631,0.125
		c1.293,0.203,4.34,0.307,9.141,0.307c5.662,0,10.554-0.123,14.679-0.369c1.374-0.084,2.062,0.029,2.062,0.338
		C387.652,32.556,387.643,32.638,387.62,32.72L387.62,32.72z M387.62,32.72"/>
	<path d="M407.623,71.832c0,0.82-0.461,1.178-1.385,1.076c-2.829-0.266-6.338-0.227-10.523,0.121
		c-0.841,0.084-1.359,0.062-1.555-0.059c-0.195-0.125-0.291-0.461-0.291-1.018c0-0.49,0.559-0.906,1.676-1.246
		c1.12-0.338,1.678-1.35,1.678-3.029V39.829c0-1.662-0.242-2.883-0.723-3.664c-0.482-0.777-1.329-1.385-2.539-1.812
		c-0.637-0.229-0.955-0.545-0.955-0.955c0-0.617,0.462-1.078,1.385-1.387c1.396-0.449,2.842-1.146,4.34-2.092
		c1.232-0.738,2.012-1.105,2.338-1.105c0.76,0,1.14,0.52,1.14,1.568c0-0.082-0.041,0.943-0.124,3.076
		c-0.06,2.031-0.081,4.031-0.06,6l0.122,27.479c0,1.252,0.307,2.16,0.923,2.725s1.673,0.939,3.169,1.123
		C407.162,70.887,407.623,71.236,407.623,71.832L407.623,71.832z M407.623,71.832"/>
	<path d="M435.688,69.768c0,0.434-0.783,1.084-2.352,1.955c-1.571,0.871-2.828,1.307-3.77,1.307c-0.802,0-1.51-0.387-2.125-1.168
		c-0.615-0.779-1.047-1.17-1.293-1.17c-0.184,0-1.158,0.422-2.923,1.262c-1.763,0.842-3.539,1.262-5.323,1.262
		c-1.682,0-3.088-0.492-4.217-1.475c-1.23-1.088-1.847-2.564-1.847-4.434c0-3.549,4.063-6.092,12.188-7.629
		c1.394-0.27,2.104-0.834,2.122-1.695l0.062-1.969c0.124-3.365-1.363-5.045-4.462-5.045c-0.884,0-1.719,0.787-2.51,2.367
		c-0.788,1.582-1.923,2.432-3.399,2.555c-1.682,0.164-2.523-0.545-2.523-2.123c0-0.986,1.252-2.133,3.754-3.447
		c2.627-1.375,5.15-2.062,7.572-2.062c4.162,0,6.225,1.981,6.184,5.94l-0.123,12.678c-0.02,1.332,0.545,1.998,1.691,1.998
		c0.227,0,0.658-0.051,1.293-0.152c0.638-0.104,1.007-0.154,1.109-0.154C435.391,68.568,435.688,68.971,435.688,69.768
		L435.688,69.768z M426.211,62.754c0.021-0.514-0.099-0.854-0.355-1.016c-0.256-0.164-0.66-0.197-1.213-0.094
		c-4.945,0.883-7.418,2.494-7.418,4.832c0,2.357,1.282,3.537,3.846,3.537c1.026,0,2.084-0.193,3.17-0.582
		c1.273-0.453,1.908-0.996,1.908-1.633L426.211,62.754z M426.211,62.754"/>
	<path d="M458.646,66.107c0,2.174-0.838,3.904-2.51,5.186c-1.67,1.281-3.953,1.922-6.847,1.922c-1.928,0-3.857-0.205-5.785-0.615
		c-1.662-0.367-2.626-0.707-2.894-1.014c-0.164-0.289-0.245-1.691-0.245-4.217c0-1.088,0.245-1.652,0.739-1.693
		c0.492-0.061,0.912,0.207,1.261,0.801c1.538,2.689,4.021,4.031,7.447,4.031c2.892,0,4.339-1.006,4.339-3.018
		c0-0.881-0.327-1.619-0.986-2.213c-0.717-0.678-2.111-1.467-4.184-2.369c-2.996-1.334-4.996-2.502-6-3.51
		c-1.089-1.066-1.631-2.502-1.631-4.309c0-2.217,0.85-3.938,2.553-5.17c1.58-1.189,3.693-1.784,6.34-1.784
		c1.662,0,3.18,0.133,4.556,0.399c1.476,0.268,2.245,0.596,2.308,0.986c0.162,1.146,0.502,2.811,1.015,4.984
		c0.062,0.266-0.226,0.482-0.86,0.646c-0.678,0.143-1.129,0.029-1.355-0.338c-1.62-2.648-3.671-3.971-6.154-3.971
		c-2.811,0-4.217,0.902-4.217,2.709c0,1.004,0.381,1.805,1.139,2.398c0.678,0.514,2.269,1.314,4.771,2.402
		c2.626,1.129,4.411,2.145,5.354,3.045C458.031,62.568,458.646,64.139,458.646,66.107L458.646,66.107z M458.646,66.107"/>
	<path d="M494.342,71.646c0,0.717-0.482,1.098-1.447,1.137c-1.436,0.021-3.314,0.125-5.631,0.309
		c-1.149,0.227-1.971,0.084-2.461-0.43c-3.242-3.486-5.992-7.139-8.248-10.955c-0.186-0.328-0.42-0.492-0.708-0.492
		c-0.349,0-0.953,0.309-1.815,0.924c-0.965,0.531-1.445,1.291-1.445,2.275c0,0.699,0.02,1.703,0.062,3.018
		c0.04,1.311,0.368,2.172,0.983,2.582c0.432,0.291,1.427,0.514,2.984,0.678c0.964,0.125,1.447,0.484,1.447,1.078
		c0,0.473-0.077,0.766-0.23,0.877c-0.154,0.113-0.561,0.137-1.217,0.076c-2.051-0.184-5.517-0.08-10.4,0.307
		c-1.23,0.104-1.896-0.051-2-0.461c-0.041-0.143-0.062-0.348-0.062-0.615c0-0.635,0.626-1.117,1.878-1.445
		c1.128-0.289,1.693-1.611,1.693-3.971V39.644c0-1.682-0.165-2.852-0.494-3.508c-0.451-0.842-1.396-1.498-2.832-1.971
		c-0.675-0.225-1.015-0.541-1.015-0.953c0-0.596,0.483-1.057,1.446-1.383c1.539-0.514,3.005-1.223,4.4-2.125
		c1.129-0.738,1.827-1.107,2.092-1.107c0.842,0,1.264,0.531,1.264,1.6c0-0.145-0.012,0.873-0.033,3.047
		c-0.02,1.498-0.029,3.508-0.029,6.033l0.062,19.261c0,0.533,0.143,0.799,0.43,0.799c0.307,0,0.779-0.266,1.417-0.799
		c1.702-1.334,3.794-3.076,6.274-5.23c0.494-0.514,0.74-0.924,0.74-1.23c0-0.555-0.83-0.945-2.492-1.17
		c-0.717-0.084-1.058-0.482-1.016-1.201c0.061-0.719,0.42-1.025,1.076-0.924c1.479,0.205,3.633,0.318,6.462,0.34
		c1.971,0.02,3.931,0.031,5.88,0.031c0.635,0.021,0.953,0.398,0.953,1.139c0,0.695-0.504,1.076-1.508,1.139
		c-1.581,0.059-3.068,0.418-4.461,1.076c-1.949,0.881-4.033,2.432-6.249,4.646c-0.163,0.123-0.246,0.279-0.246,0.461
		c0,0.287,0.349,0.975,1.048,2.064c2.564,3.896,4.985,6.84,7.261,8.83c1.458,1.25,2.821,1.877,4.093,1.877
		c0.944,0,1.529,0.066,1.754,0.201C494.229,70.719,494.342,71.072,494.342,71.646L494.342,71.646z M494.342,71.646"/>
	<path d="M411.837,82.371c0,0.072-0.139,0.145-0.415,0.223c-0.179,0.047-0.328,0.211-0.453,0.49
		c-0.717,1.594-1.36,2.881-1.927,3.861c-0.013,0.021-0.042,0.031-0.09,0.027c-0.042-0.002-0.072-0.018-0.089-0.041
		c-0.097-0.143-0.343-0.645-0.736-1.502c-0.363-0.789-0.56-1.184-0.587-1.184c-0.044,0-0.257,0.379-0.64,1.141
		c-0.436,0.85-0.691,1.336-0.773,1.455c-0.01,0.027-0.038,0.041-0.084,0.037c-0.042,0-0.076-0.02-0.1-0.049
		c-0.293-0.453-0.961-1.701-2.011-3.734c-0.12-0.238-0.254-0.391-0.401-0.455c-0.255-0.113-0.383-0.193-0.383-0.244
		c0-0.156,0.086-0.227,0.256-0.209c0.771,0.078,1.445,0.062,2.023-0.049c0.131-0.023,0.197,0.02,0.197,0.133
		c0,0.154-0.09,0.254-0.27,0.299c-0.234,0.055-0.352,0.143-0.352,0.262c0,0.076,0.027,0.189,0.082,0.336
		c0.144,0.369,0.359,0.842,0.648,1.412c0.285,0.568,0.453,0.855,0.502,0.855c0.031,0,0.201-0.299,0.509-0.891
		c0.308-0.596,0.46-0.924,0.46-0.988c0-0.156-0.052-0.322-0.154-0.502c-0.125-0.266-0.268-0.422-0.432-0.475
		c-0.263-0.092-0.396-0.182-0.396-0.27c0-0.158,0.09-0.223,0.27-0.195c0.615,0.082,1.266,0.068,1.951-0.049
		c0.133-0.023,0.197,0.016,0.197,0.121c0,0.15-0.097,0.244-0.293,0.279c-0.23,0.045-0.346,0.162-0.346,0.354
		c0,0.092,0.025,0.201,0.076,0.324c0.615,1.502,0.971,2.254,1.066,2.254c0.034,0,0.194-0.293,0.479-0.879
		c0.304-0.627,0.514-1.131,0.633-1.514c0.009-0.02,0.013-0.041,0.013-0.066c0-0.172-0.132-0.303-0.401-0.4
		c-0.207-0.068-0.311-0.143-0.311-0.229c0-0.139,0.066-0.193,0.197-0.16c0.18,0.039,0.502,0.068,0.971,0.09
		c0.438,0.016,0.728,0.014,0.867-0.006C411.754,82.215,411.837,82.26,411.837,82.371L411.837,82.371z M411.837,82.371"/>
	<path d="M417.137,85.764c0,0.172-0.23,0.385-0.691,0.641c-0.529,0.283-1.069,0.426-1.623,0.426c-0.602,0-1.109-0.199-1.52-0.594
		c-0.439-0.418-0.658-0.977-0.658-1.676c0-0.787,0.244-1.422,0.736-1.9c0.459-0.447,1.021-0.672,1.688-0.672
		c0.393,0,0.763,0.127,1.107,0.379c0.305,0.223,0.51,0.479,0.608,0.764c0.036,0.102,0.09,0.156,0.163,0.168
		c0.102,0.021,0.156,0.09,0.156,0.209c0,0.164-0.197,0.305-0.588,0.418l-2.759,0.82c0.179,0.949,0.667,1.424,1.462,1.424
		c0.457,0,0.98-0.168,1.565-0.5c0.088-0.053,0.173-0.078,0.259-0.078C417.107,85.592,417.137,85.65,417.137,85.764L417.137,85.764z
		 M415.721,83.365c0-0.221-0.09-0.412-0.268-0.578s-0.395-0.248-0.654-0.248c-0.734,0-1.103,0.529-1.103,1.586v0.143l1.628-0.49
		C415.588,83.701,415.721,83.562,415.721,83.365L415.721,83.365z M415.721,83.365"/>
	<path d="M423.187,84.082c0,0.791-0.275,1.453-0.825,1.988c-0.527,0.516-1.153,0.771-1.878,0.771c-0.413,0-0.84-0.068-1.286-0.203
		c-0.432-0.133-0.65-0.252-0.654-0.359c-0.002-0.092-0.002-0.412,0.006-0.965c0.014-0.674,0.02-1.164,0.02-1.471
		c0-0.463-0.004-1.133-0.012-2.014c-0.01-0.881-0.014-1.465-0.014-1.75c0-0.287-0.043-0.484-0.13-0.592
		c-0.079-0.096-0.255-0.174-0.521-0.229c-0.103-0.033-0.156-0.102-0.156-0.197c0-0.082,0.079-0.154,0.235-0.209
		c0.222-0.078,0.5-0.215,0.831-0.402c0.263-0.146,0.427-0.221,0.489-0.221c0.123,0,0.186,0.102,0.186,0.307
		c0,0.016-0.006,0.223-0.017,0.621c-0.009,0.375-0.011,0.756-0.007,1.145l0.014,2.068c0,0.197,0.066,0.252,0.203,0.168
		c0.479-0.275,0.977-0.41,1.496-0.41c0.598,0,1.085,0.178,1.459,0.539C423.001,83.029,423.187,83.5,423.187,84.082L423.187,84.082z
		 M422.229,84.613c0-0.543-0.151-0.992-0.455-1.346c-0.286-0.33-0.635-0.494-1.048-0.494c-0.281,0-0.562,0.072-0.838,0.223
		c-0.273,0.146-0.412,0.301-0.412,0.465v1.604c0,0.77,0.426,1.156,1.276,1.156c0.442,0,0.799-0.145,1.071-0.43
		C422.095,85.506,422.229,85.115,422.229,84.613L422.229,84.613z M422.229,84.613"/>
	<path d="M432.869,86.184c0.016,0.037,0.023,0.061,0.023,0.076c0,0.086-0.202,0.223-0.61,0.416
		c-0.471,0.217-0.749,0.328-0.831,0.328c-0.073,0-0.154-0.121-0.248-0.363s-0.158-0.361-0.195-0.361c0.004,0-0.222,0.105-0.68,0.314
		c-0.457,0.209-0.803,0.314-1.038,0.314c-0.525,0-0.983-0.191-1.37-0.568c-0.466-0.451-0.701-1.084-0.701-1.898
		c0-0.682,0.276-1.27,0.828-1.766c0.486-0.434,0.982-0.65,1.488-0.65c0.359,0,0.789,0.045,1.287,0.137
		c0.156,0.027,0.232-0.018,0.232-0.137v-2.049c0-0.23-0.055-0.391-0.166-0.488c-0.072-0.062-0.241-0.141-0.509-0.229
		c-0.128-0.047-0.192-0.123-0.192-0.234c0-0.1,0.086-0.172,0.259-0.219c0.235-0.072,0.515-0.191,0.842-0.359
		c0.271-0.145,0.44-0.217,0.505-0.217c0.146,0,0.22,0.102,0.22,0.307c0-0.004-0.007,0.193-0.017,0.594
		c-0.014,0.402-0.02,0.791-0.02,1.172v5.438c0,0.229,0.103,0.342,0.306,0.342c0.077,0,0.177-0.012,0.306-0.035
		C432.727,86.021,432.82,86.068,432.869,86.184L432.869,86.184z M431.019,85.592v-2.145c0-0.174-0.153-0.355-0.466-0.541
		c-0.331-0.201-0.689-0.301-1.076-0.301c-0.834,0-1.25,0.514-1.25,1.543c0,0.553,0.164,1.021,0.494,1.414
		c0.332,0.391,0.721,0.586,1.168,0.586c0.203,0,0.441-0.068,0.718-0.205C430.882,85.809,431.019,85.689,431.019,85.592
		L431.019,85.592z M431.019,85.592"/>
	<path d="M438.057,85.764c0,0.172-0.231,0.385-0.695,0.641c-0.525,0.283-1.066,0.426-1.62,0.426c-0.603,0-1.108-0.199-1.521-0.594
		c-0.439-0.418-0.658-0.977-0.658-1.676c0-0.787,0.245-1.422,0.736-1.9c0.46-0.447,1.021-0.672,1.687-0.672
		c0.396,0,0.765,0.127,1.106,0.379c0.309,0.223,0.512,0.479,0.611,0.764c0.036,0.102,0.09,0.156,0.162,0.168
		c0.103,0.021,0.154,0.09,0.154,0.209c0,0.164-0.194,0.305-0.586,0.418l-2.758,0.82c0.179,0.949,0.666,1.424,1.459,1.424
		c0.459,0,0.982-0.168,1.568-0.5c0.088-0.053,0.174-0.078,0.256-0.078C438.023,85.592,438.057,85.65,438.057,85.764L438.057,85.764z
		 M436.639,83.365c0-0.221-0.089-0.412-0.267-0.578c-0.177-0.166-0.396-0.248-0.656-0.248c-0.733,0-1.101,0.529-1.101,1.586v0.143
		l1.629-0.49C436.506,83.701,436.639,83.562,436.639,83.365L436.639,83.365z M436.639,83.365"/>
	<path d="M444.621,82.361c0,0.074-0.127,0.152-0.379,0.232c-0.162,0.047-0.301,0.211-0.418,0.49
		c-0.195,0.471-0.537,1.162-1.021,2.068c-0.412,0.773-0.729,1.334-0.953,1.689c-0.012,0.027-0.037,0.041-0.077,0.037
		c-0.041-0.004-0.071-0.021-0.09-0.049c-0.847-1.217-1.569-2.461-2.171-3.734c-0.129-0.271-0.254-0.424-0.379-0.455
		c-0.23-0.092-0.346-0.174-0.346-0.244c0-0.16,0.076-0.23,0.232-0.209c0.244,0.029,0.604,0.039,1.084,0.023
		c0.461-0.014,0.789-0.037,0.975-0.072c0.115-0.023,0.172,0.02,0.172,0.133c0,0.139-0.08,0.229-0.242,0.268
		c-0.312,0.084-0.469,0.191-0.469,0.324c0,0.059,0.021,0.145,0.061,0.256c0.137,0.336,0.379,0.818,0.73,1.451
		c0.35,0.633,0.549,0.949,0.599,0.949c0.036,0,0.204-0.305,0.509-0.91c0.317-0.641,0.549-1.162,0.688-1.555
		c0.02-0.045,0.029-0.09,0.029-0.133c0-0.156-0.096-0.283-0.288-0.383c-0.187-0.076-0.28-0.146-0.28-0.217
		c0-0.137,0.062-0.193,0.187-0.172c0.157,0.029,0.44,0.053,0.842,0.07c0.404,0.021,0.665,0.027,0.784,0.014
		C444.546,82.207,444.621,82.248,444.621,82.361L444.621,82.361z M444.621,82.361"/>
	<path d="M449.927,85.764c0,0.172-0.23,0.385-0.692,0.641c-0.528,0.283-1.068,0.426-1.621,0.426c-0.604,0-1.109-0.199-1.52-0.594
		c-0.44-0.418-0.658-0.977-0.658-1.676c0-0.787,0.243-1.422,0.734-1.9c0.46-0.447,1.021-0.672,1.688-0.672
		c0.393,0,0.763,0.127,1.106,0.379c0.306,0.223,0.511,0.479,0.609,0.764c0.037,0.102,0.09,0.156,0.162,0.168
		c0.104,0.021,0.156,0.09,0.156,0.209c0,0.164-0.196,0.305-0.588,0.418l-2.758,0.82c0.18,0.949,0.666,1.424,1.461,1.424
		c0.457,0,0.98-0.168,1.566-0.5c0.088-0.053,0.174-0.078,0.258-0.078C449.896,85.592,449.927,85.65,449.927,85.764L449.927,85.764z
		 M448.511,83.365c0-0.221-0.091-0.412-0.269-0.578c-0.177-0.166-0.395-0.248-0.653-0.248c-0.735,0-1.103,0.529-1.103,1.586v0.143
		l1.628-0.49C448.378,83.701,448.511,83.562,448.511,83.365L448.511,83.365z M448.511,83.365"/>
	<path d="M453.626,86.596c0,0.16-0.089,0.229-0.269,0.209c-0.553-0.051-1.234-0.043-2.048,0.025
		c-0.163,0.016-0.263,0.012-0.302-0.012s-0.057-0.09-0.057-0.199c0-0.094,0.109-0.176,0.326-0.24
		c0.219-0.068,0.326-0.264,0.326-0.592v-5.414c0-0.322-0.047-0.561-0.141-0.713c-0.094-0.15-0.258-0.268-0.494-0.352
		c-0.123-0.045-0.186-0.107-0.186-0.186c0-0.119,0.09-0.209,0.27-0.27c0.271-0.088,0.552-0.225,0.845-0.406
		c0.239-0.145,0.392-0.217,0.452-0.217c0.15,0,0.223,0.102,0.223,0.307c0-0.018-0.009,0.184-0.023,0.6
		c-0.014,0.393-0.018,0.781-0.014,1.166l0.023,5.342c0,0.244,0.061,0.42,0.181,0.531c0.12,0.109,0.327,0.18,0.618,0.217
		C453.537,86.412,453.626,86.48,453.626,86.596L453.626,86.596z M453.626,86.596"/>
	<path d="M459.424,84.357c0,0.695-0.257,1.283-0.771,1.764c-0.515,0.479-1.154,0.721-1.914,0.721c-0.764,0-1.365-0.211-1.809-0.635
		c-0.426-0.416-0.639-0.965-0.639-1.646c0-0.705,0.27-1.299,0.808-1.783c0.521-0.467,1.146-0.699,1.872-0.699
		c0.777,0,1.385,0.209,1.818,0.629C459.213,83.115,459.424,83.664,459.424,84.357L459.424,84.357z M458.369,84.723
		c0-0.625-0.15-1.133-0.455-1.525c-0.294-0.379-0.668-0.568-1.123-0.568c-0.423,0-0.768,0.148-1.034,0.445
		c-0.268,0.297-0.401,0.66-0.401,1.088c0,0.686,0.155,1.219,0.465,1.602c0.289,0.352,0.663,0.525,1.127,0.525
		c0.438,0,0.785-0.145,1.04-0.434C458.244,85.564,458.369,85.186,458.369,84.723L458.369,84.723z M458.369,84.723"/>
	<path d="M465.676,84.195c0,0.746-0.249,1.381-0.749,1.9c-0.503,0.521-1.087,0.783-1.751,0.783c-0.402,0-0.793-0.074-1.166-0.217
		c-0.041-0.018-0.061,0.082-0.061,0.293v1.801c0,0.291,0.237,0.479,0.712,0.562c0.22,0.041,0.356,0.076,0.415,0.111
		c0.06,0.033,0.088,0.09,0.088,0.172c0,0.133-0.09,0.195-0.27,0.186c-0.838-0.059-1.573-0.037-2.207,0.059
		c-0.133,0.02-0.215,0.02-0.246,0c-0.032-0.021-0.048-0.074-0.048-0.162c0-0.068,0.114-0.148,0.34-0.246
		c0.196-0.078,0.293-0.271,0.293-0.574v-5.277c0-0.426-0.117-0.693-0.353-0.801c-0.277-0.123-0.418-0.227-0.418-0.305
		c0-0.088,0.082-0.154,0.246-0.199c0.211-0.051,0.428-0.143,0.65-0.273c0.188-0.109,0.301-0.164,0.342-0.164
		c0.119,0,0.218,0.111,0.293,0.33c0.111,0.318,0.186,0.479,0.223,0.479c0.006,0,0.18-0.094,0.514-0.281
		c0.366-0.203,0.725-0.305,1.076-0.305c0.57,0,1.043,0.162,1.412,0.484C465.455,82.932,465.676,83.479,465.676,84.195
		L465.676,84.195z M464.658,84.674c0-0.648-0.162-1.156-0.484-1.518c-0.262-0.305-0.572-0.455-0.927-0.455
		c-0.276,0-0.538,0.096-0.788,0.287c-0.332,0.246-0.498,0.592-0.498,1.035v1.695c0,0.105,0.151,0.219,0.455,0.34
		c0.326,0.131,0.681,0.197,1.062,0.197C464.266,86.256,464.658,85.729,464.658,84.674L464.658,84.674z M464.658,84.674"/>
	<path d="M476.49,86.609c0,0.131-0.062,0.191-0.188,0.186c-0.813-0.061-1.572-0.061-2.272,0c-0.156,0.01-0.233-0.061-0.233-0.209
		c0-0.119,0.105-0.184,0.316-0.193c0.268-0.016,0.402-0.232,0.402-0.652v-1.592c0-0.893-0.364-1.34-1.09-1.34
		c-0.383,0-0.733,0.068-1.054,0.209c-0.291,0.125-0.438,0.246-0.442,0.371l-0.024,2.375c0,0.25,0.03,0.412,0.09,0.492
		c0.044,0.055,0.142,0.094,0.293,0.121c0.351,0.059,0.526,0.131,0.526,0.219c0,0.078-0.008,0.129-0.031,0.156
		c-0.023,0.041-0.094,0.057-0.213,0.053c-0.455-0.014-1.117-0.008-1.986,0.025c-0.125,0.004-0.204-0.006-0.24-0.031
		c-0.037-0.023-0.054-0.078-0.054-0.168c0-0.104,0.114-0.164,0.339-0.191c0.249-0.027,0.373-0.252,0.373-0.676v-1.629
		c0-0.438-0.101-0.777-0.3-1.016c-0.175-0.213-0.399-0.322-0.671-0.322c-0.397,0-0.756,0.08-1.076,0.242
		c-0.319,0.162-0.479,0.334-0.479,0.518v2.184c0,0.246,0.064,0.42,0.192,0.516c0.115,0.088,0.325,0.143,0.629,0.16
		c0.164,0.01,0.245,0.064,0.245,0.17c0,0.113-0.065,0.172-0.198,0.172c-0.996,0-1.719,0.029-2.165,0.084
		c-0.152,0.018-0.25,0.018-0.292,0c-0.037-0.02-0.056-0.068-0.056-0.145c0-0.1,0.149-0.186,0.444-0.258
		c0.18-0.047,0.27-0.279,0.27-0.699v-1.838c0-0.465-0.127-0.734-0.379-0.807c-0.212-0.061-0.34-0.104-0.385-0.131
		c-0.047-0.029-0.07-0.074-0.07-0.139c0-0.07,0.209-0.223,0.623-0.455c0.439-0.246,0.709-0.369,0.809-0.369
		c0.083,0,0.154,0.119,0.211,0.361c0.059,0.24,0.104,0.363,0.136,0.363c0.044,0,0.166-0.062,0.364-0.188
		c0.249-0.154,0.471-0.271,0.67-0.348c0.328-0.125,0.664-0.189,1.013-0.189c0.278,0,0.521,0.059,0.729,0.18
		c0.144,0.078,0.273,0.188,0.39,0.328c0.096,0.119,0.143,0.18,0.143,0.18l0.312-0.18c0.243-0.141,0.48-0.25,0.711-0.328
		c0.34-0.121,0.67-0.18,0.988-0.18c1.094,0,1.639,0.6,1.639,1.801v1.938c0,0.229,0.055,0.391,0.162,0.486
		c0.096,0.078,0.285,0.148,0.562,0.203C476.383,86.469,476.49,86.527,476.49,86.609L476.49,86.609z M476.49,86.609"/>
	<path d="M481.545,85.764c0,0.172-0.232,0.385-0.693,0.641c-0.528,0.283-1.066,0.426-1.623,0.426c-0.602,0-1.107-0.199-1.519-0.594
		c-0.438-0.418-0.659-0.977-0.659-1.676c0-0.787,0.246-1.422,0.736-1.9c0.459-0.447,1.021-0.672,1.688-0.672
		c0.396,0,0.764,0.127,1.107,0.379c0.309,0.223,0.512,0.479,0.608,0.764c0.036,0.102,0.091,0.156,0.163,0.168
		c0.105,0.021,0.156,0.09,0.156,0.209c0,0.164-0.197,0.305-0.588,0.418l-2.756,0.82c0.178,0.949,0.664,1.424,1.459,1.424
		c0.459,0,0.98-0.168,1.565-0.5c0.091-0.053,0.176-0.078,0.26-0.078C481.514,85.592,481.545,85.65,481.545,85.764L481.545,85.764z
		 M480.127,83.365c0-0.221-0.088-0.412-0.268-0.578c-0.177-0.166-0.395-0.248-0.654-0.248c-0.734,0-1.1,0.529-1.1,1.586v0.143
		l1.626-0.49C479.994,83.701,480.127,83.562,480.127,83.365L480.127,83.365z M480.127,83.365"/>
	<path d="M488.727,86.662c0,0.125-0.09,0.18-0.27,0.168c-0.859-0.043-1.51-0.053-1.951-0.025c-0.229,0.018-0.351-0.01-0.372-0.082
		c-0.007-0.025-0.011-0.059-0.011-0.104c0-0.078,0.115-0.15,0.346-0.215c0.212-0.059,0.317-0.266,0.317-0.617v-1.592
		c0-0.912-0.396-1.369-1.19-1.369c-0.355,0-0.685,0.084-0.988,0.252c-0.285,0.162-0.43,0.334-0.43,0.508v2.191
		c0,0.373,0.244,0.582,0.736,0.627c0.188,0.016,0.281,0.076,0.281,0.182c0,0.098-0.025,0.158-0.079,0.178
		c-0.022,0.006-0.091,0.01-0.202,0.004c-0.627-0.021-1.271,0.01-1.938,0.098c-0.144,0.02-0.233,0.025-0.269,0.02
		c-0.08-0.018-0.121-0.08-0.121-0.188c0-0.094,0.114-0.176,0.34-0.244c0.213-0.064,0.318-0.328,0.318-0.795v-1.814
		c0-0.309-0.041-0.502-0.119-0.586c-0.056-0.061-0.241-0.143-0.559-0.252c-0.078-0.027-0.119-0.084-0.119-0.166
		s0.084-0.15,0.246-0.211c0.225-0.082,0.471-0.217,0.737-0.4c0.223-0.152,0.364-0.227,0.429-0.227c0.109,0,0.18,0.121,0.217,0.367
		c0.036,0.246,0.086,0.367,0.149,0.367c-0.032,0,0.171-0.115,0.611-0.35c0.438-0.234,0.871-0.35,1.297-0.35
		c1.034,0,1.554,0.588,1.562,1.766l0.014,1.926c0,0.248,0.064,0.424,0.189,0.531c0.097,0.082,0.282,0.148,0.559,0.207
		C488.637,86.498,488.727,86.564,488.727,86.662L488.727,86.662z M488.727,86.662"/>
	<path d="M492.566,86.207c0,0.191-0.176,0.354-0.525,0.49c-0.312,0.121-0.626,0.182-0.947,0.182c-0.865,0-1.297-0.463-1.297-1.385
		v-2.166c0-0.273-0.021-0.441-0.066-0.504c-0.043-0.062-0.189-0.123-0.436-0.184c-0.064-0.016-0.097-0.078-0.097-0.184
		c0-0.117,0.023-0.186,0.071-0.209c0.432-0.213,0.807-0.594,1.125-1.137c0.043-0.078,0.131-0.102,0.257-0.074
		c0.089,0.029,0.134,0.08,0.139,0.156l0.023,0.748c0,0.057,0.011,0.096,0.03,0.119c0.028,0.037,0.092,0.055,0.19,0.055h1.335
		c0.074,0,0.074,0.094,0,0.281c-0.092,0.227-0.229,0.34-0.408,0.34h-0.902c-0.154,0-0.251,0.025-0.287,0.08
		c-0.027,0.033-0.041,0.131-0.041,0.291v1.957c0,0.494,0.043,0.807,0.131,0.938c0.115,0.168,0.385,0.254,0.808,0.254
		c0.141,0,0.31-0.023,0.509-0.07c0.201-0.045,0.305-0.068,0.318-0.068C492.543,86.117,492.566,86.148,492.566,86.207L492.566,86.207
		z M492.566,86.207"/>
	<path d="M495.282,86.477c0,1.037-0.436,1.816-1.31,2.34c-0.08,0.047-0.137,0.072-0.173,0.072c-0.056,0-0.108-0.064-0.157-0.191
		c-0.015-0.045-0.023-0.08-0.023-0.107c0-0.068,0.113-0.18,0.342-0.336c0.392-0.271,0.587-0.578,0.587-0.92
		c0-0.18-0.114-0.336-0.343-0.48c-0.318-0.199-0.479-0.445-0.479-0.736c0-0.193,0.066-0.357,0.199-0.488
		c0.131-0.129,0.308-0.193,0.525-0.193c0.263,0,0.468,0.096,0.613,0.285C495.21,85.914,495.282,86.166,495.282,86.477
		L495.282,86.477z M495.282,86.477"/>
	<path d="M409.115,95.387c0,0.695-0.259,1.281-0.773,1.764c-0.514,0.479-1.152,0.721-1.916,0.721c-0.76,0-1.363-0.211-1.805-0.635
		c-0.428-0.416-0.642-0.963-0.642-1.646c0-0.705,0.27-1.299,0.808-1.781c0.523-0.469,1.147-0.701,1.875-0.701
		c0.777,0,1.382,0.209,1.818,0.629C408.902,94.145,409.115,94.693,409.115,95.387L409.115,95.387z M408.061,95.752
		c0-0.625-0.151-1.135-0.455-1.525c-0.295-0.381-0.671-0.568-1.123-0.568c-0.424,0-0.77,0.148-1.037,0.445s-0.399,0.66-0.399,1.086
		c0,0.688,0.153,1.221,0.466,1.605c0.286,0.35,0.662,0.523,1.125,0.523c0.439,0,0.785-0.145,1.042-0.434
		C407.933,96.592,408.061,96.215,408.061,95.752L408.061,95.752z M408.061,95.752"/>
	<path d="M416.395,97.689c0,0.125-0.088,0.182-0.269,0.168c-0.856-0.043-1.507-0.051-1.95-0.023
		c-0.227,0.018-0.352-0.012-0.37-0.082c-0.009-0.023-0.013-0.059-0.013-0.104c0-0.08,0.115-0.152,0.348-0.215
		c0.212-0.059,0.316-0.266,0.316-0.617v-1.592c0-0.912-0.397-1.369-1.19-1.369c-0.354,0-0.683,0.084-0.987,0.252
		c-0.288,0.162-0.432,0.334-0.432,0.508v2.191c0,0.373,0.246,0.584,0.738,0.627c0.186,0.018,0.279,0.076,0.279,0.182
		c0,0.098-0.025,0.158-0.076,0.178c-0.024,0.008-0.093,0.01-0.203,0.006c-0.627-0.025-1.274,0.008-1.941,0.094
		c-0.143,0.02-0.232,0.027-0.27,0.02c-0.078-0.018-0.119-0.078-0.119-0.184c0-0.098,0.115-0.178,0.342-0.248
		c0.212-0.062,0.316-0.328,0.316-0.793v-1.816c0-0.307-0.038-0.502-0.119-0.584c-0.057-0.061-0.24-0.143-0.557-0.252
		c-0.078-0.027-0.119-0.084-0.119-0.166s0.081-0.15,0.246-0.211c0.222-0.082,0.467-0.217,0.734-0.4
		c0.225-0.152,0.368-0.227,0.432-0.227c0.107,0,0.18,0.121,0.217,0.367c0.033,0.244,0.085,0.367,0.148,0.367
		c-0.031,0,0.172-0.115,0.609-0.35c0.44-0.234,0.873-0.35,1.3-0.35c1.032,0,1.554,0.588,1.562,1.766l0.011,1.924
		c0,0.25,0.064,0.428,0.192,0.535c0.096,0.078,0.28,0.145,0.556,0.205C416.307,97.529,416.395,97.596,416.395,97.689L416.395,97.689
		z M416.395,97.689"/>
	<path d="M421.398,96.795c0,0.17-0.23,0.383-0.695,0.639c-0.525,0.283-1.066,0.424-1.621,0.424c-0.601,0-1.107-0.195-1.52-0.592
		c-0.438-0.42-0.658-0.977-0.658-1.676c0-0.789,0.246-1.424,0.736-1.9c0.459-0.447,1.022-0.672,1.688-0.672
		c0.395,0,0.764,0.125,1.105,0.379c0.309,0.221,0.512,0.479,0.611,0.764c0.037,0.102,0.09,0.156,0.161,0.168
		c0.104,0.021,0.156,0.09,0.156,0.209c0,0.164-0.194,0.303-0.586,0.418l-2.759,0.822c0.18,0.949,0.666,1.424,1.459,1.424
		c0.46,0,0.98-0.168,1.568-0.504c0.088-0.051,0.174-0.078,0.257-0.078C421.366,96.619,421.398,96.68,421.398,96.795L421.398,96.795z
		 M419.979,94.393c0-0.219-0.087-0.41-0.264-0.576c-0.178-0.166-0.396-0.248-0.656-0.248c-0.733,0-1.102,0.527-1.102,1.586v0.145
		l1.629-0.492C419.849,94.73,419.979,94.592,419.979,94.393L419.979,94.393z M419.979,94.393"/>
	<path d="M430.979,97.213c0.015,0.037,0.023,0.061,0.023,0.078c0,0.084-0.203,0.221-0.611,0.414
		c-0.471,0.217-0.748,0.328-0.831,0.328c-0.071,0-0.154-0.121-0.249-0.363c-0.093-0.242-0.157-0.361-0.193-0.361
		c0.004,0-0.223,0.104-0.68,0.314c-0.455,0.209-0.801,0.312-1.039,0.312c-0.525,0-0.982-0.189-1.369-0.568
		c-0.467-0.449-0.699-1.082-0.699-1.896c0-0.682,0.273-1.27,0.825-1.766c0.487-0.434,0.983-0.65,1.489-0.65
		c0.359,0,0.789,0.043,1.286,0.137c0.156,0.027,0.233-0.018,0.233-0.137v-2.049c0-0.23-0.056-0.393-0.167-0.488
		c-0.073-0.064-0.241-0.143-0.509-0.229c-0.128-0.049-0.192-0.125-0.192-0.232c0-0.102,0.089-0.174,0.259-0.221
		c0.235-0.074,0.518-0.193,0.845-0.359c0.271-0.145,0.438-0.217,0.501-0.217c0.148,0,0.221,0.102,0.221,0.307
		c0-0.004-0.004,0.193-0.018,0.594c-0.012,0.402-0.016,0.791-0.016,1.172v5.438c0,0.227,0.1,0.34,0.303,0.34
		c0.077,0,0.18-0.01,0.305-0.035C430.837,97.051,430.93,97.098,430.979,97.213L430.979,97.213z M429.13,96.619v-2.143
		c0-0.176-0.155-0.355-0.468-0.543c-0.332-0.199-0.69-0.299-1.077-0.299c-0.833,0-1.25,0.514-1.25,1.543
		c0,0.551,0.166,1.021,0.495,1.412c0.332,0.393,0.721,0.586,1.168,0.586c0.204,0,0.443-0.068,0.717-0.203
		C428.991,96.836,429.13,96.719,429.13,96.619L429.13,96.619z M429.13,96.619"/>
	<path d="M435.496,93.557c0,0.482-0.139,0.725-0.42,0.725c-0.045,0-0.189-0.029-0.438-0.084c-0.246-0.057-0.428-0.084-0.543-0.084
		c-0.446,0-0.671,0.299-0.671,0.902v1.766c0,0.207,0.073,0.355,0.216,0.443c0.084,0.051,0.293,0.121,0.629,0.209
		c0.18,0.045,0.27,0.113,0.27,0.203c0,0.107-0.016,0.172-0.046,0.195c-0.029,0.021-0.104,0.025-0.224,0.016
		c-0.879-0.092-1.572-0.096-2.084-0.014c-0.158,0.029-0.26,0.029-0.304,0c-0.036-0.023-0.056-0.094-0.056-0.209
		c0-0.107,0.111-0.193,0.334-0.258c0.22-0.062,0.331-0.256,0.331-0.572v-1.924c0-0.248-0.032-0.42-0.099-0.508
		c-0.066-0.086-0.246-0.205-0.541-0.352l-0.036-0.018c-0.079-0.041-0.119-0.096-0.119-0.168c0-0.08,0.081-0.148,0.245-0.203
		c0.274-0.098,0.526-0.23,0.753-0.406c0.188-0.15,0.308-0.225,0.358-0.225c0.146,0,0.231,0.127,0.26,0.373
		c0.035,0.314,0.076,0.473,0.125,0.473c0.004,0,0.227-0.148,0.669-0.449c0.294-0.197,0.611-0.291,0.958-0.291
		C435.353,93.098,435.496,93.248,435.496,93.557L435.496,93.557z M435.496,93.557"/>
	<path d="M441.426,95.387c0,0.695-0.258,1.281-0.773,1.764c-0.513,0.479-1.151,0.721-1.914,0.721c-0.762,0-1.364-0.211-1.807-0.635
		c-0.428-0.416-0.641-0.963-0.641-1.646c0-0.705,0.27-1.299,0.807-1.781c0.525-0.469,1.148-0.701,1.875-0.701
		c0.777,0,1.383,0.209,1.818,0.629C441.215,94.145,441.426,94.693,441.426,95.387L441.426,95.387z M440.373,95.752
		c0-0.625-0.152-1.135-0.455-1.525c-0.296-0.381-0.672-0.568-1.125-0.568c-0.423,0-0.77,0.148-1.036,0.445s-0.399,0.66-0.399,1.086
		c0,0.688,0.154,1.221,0.465,1.605c0.287,0.35,0.663,0.523,1.125,0.523c0.439,0,0.786-0.145,1.043-0.434
		C440.244,96.592,440.373,96.215,440.373,95.752L440.373,95.752z M440.373,95.752"/>
	<path d="M447.679,95.225c0,0.746-0.25,1.381-0.752,1.898c-0.5,0.523-1.083,0.785-1.751,0.785c-0.4,0-0.79-0.074-1.166-0.219
		c-0.039-0.016-0.061,0.084-0.061,0.295v1.801c0,0.291,0.238,0.479,0.713,0.562c0.219,0.039,0.358,0.076,0.416,0.111
		c0.058,0.033,0.088,0.088,0.088,0.17c0,0.135-0.09,0.197-0.27,0.186c-0.838-0.057-1.575-0.035-2.21,0.062
		c-0.13,0.018-0.212,0.018-0.243,0c-0.032-0.023-0.049-0.076-0.049-0.164c0-0.068,0.112-0.15,0.342-0.246
		c0.193-0.08,0.293-0.271,0.293-0.574v-5.277c0-0.428-0.118-0.693-0.354-0.801c-0.279-0.123-0.418-0.227-0.418-0.305
		c0-0.088,0.08-0.156,0.245-0.199c0.212-0.051,0.427-0.143,0.651-0.273c0.188-0.109,0.302-0.162,0.34-0.162
		c0.12,0,0.219,0.107,0.295,0.328c0.111,0.318,0.184,0.479,0.221,0.479c0.009,0,0.18-0.094,0.515-0.283
		c0.368-0.201,0.727-0.301,1.077-0.301c0.57,0,1.041,0.16,1.412,0.482C447.457,93.959,447.679,94.506,447.679,95.225L447.679,95.225
		z M446.662,95.703c0-0.648-0.163-1.156-0.485-1.52c-0.263-0.303-0.573-0.455-0.928-0.455c-0.276,0-0.538,0.098-0.79,0.289
		c-0.332,0.246-0.496,0.592-0.496,1.035v1.693c0,0.107,0.151,0.221,0.455,0.34c0.327,0.133,0.682,0.199,1.064,0.199
		C446.269,97.285,446.662,96.756,446.662,95.703L446.662,95.703z M446.662,95.703"/>
	<path d="M456.545,97.225c0,0.084-0.152,0.209-0.457,0.379s-0.549,0.254-0.732,0.254c-0.156,0-0.293-0.074-0.413-0.227
		s-0.202-0.225-0.253-0.225c-0.036,0-0.223,0.078-0.567,0.242c-0.343,0.164-0.688,0.244-1.034,0.244
		c-0.328,0-0.602-0.094-0.82-0.285c-0.24-0.211-0.359-0.5-0.359-0.861c0-0.691,0.791-1.186,2.369-1.484
		c0.271-0.051,0.408-0.16,0.412-0.33l0.014-0.383c0.023-0.652-0.265-0.98-0.867-0.98c-0.171,0-0.334,0.154-0.488,0.459
		c-0.153,0.309-0.373,0.475-0.662,0.498c-0.327,0.033-0.489-0.105-0.489-0.412c0-0.191,0.244-0.416,0.729-0.67
		c0.51-0.268,1.002-0.402,1.472-0.402c0.81,0,1.212,0.385,1.203,1.156l-0.022,2.463c-0.006,0.262,0.104,0.391,0.328,0.391
		c0.043,0,0.126-0.01,0.25-0.031c0.123-0.02,0.196-0.029,0.216-0.029c0.115,0,0.173,0.078,0.173,0.232V97.225z M454.703,95.861
		c0.004-0.102-0.02-0.166-0.068-0.199c-0.051-0.031-0.131-0.037-0.237-0.018c-0.962,0.172-1.442,0.484-1.442,0.939
		c0,0.461,0.25,0.689,0.748,0.689c0.201,0,0.406-0.039,0.617-0.113c0.246-0.09,0.369-0.195,0.369-0.32L454.703,95.861z
		 M454.703,95.861"/>
	<path d="M460.566,97.236c0,0.191-0.176,0.355-0.527,0.492c-0.311,0.119-0.627,0.18-0.945,0.18c-0.865,0-1.298-0.463-1.298-1.385
		v-2.166c0-0.273-0.022-0.443-0.064-0.504c-0.045-0.062-0.19-0.125-0.438-0.184c-0.064-0.016-0.096-0.078-0.096-0.184
		c0-0.119,0.025-0.188,0.072-0.211c0.432-0.211,0.805-0.592,1.124-1.135c0.045-0.078,0.131-0.102,0.259-0.074
		c0.087,0.029,0.132,0.08,0.137,0.156l0.023,0.748c0,0.055,0.011,0.096,0.03,0.119c0.03,0.035,0.091,0.053,0.192,0.053h1.333
		c0.077,0,0.077,0.096,0,0.283c-0.09,0.227-0.228,0.34-0.405,0.34h-0.904c-0.156,0-0.25,0.025-0.287,0.078
		c-0.027,0.035-0.042,0.133-0.042,0.293v1.955c0,0.498,0.045,0.809,0.132,0.941c0.115,0.168,0.385,0.252,0.809,0.252
		c0.139,0,0.309-0.023,0.508-0.07c0.199-0.045,0.306-0.068,0.316-0.068C460.543,97.146,460.566,97.176,460.566,97.236
		L460.566,97.236z M460.566,97.236"/>
	<path d="M469.23,97.225c0,0.084-0.152,0.209-0.457,0.379c-0.307,0.17-0.549,0.254-0.733,0.254c-0.156,0-0.293-0.074-0.412-0.227
		c-0.12-0.152-0.204-0.225-0.253-0.225c-0.036,0-0.225,0.078-0.568,0.242c-0.342,0.164-0.688,0.244-1.034,0.244
		c-0.327,0-0.601-0.094-0.82-0.285c-0.239-0.211-0.358-0.5-0.358-0.861c0-0.691,0.789-1.186,2.369-1.484
		c0.271-0.051,0.408-0.16,0.412-0.33l0.013-0.383c0.024-0.652-0.265-0.98-0.867-0.98c-0.171,0-0.333,0.154-0.487,0.459
		c-0.153,0.309-0.373,0.475-0.662,0.498c-0.326,0.033-0.489-0.105-0.489-0.412c0-0.191,0.243-0.416,0.729-0.67
		c0.51-0.268,1.002-0.402,1.471-0.402c0.811,0,1.212,0.385,1.203,1.156l-0.023,2.463c-0.004,0.262,0.105,0.391,0.33,0.391
		c0.043,0,0.125-0.01,0.25-0.031c0.123-0.02,0.196-0.029,0.216-0.029c0.114,0,0.173,0.078,0.173,0.232V97.225z M467.388,95.861
		c0.005-0.102-0.019-0.166-0.067-0.199c-0.053-0.031-0.131-0.037-0.238-0.018c-0.961,0.172-1.441,0.484-1.441,0.939
		c0,0.461,0.25,0.689,0.748,0.689c0.201,0,0.406-0.039,0.617-0.113c0.246-0.09,0.369-0.195,0.369-0.32L467.388,95.861z
		 M467.388,95.861"/>
	<path d="M476.291,97.236c0,0.191-0.176,0.355-0.525,0.492c-0.312,0.119-0.627,0.18-0.947,0.18c-0.865,0-1.297-0.463-1.297-1.385
		v-2.166c0-0.273-0.021-0.443-0.066-0.504c-0.043-0.062-0.189-0.125-0.436-0.184c-0.064-0.016-0.097-0.078-0.097-0.184
		c0-0.119,0.024-0.188,0.07-0.211c0.433-0.211,0.808-0.592,1.126-1.135c0.043-0.078,0.131-0.102,0.258-0.074
		c0.088,0.029,0.134,0.08,0.139,0.156l0.023,0.748c0,0.055,0.01,0.096,0.029,0.119c0.027,0.035,0.092,0.053,0.19,0.053h1.335
		c0.076,0,0.076,0.096,0,0.283c-0.091,0.227-0.228,0.34-0.408,0.34h-0.901c-0.156,0-0.253,0.025-0.288,0.078
		c-0.027,0.035-0.041,0.133-0.041,0.293v1.955c0,0.498,0.043,0.809,0.131,0.941c0.115,0.168,0.385,0.252,0.807,0.252
		c0.142,0,0.311-0.023,0.51-0.07c0.201-0.045,0.306-0.068,0.318-0.068C476.268,97.146,476.291,97.176,476.291,97.236L476.291,97.236
		z M476.291,97.236"/>
	<path d="M479.289,90.875c0,0.186-0.068,0.355-0.207,0.512c-0.137,0.158-0.287,0.238-0.451,0.238c-0.188,0-0.342-0.057-0.461-0.17
		c-0.121-0.111-0.18-0.256-0.18-0.436c0-0.176,0.074-0.34,0.221-0.492c0.145-0.152,0.301-0.227,0.467-0.227
		C479.086,90.301,479.289,90.492,479.289,90.875L479.289,90.875z M479.953,97.648c-0.02,0.115-0.068,0.182-0.143,0.199
		c-0.021,0.004-0.115,0-0.289-0.014c-0.594-0.041-1.178-0.031-1.752,0.023c-0.156,0.018-0.254,0.012-0.293-0.018
		c-0.04-0.027-0.06-0.09-0.06-0.191c0-0.092,0.104-0.168,0.317-0.227c0.23-0.068,0.346-0.287,0.346-0.666v-1.566
		c0-0.314-0.031-0.537-0.095-0.664c-0.088-0.174-0.27-0.309-0.545-0.4c-0.124-0.043-0.186-0.109-0.186-0.197
		c0-0.115,0.09-0.203,0.27-0.258c0.335-0.104,0.632-0.242,0.892-0.412c0.206-0.145,0.334-0.217,0.382-0.217
		c0.16,0,0.239,0.105,0.235,0.312c-0.018,1.045-0.025,2.107-0.025,3.193c0,0.26,0.038,0.445,0.115,0.559
		c0.082,0.123,0.243,0.209,0.479,0.262C479.859,97.428,479.978,97.523,479.953,97.648L479.953,97.648z M479.953,97.648"/>
	<path d="M490.491,97.637c0,0.131-0.062,0.193-0.186,0.188c-0.814-0.061-1.573-0.061-2.274,0c-0.155,0.01-0.233-0.061-0.233-0.209
		c0-0.119,0.106-0.186,0.317-0.193c0.267-0.016,0.401-0.232,0.401-0.652v-1.592c0-0.893-0.362-1.34-1.09-1.34
		c-0.382,0-0.733,0.068-1.054,0.209c-0.291,0.125-0.438,0.246-0.441,0.371l-0.023,2.377c0,0.246,0.029,0.41,0.089,0.49
		c0.043,0.057,0.142,0.094,0.293,0.121c0.351,0.059,0.525,0.131,0.525,0.219c0,0.076-0.009,0.129-0.029,0.154
		c-0.024,0.043-0.095,0.059-0.214,0.055c-0.455-0.014-1.118-0.008-1.988,0.023c-0.124,0.006-0.203-0.004-0.238-0.029
		c-0.036-0.023-0.055-0.078-0.055-0.166c0-0.105,0.114-0.166,0.341-0.193c0.247-0.027,0.372-0.252,0.372-0.674v-1.629
		c0-0.439-0.102-0.777-0.3-1.018c-0.175-0.215-0.399-0.322-0.671-0.322c-0.396,0-0.757,0.08-1.076,0.242
		c-0.318,0.16-0.479,0.334-0.479,0.518v2.184c0,0.246,0.063,0.42,0.192,0.516c0.115,0.088,0.324,0.141,0.629,0.16
		c0.164,0.01,0.246,0.064,0.246,0.17c0,0.113-0.067,0.172-0.2,0.172c-0.995,0-1.718,0.027-2.164,0.084
		c-0.151,0.02-0.25,0.02-0.294,0c-0.035-0.02-0.055-0.068-0.055-0.143c0-0.102,0.149-0.186,0.445-0.26
		c0.179-0.047,0.268-0.279,0.268-0.699v-1.838c0-0.465-0.125-0.734-0.378-0.807c-0.211-0.061-0.339-0.104-0.384-0.131
		c-0.048-0.029-0.07-0.074-0.07-0.139c0-0.07,0.209-0.223,0.623-0.457c0.438-0.244,0.708-0.367,0.809-0.367
		c0.083,0,0.153,0.117,0.211,0.361c0.058,0.24,0.103,0.361,0.135,0.361c0.045,0,0.166-0.061,0.365-0.186
		c0.248-0.154,0.471-0.271,0.67-0.348c0.328-0.127,0.664-0.189,1.013-0.189c0.276,0,0.521,0.059,0.728,0.18
		c0.145,0.078,0.273,0.188,0.389,0.328c0.098,0.119,0.145,0.18,0.145,0.18l0.312-0.18c0.244-0.141,0.481-0.25,0.712-0.328
		c0.339-0.121,0.668-0.18,0.987-0.18c1.095,0,1.639,0.6,1.639,1.801v1.938c0,0.227,0.056,0.391,0.163,0.486
		c0.096,0.078,0.283,0.146,0.561,0.201C490.385,97.496,490.491,97.557,490.491,97.637L490.491,97.637z M490.491,97.637"/>
	<path d="M495.547,96.795c0,0.17-0.232,0.383-0.693,0.639c-0.529,0.283-1.066,0.424-1.623,0.424c-0.602,0-1.109-0.195-1.52-0.592
		c-0.438-0.42-0.657-0.977-0.657-1.676c0-0.789,0.245-1.424,0.734-1.9c0.46-0.447,1.022-0.672,1.688-0.672
		c0.396,0,0.763,0.125,1.107,0.379c0.307,0.221,0.511,0.479,0.609,0.764c0.035,0.102,0.089,0.156,0.161,0.168
		c0.105,0.021,0.157,0.09,0.157,0.209c0,0.164-0.197,0.303-0.588,0.418l-2.758,0.822c0.181,0.949,0.665,1.424,1.461,1.424
		c0.459,0,0.979-0.168,1.566-0.504c0.089-0.051,0.174-0.078,0.258-0.078C495.516,96.619,495.547,96.68,495.547,96.795
		L495.547,96.795z M494.129,94.393c0-0.219-0.088-0.41-0.268-0.576c-0.178-0.166-0.396-0.248-0.654-0.248
		c-0.735,0-1.1,0.527-1.1,1.586v0.145l1.625-0.492C493.996,94.73,494.129,94.592,494.129,94.393L494.129,94.393z M494.129,94.393"/>
</g>
<g>
	<g>
		<path fill="#2AA9E0" d="M570.185,28.734c-1.652,0.733-3.428,1.228-5.291,1.45c1.902-1.14,3.363-2.944,4.051-5.097
			c-1.78,1.057-3.752,1.822-5.851,2.235c-1.681-1.791-4.075-2.909-6.726-2.909c-5.088,0-9.213,4.125-9.213,9.214
			c0,0.722,0.082,1.425,0.238,2.099c-7.656-0.384-14.445-4.052-18.989-9.626c-0.793,1.361-1.247,2.943-1.247,4.632
			c0,3.196,1.626,6.017,4.099,7.669c-1.511-0.048-2.931-0.463-4.173-1.153c-0.002,0.039-0.002,0.078-0.002,0.116
			c0,4.464,3.176,8.188,7.391,9.034c-0.773,0.211-1.586,0.324-2.427,0.324c-0.594,0-1.171-0.059-1.733-0.166
			c1.172,3.66,4.574,6.324,8.606,6.398c-3.153,2.471-7.126,3.944-11.442,3.944c-0.744,0-1.477-0.044-2.197-0.129
			c4.076,2.614,8.92,4.14,14.123,4.14c16.946,0,26.213-14.04,26.213-26.214c0-0.4-0.009-0.797-0.026-1.192
			C567.388,32.204,568.95,30.582,570.185,28.734z"/>
		<g>
			<path fill="#231F20" stroke="#231F20" stroke-miterlimit="10" d="M569.58,32.189h9.731c2.652,0,4.54,0.787,5.661,2.36
				c0.658,0.93,0.987,2.002,0.987,3.217c0,1.421-0.404,2.585-1.211,3.494c-0.419,0.479-1.021,0.92-1.808,1.317
				c1.153,0.44,2.017,0.935,2.589,1.486c1.012,0.98,1.518,2.335,1.518,4.061c0,1.451-0.457,2.763-1.373,3.938
				c-1.366,1.757-3.54,2.635-6.521,2.635h-9.573V32.189z M578.173,41.705c1.301,0,2.312-0.179,3.034-0.536
				c1.136-0.562,1.704-1.573,1.704-3.034c0-1.471-0.604-2.462-1.812-2.973c-0.681-0.286-1.693-0.429-3.035-0.429h-5.496v6.972
				H578.173z M579.203,52.093c1.888,0,3.233-0.542,4.037-1.624c0.505-0.685,0.759-1.512,0.759-2.482
				c0-1.634-0.738-2.748-2.213-3.341c-0.783-0.316-1.82-0.475-3.108-0.475h-6.11v7.922H579.203z"/>
			<path fill="#231F20" stroke="#231F20" stroke-miterlimit="10" d="M601.544,39.925c1.451,1.408,2.176,3.479,2.176,6.216
				c0,2.643-0.639,4.827-1.917,6.552s-3.261,2.587-5.948,2.587c-2.242,0-4.021-0.763-5.341-2.288
				c-1.319-1.526-1.978-3.574-1.978-6.146c0-2.757,0.694-4.95,2.084-6.584c1.39-1.633,3.256-2.449,5.6-2.449
				C598.319,37.812,600.095,38.516,601.544,39.925z M599.832,50.832c0.671-1.382,1.008-2.92,1.008-4.614
				c0-1.53-0.243-2.774-0.728-3.734c-0.768-1.509-2.09-2.265-3.969-2.265c-1.668,0-2.879,0.644-3.637,1.929
				s-1.137,2.836-1.137,4.651c0,1.745,0.379,3.198,1.137,4.362c0.758,1.162,1.959,1.744,3.605,1.744
				C597.921,52.905,599.16,52.213,599.832,50.832z"/>
			<path fill="#231F20" stroke="#231F20" stroke-miterlimit="10" d="M618.433,39.925c1.449,1.408,2.176,3.479,2.176,6.216
				c0,2.643-0.641,4.827-1.918,6.552c-1.278,1.725-3.262,2.587-5.949,2.587c-2.242,0-4.021-0.763-5.34-2.288
				c-1.318-1.526-1.979-3.574-1.979-6.146c0-2.757,0.695-4.95,2.084-6.584c1.391-1.633,3.257-2.449,5.6-2.449
				C615.206,37.812,616.981,38.516,618.433,39.925z M616.72,50.832c0.672-1.382,1.008-2.92,1.008-4.614
				c0-1.53-0.242-2.774-0.728-3.734c-0.769-1.509-2.091-2.265-3.97-2.265c-1.666,0-2.879,0.644-3.637,1.929
				c-0.757,1.285-1.136,2.836-1.136,4.651c0,1.745,0.379,3.198,1.136,4.362c0.758,1.162,1.96,1.744,3.607,1.744
				C614.808,52.905,616.048,52.213,616.72,50.832z"/>
			<path fill="#231F20" stroke="#231F20" stroke-miterlimit="10" d="M623.98,33.706h2.789v4.582h2.62v2.252h-2.62V51.25
				c0,0.571,0.194,0.955,0.582,1.149c0.214,0.112,0.571,0.168,1.073,0.168c0.132,0,0.275-0.003,0.429-0.011
				c0.153-0.006,0.331-0.023,0.536-0.051v2.191c-0.316,0.092-0.646,0.159-0.988,0.199c-0.343,0.041-0.713,0.062-1.111,0.062
				c-1.287,0-2.16-0.329-2.619-0.988c-0.46-0.659-0.69-1.514-0.69-2.567V40.54h-2.222v-2.252h2.222V33.706z"/>
			<path fill="#231F20" stroke="#231F20" stroke-miterlimit="10" d="M633.222,49.549c0.084,0.92,0.318,1.624,0.704,2.115
				c0.709,0.889,1.939,1.333,3.69,1.333c1.043,0,1.96-0.223,2.752-0.667c0.793-0.444,1.189-1.131,1.189-2.062
				c0-0.704-0.316-1.24-0.95-1.608c-0.405-0.225-1.204-0.485-2.397-0.782l-2.228-0.551c-1.422-0.347-2.47-0.735-3.146-1.164
				c-1.204-0.746-1.807-1.778-1.807-3.096c0-1.552,0.567-2.809,1.701-3.769c1.133-0.96,2.658-1.44,4.573-1.44
				c2.505,0,4.312,0.726,5.419,2.175c0.693,0.92,1.03,1.911,1.01,2.973h-2.605c-0.052-0.619-0.277-1.183-0.674-1.69
				c-0.648-0.723-1.772-1.082-3.373-1.082c-1.066,0-1.874,0.198-2.422,0.595c-0.55,0.397-0.824,0.922-0.824,1.573
				c0,0.712,0.36,1.281,1.082,1.71c0.416,0.254,1.03,0.479,1.842,0.673l1.857,0.444c2.02,0.48,3.373,0.944,4.06,1.395
				c1.073,0.704,1.608,1.812,1.608,3.324c0,1.461-0.561,2.722-1.683,3.785c-1.122,1.062-2.831,1.593-5.127,1.593
				c-2.472,0-4.222-0.555-5.251-1.662c-1.029-1.108-1.58-2.479-1.652-4.114H633.222z"/>
			<path fill="#231F20" stroke="#231F20" stroke-miterlimit="10" d="M647.259,33.706h2.789v4.582h2.621v2.252h-2.621V51.25
				c0,0.571,0.194,0.955,0.582,1.149c0.215,0.112,0.572,0.168,1.073,0.168c0.132,0,0.276-0.003,0.429-0.011
				c0.153-0.006,0.332-0.023,0.537-0.051v2.191c-0.318,0.092-0.646,0.159-0.989,0.199c-0.342,0.041-0.712,0.062-1.11,0.062
				c-1.287,0-2.16-0.329-2.62-0.988s-0.69-1.514-0.69-2.567V40.54h-2.221v-2.252h2.221V33.706z"/>
			<path fill="#231F20" stroke="#231F20" stroke-miterlimit="10" d="M654.938,38.288h2.619v2.835
				c0.215-0.552,0.741-1.224,1.579-2.016c0.837-0.791,1.803-1.187,2.896-1.187c0.051,0,0.139,0.004,0.261,0.015
				c0.123,0.011,0.332,0.03,0.628,0.062v2.911c-0.163-0.031-0.314-0.051-0.451-0.062c-0.139-0.01-0.289-0.016-0.453-0.016
				c-1.389,0-2.456,0.447-3.202,1.341c-0.745,0.895-1.118,1.924-1.118,3.087v9.439h-2.758V38.288z"/>
			<path fill="#231F20" stroke="#231F20" stroke-miterlimit="10" d="M673.542,44.766c0.633-0.081,1.057-0.346,1.271-0.795
				c0.123-0.246,0.184-0.6,0.184-1.062c0-0.943-0.334-1.627-1.002-2.053s-1.623-0.639-2.866-0.639c-1.438,0-2.458,0.39-3.06,1.17
				c-0.336,0.432-0.555,1.073-0.656,1.925h-2.574c0.051-2.028,0.705-3.439,1.966-4.233c1.261-0.793,2.722-1.19,4.385-1.19
				c1.928,0,3.495,0.367,4.698,1.104c1.194,0.735,1.791,1.879,1.791,3.433v9.453c0,0.287,0.059,0.518,0.176,0.689
				c0.117,0.174,0.365,0.26,0.744,0.26c0.121,0,0.26-0.007,0.413-0.022s0.316-0.038,0.49-0.068v2.037
				c-0.429,0.123-0.757,0.2-0.981,0.23s-0.531,0.046-0.919,0.046c-0.95,0-1.64-0.338-2.067-1.012
				c-0.226-0.356-0.384-0.862-0.476-1.517c-0.562,0.735-1.369,1.375-2.421,1.916c-1.053,0.541-2.212,0.812-3.479,0.812
				c-1.521,0-2.766-0.463-3.73-1.387c-0.966-0.923-1.448-2.078-1.448-3.466c0-1.521,0.475-2.698,1.425-3.534
				c0.949-0.837,2.196-1.353,3.738-1.546L673.542,44.766z M667.734,52.217c0.583,0.459,1.272,0.688,2.068,0.688
				c0.97,0,1.91-0.225,2.819-0.673c1.532-0.744,2.299-1.964,2.299-3.656v-2.218c-0.337,0.215-0.771,0.395-1.301,0.537
				c-0.529,0.145-1.05,0.246-1.559,0.308l-1.668,0.214c-0.998,0.133-1.75,0.342-2.254,0.627c-0.852,0.479-1.279,1.244-1.279,2.294
				C666.86,51.131,667.152,51.758,667.734,52.217z"/>
			<path fill="#231F20" stroke="#231F20" stroke-miterlimit="10" d="M681.404,38.365h2.696v2.175
				c0.553-0.745,1.157-1.322,1.812-1.73c0.932-0.614,2.027-0.92,3.288-0.92c1.864,0,3.446,0.712,4.747,2.138
				c1.301,1.425,1.951,3.46,1.951,6.105c0,3.576-0.939,6.129-2.815,7.661c-1.19,0.971-2.574,1.457-4.153,1.457
				c-1.24,0-2.281-0.271-3.123-0.812c-0.492-0.308-1.041-0.833-1.646-1.578v8.381h-2.758V38.365z M691.78,51.227
				c0.855-1.077,1.284-2.688,1.284-4.834c0-1.308-0.189-2.431-0.569-3.371c-0.717-1.809-2.029-2.712-3.936-2.712
				c-1.917,0-3.229,0.955-3.936,2.865c-0.38,1.021-0.568,2.318-0.568,3.892c0,1.268,0.188,2.345,0.568,3.233
				c0.717,1.695,2.029,2.543,3.936,2.543C689.851,52.843,690.925,52.305,691.78,51.227z"/>
		</g>
	</g>
	<g>
		<path fill="#0769AD" d="M598.261,100.176c-0.009,0.282-0.028,0.574-0.065,0.883l1.149-2.083l-0.127-0.679l1.154-0.177l0.419,2.887
			l0.531-1.81c0.042-0.177,0.063-0.309,0.068-0.441s-0.008-0.274-0.055-0.468l1.209-0.229c0.044,0.247,0.072,0.459,0.064,0.68
			c-0.011,0.291-0.084,0.609-0.285,1.085l-0.974,2.613h-1.438l-0.303-1.951l-1.127,1.951h-1.395
			c0.055-1.818-0.011-2.957-0.137-4.149l1.197-0.185C598.24,98.764,598.287,99.426,598.261,100.176L598.261,100.176z"/>
		<path fill="#0769AD" d="M605.753,99.179c-0.558,0.3-0.765,0.415-1.27,0.724l-0.538,2.533h-1.244l0.878-4.193l1.101-0.186
			l-0.047,0.583c0.424-0.248,0.766-0.424,1.142-0.583L605.753,99.179L605.753,99.179z"/>
		<path fill="#0769AD" d="M606.894,96.336l1.285-0.176l-0.284,1.324l-1.277,0.176L606.894,96.336L606.894,96.336z M606.491,98.234
			l1.286-0.177l-0.93,4.378h-1.244L606.491,98.234L606.491,98.234z"/>
		<path fill="#0769AD" d="M610.068,99.135l-0.454,2.145c-0.01,0.044-0.021,0.088-0.021,0.115c-0.002,0.062,0.032,0.089,0.121,0.089
			c0.212,0,0.452-0.089,0.677-0.177l0.217,0.866c-0.36,0.194-0.878,0.353-1.381,0.353c-0.626,0-0.951-0.3-0.933-0.812
			c0.001-0.062,0.013-0.124,0.023-0.185l0.508-2.392h-0.636l0.211-0.997h0.636l0.212-1.033l1.286-0.176l-0.254,1.209h1.023
			l-0.282,0.997H610.068L610.068,99.135z"/>
		<path fill="#0769AD" d="M613.815,99.258c0.005-0.15-0.124-0.247-0.354-0.247c-0.45,0-0.592,0.256-0.665,0.609l-0.063,0.3
			c0.214-0.053,0.311-0.07,0.569-0.15C613.643,99.673,613.807,99.514,613.815,99.258L613.815,99.258z M611.551,99.673
			c0.21-0.988,0.674-1.624,2.033-1.624c0.812,0,1.417,0.353,1.392,1.077c-0.029,0.838-0.475,1.227-1.545,1.545
			c-0.526,0.159-0.535,0.159-0.909,0.255l-0.063,0.3c-0.032,0.159-0.02,0.3,0.21,0.3c0.45,0,1.111-0.221,1.702-0.477l0.208,0.883
			c-0.532,0.326-1.362,0.591-2.121,0.591c-0.892,0-1.258-0.389-1.232-1.121c0.006-0.159,0.03-0.335,0.072-0.521L611.551,99.673
			L611.551,99.673z"/>
		<polygon fill="#0769AD" points="618.186,96.381 619.472,96.205 618.16,102.436 616.916,102.436 618.186,96.381 		"/>
		<path fill="#0769AD" d="M621.897,99.258c0.006-0.15-0.123-0.247-0.353-0.247c-0.45,0-0.592,0.256-0.666,0.609l-0.062,0.3
			c0.213-0.053,0.311-0.07,0.569-0.15C621.725,99.673,621.889,99.514,621.897,99.258L621.897,99.258z M619.634,99.673
			c0.21-0.988,0.674-1.624,2.032-1.624c0.812,0,1.418,0.353,1.393,1.077c-0.029,0.838-0.476,1.227-1.546,1.545
			c-0.525,0.159-0.534,0.159-0.908,0.255l-0.063,0.3c-0.032,0.159-0.02,0.3,0.21,0.3c0.45,0,1.11-0.221,1.702-0.477l0.207,0.883
			c-0.532,0.326-1.361,0.591-2.12,0.591c-0.893,0-1.259-0.389-1.232-1.121c0.006-0.159,0.029-0.335,0.071-0.521L619.634,99.673
			L619.634,99.673z"/>
		<path fill="#0769AD" d="M623.161,102.242l0.271-0.918c0.322,0.116,0.689,0.221,1.156,0.221c0.416,0,0.445-0.124,0.488-0.327
			c0.042-0.194-0.078-0.3-0.554-0.556c-0.884-0.477-0.907-0.794-0.771-1.438c0.2-0.927,0.482-1.174,1.674-1.174
			c0.405,0,0.923,0.088,1.272,0.203l-0.236,0.936c-0.314-0.088-0.779-0.159-1.079-0.159c-0.371,0-0.426,0.044-0.479,0.273
			c-0.041,0.204,0.001,0.248,0.408,0.468c0.97,0.53,1.113,0.715,0.966,1.395c-0.21,0.971-0.506,1.359-1.795,1.359
			C624.087,102.524,623.535,102.409,623.161,102.242L623.161,102.242z"/>
		<path fill="#0769AD" d="M626.727,102.242l0.271-0.918c0.322,0.116,0.688,0.221,1.157,0.221c0.414,0,0.445-0.124,0.487-0.327
			c0.042-0.194-0.078-0.3-0.554-0.556c-0.884-0.477-0.908-0.794-0.771-1.438c0.2-0.927,0.482-1.174,1.674-1.174
			c0.405,0,0.923,0.088,1.272,0.203l-0.236,0.936c-0.314-0.088-0.779-0.159-1.079-0.159c-0.371,0-0.426,0.044-0.479,0.273
			c-0.042,0.204,0.001,0.248,0.407,0.468c0.971,0.53,1.114,0.715,0.967,1.395c-0.21,0.971-0.506,1.359-1.795,1.359
			C627.652,102.524,627.101,102.409,626.727,102.242L626.727,102.242z"/>
		<polygon fill="#0769AD" points="630.136,103.398 630.85,102.436 630.382,102.436 630.688,100.971 631.933,100.971 
			631.596,102.542 630.573,103.76 630.136,103.398 		"/>
		<path fill="#0769AD" d="M635.801,101.147c-0.052,0.229,0.006,0.335,0.227,0.335c0.441,0,0.767-0.23,1.013-0.441l0.401-1.916
			c-0.141-0.026-0.307-0.036-0.483-0.036c-0.645,0-0.789,0.345-0.883,0.76L635.801,101.147L635.801,101.147z M636.938,102.436
			l-0.022-0.371c-0.317,0.256-0.766,0.459-1.384,0.459c-0.935,0-1.145-0.565-0.943-1.527l0.243-1.156
			c0.213-1.023,0.504-1.792,2.313-1.792c0.132,0,0.405,0.018,0.519,0.044l0.36-1.712l1.276-0.176l-1.312,6.231H636.938
			L636.938,102.436z"/>
		<path fill="#0769AD" d="M642.067,99.576c0.011-0.318-0.177-0.486-0.583-0.486c-0.468,0-0.75,0.239-0.835,0.662l-0.223,1.068
			c-0.012,0.062-0.021,0.124-0.023,0.176c-0.011,0.309,0.177,0.486,0.583,0.486c0.477,0,0.749-0.238,0.834-0.662l0.224-1.068
			C642.054,99.691,642.065,99.629,642.067,99.576L642.067,99.576z M639.146,101.085c0.003-0.097,0.017-0.203,0.037-0.3l0.212-0.998
			c0.231-1.103,0.793-1.738,2.293-1.738c1.156,0,1.653,0.662,1.627,1.43c-0.004,0.097-0.017,0.203-0.037,0.309l-0.211,0.998
			c-0.222,1.033-0.741,1.739-2.304,1.739C639.67,102.524,639.119,101.871,639.146,101.085L639.146,101.085z"/>
		<path fill="#0769AD" d="M650.912,99.514c0.011-0.053,0.021-0.097,0.021-0.132c0.003-0.088-0.039-0.124-0.163-0.124
			c-0.229,0-0.776,0.229-1.135,0.415l-0.582,2.763h-1.235l0.613-2.922c0.011-0.053,0.021-0.097,0.022-0.132
			c0.003-0.088-0.04-0.124-0.163-0.124c-0.229,0-0.785,0.229-1.126,0.406l-0.582,2.772h-1.245l0.88-4.193l1.101-0.186l-0.025,0.477
			c0.682-0.318,1.217-0.485,1.711-0.485c0.424,0,0.638,0.185,0.724,0.503c0.666-0.38,1.262-0.503,1.756-0.503
			c0.574,0,0.774,0.326,0.755,0.874c-0.005,0.15-0.02,0.318-0.061,0.495l-0.636,3.019h-1.244L650.912,99.514L650.912,99.514z"/>
		<path fill="#0769AD" d="M655.577,99.576c0.011-0.318-0.178-0.486-0.584-0.486c-0.467,0-0.75,0.239-0.834,0.662l-0.223,1.068
			c-0.011,0.062-0.022,0.124-0.023,0.176c-0.012,0.309,0.177,0.486,0.582,0.486c0.478,0,0.75-0.238,0.836-0.662l0.222-1.068
			C655.564,99.691,655.574,99.629,655.577,99.576L655.577,99.576z M652.656,101.085c0.004-0.097,0.016-0.203,0.037-0.3l0.212-0.998
			c0.231-1.103,0.793-1.738,2.293-1.738c1.156,0,1.653,0.662,1.627,1.43c-0.004,0.097-0.017,0.203-0.038,0.309l-0.211,0.998
			c-0.222,1.033-0.74,1.739-2.302,1.739C653.18,102.524,652.629,101.871,652.656,101.085L652.656,101.085z"/>
		<path fill="#0769AD" d="M660.127,99.179c-0.558,0.3-0.766,0.415-1.27,0.724l-0.539,2.533h-1.244l0.879-4.193l1.101-0.186
			l-0.047,0.583c0.424-0.248,0.766-0.424,1.141-0.583L660.127,99.179L660.127,99.179z"/>
		<path fill="#0769AD" d="M662.674,99.258c0.006-0.15-0.123-0.247-0.353-0.247c-0.45,0-0.592,0.256-0.666,0.609l-0.063,0.3
			c0.214-0.053,0.312-0.07,0.57-0.15C662.501,99.673,662.665,99.514,662.674,99.258L662.674,99.258z M660.41,99.673
			c0.21-0.988,0.674-1.624,2.033-1.624c0.812,0,1.416,0.353,1.392,1.077c-0.03,0.838-0.476,1.227-1.546,1.545
			c-0.526,0.159-0.534,0.159-0.909,0.255l-0.062,0.3c-0.033,0.159-0.02,0.3,0.21,0.3c0.449,0,1.111-0.221,1.702-0.477l0.207,0.883
			c-0.532,0.326-1.362,0.591-2.12,0.591c-0.892,0-1.258-0.389-1.232-1.121c0.005-0.159,0.03-0.335,0.071-0.521L660.41,99.673
			L660.41,99.673z"/>
		<g>
			<defs>
				<rect id="SVGID_2_" x="548.776" y="71.105" width="128.479" height="32.654"/>
			</defs>
			<clipPath id="SVGID_3_">
				<use xlink:href="#SVGID_2_"  overflow="visible"/>
			</clipPath>
			<polygon clip-path="url(#SVGID_3_)" fill="#0769AD" points="664.344,100.971 665.588,100.971 665.281,102.436 664.036,102.436 
				664.344,100.971 			"/>
			<path clip-path="url(#SVGID_3_)" fill="#0769AD" d="M550.286,77.31c-2.104,3.022-1.844,6.953-0.234,10.165
				c0.036,0.078,0.077,0.153,0.117,0.229c0.022,0.049,0.048,0.098,0.075,0.146c0.013,0.026,0.031,0.056,0.047,0.082
				c0.025,0.053,0.054,0.101,0.081,0.151c0.052,0.087,0.103,0.175,0.155,0.262c0.029,0.048,0.057,0.097,0.089,0.145
				c0.056,0.093,0.119,0.185,0.176,0.278c0.026,0.04,0.05,0.079,0.078,0.117c0.082,0.126,0.165,0.25,0.256,0.372
				c0,0.003,0.004,0.007,0.007,0.008c0.015,0.021,0.029,0.041,0.043,0.06c0.078,0.106,0.155,0.21,0.236,0.312
				c0.027,0.038,0.059,0.076,0.087,0.113c0.073,0.09,0.146,0.179,0.218,0.268c0.028,0.032,0.056,0.065,0.085,0.098
				c0.097,0.116,0.198,0.232,0.302,0.346c0,0.001,0.003,0.004,0.005,0.006c0.003,0.005,0.007,0.009,0.014,0.013
				c0.101,0.109,0.201,0.217,0.305,0.324c0.033,0.033,0.065,0.065,0.102,0.099c0.08,0.08,0.159,0.161,0.243,0.24
				c0.035,0.033,0.069,0.065,0.102,0.097c0.11,0.104,0.221,0.207,0.336,0.306c0.002,0.002,0.004,0.003,0.005,0.005
				c0.02,0.016,0.04,0.032,0.058,0.048c0.102,0.087,0.203,0.173,0.307,0.259c0.041,0.034,0.082,0.067,0.124,0.101
				c0.086,0.068,0.172,0.133,0.258,0.199c0.045,0.033,0.09,0.068,0.137,0.103c0.093,0.07,0.189,0.138,0.284,0.205
				c0.034,0.025,0.068,0.05,0.104,0.073c0.009,0.008,0.02,0.015,0.028,0.021c0.095,0.062,0.184,0.122,0.277,0.184
				c0.041,0.026,0.081,0.053,0.12,0.079c0.146,0.092,0.29,0.181,0.433,0.267c0.041,0.022,0.082,0.045,0.122,0.068
				c0.107,0.062,0.216,0.124,0.326,0.182c0.06,0.034,0.12,0.063,0.183,0.094c0.074,0.041,0.151,0.082,0.23,0.122
				c0.019,0.008,0.038,0.015,0.056,0.024c0.032,0.015,0.063,0.031,0.094,0.046c0.121,0.06,0.245,0.116,0.373,0.172
				c0.023,0.011,0.05,0.021,0.075,0.035c0.144,0.062,0.286,0.121,0.433,0.179c0.034,0.013,0.069,0.028,0.104,0.041
				c0.134,0.052,0.271,0.102,0.407,0.151c0.018,0.007,0.032,0.012,0.05,0.018c0.151,0.052,0.302,0.101,0.455,0.148
				c0.036,0.011,0.072,0.023,0.11,0.033c0.156,0.047,0.308,0.102,0.468,0.132c10.17,1.854,13.125-6.111,13.125-6.111
				c-2.482,3.23-6.888,4.084-11.061,3.135c-0.155-0.035-0.309-0.084-0.465-0.131c-0.036-0.01-0.078-0.022-0.114-0.035
				c-0.151-0.046-0.301-0.095-0.448-0.145c-0.02-0.006-0.042-0.014-0.063-0.023c-0.132-0.045-0.264-0.096-0.394-0.146
				c-0.037-0.016-0.074-0.028-0.111-0.042c-0.145-0.056-0.287-0.118-0.427-0.179c-0.031-0.011-0.058-0.024-0.087-0.036
				c-0.121-0.057-0.238-0.111-0.357-0.168c-0.036-0.015-0.069-0.032-0.105-0.051c-0.093-0.043-0.186-0.093-0.277-0.141
				c-0.063-0.033-0.126-0.063-0.186-0.096c-0.112-0.061-0.225-0.124-0.337-0.187c-0.034-0.023-0.071-0.043-0.111-0.064
				c-0.145-0.086-0.291-0.175-0.435-0.266c-0.041-0.026-0.079-0.052-0.117-0.079c-0.104-0.066-0.208-0.136-0.31-0.205
				c-0.033-0.023-0.065-0.047-0.101-0.071c-0.098-0.069-0.194-0.139-0.292-0.21c-0.042-0.032-0.085-0.065-0.13-0.098
				c-0.088-0.068-0.176-0.135-0.264-0.206c-0.038-0.032-0.077-0.063-0.115-0.094c-0.113-0.091-0.221-0.183-0.329-0.278
				c-0.011-0.011-0.025-0.021-0.038-0.03c-0.115-0.103-0.23-0.208-0.344-0.314c-0.035-0.033-0.063-0.063-0.099-0.094
				c-0.082-0.081-0.165-0.16-0.246-0.242c-0.034-0.034-0.065-0.066-0.099-0.099c-0.104-0.104-0.205-0.212-0.305-0.322
				c-0.005-0.004-0.01-0.009-0.016-0.015c-0.105-0.116-0.206-0.233-0.308-0.352c-0.028-0.032-0.054-0.064-0.081-0.096
				c-0.074-0.091-0.148-0.183-0.225-0.275c-0.024-0.035-0.052-0.069-0.079-0.103c-0.088-0.113-0.172-0.226-0.257-0.342
				c-2.315-3.158-3.15-7.518-1.299-11.096"/>
		</g>
		<path fill="#0769AD" d="M556.815,74.763c-1.525,2.188-1.44,5.118-0.254,7.433c0.196,0.388,0.421,0.765,0.672,1.122
			c0.228,0.327,0.479,0.715,0.784,0.978c0.106,0.12,0.222,0.237,0.341,0.355c0.029,0.029,0.059,0.058,0.09,0.089
			c0.114,0.109,0.229,0.217,0.348,0.322c0.004,0.004,0.011,0.009,0.015,0.013c0.001,0.001,0.003,0.003,0.003,0.003
			c0.133,0.117,0.267,0.228,0.406,0.336c0.033,0.023,0.062,0.049,0.095,0.073c0.139,0.107,0.279,0.211,0.423,0.312
			c0.005,0.001,0.008,0.005,0.016,0.008c0.062,0.045,0.127,0.086,0.194,0.129c0.029,0.019,0.06,0.041,0.09,0.06
			c0.104,0.067,0.208,0.131,0.314,0.194c0.016,0.007,0.031,0.016,0.047,0.024c0.09,0.054,0.184,0.107,0.279,0.156
			c0.032,0.02,0.065,0.036,0.098,0.054c0.065,0.032,0.131,0.067,0.194,0.101c0.009,0.004,0.021,0.009,0.031,0.014
			c0.135,0.066,0.271,0.128,0.405,0.189c0.033,0.013,0.061,0.024,0.091,0.037c0.111,0.047,0.223,0.094,0.333,0.136
			c0.05,0.016,0.097,0.036,0.143,0.052c0.102,0.036,0.205,0.071,0.307,0.105c0.051,0.017,0.095,0.03,0.14,0.045
			c0.146,0.045,0.292,0.104,0.444,0.128c7.85,1.302,9.665-4.744,9.665-4.744c-1.635,2.354-4.8,3.476-8.177,2.6
			c-0.151-0.039-0.299-0.083-0.444-0.13c-0.046-0.012-0.087-0.026-0.132-0.042c-0.105-0.034-0.211-0.069-0.312-0.106
			c-0.046-0.018-0.095-0.035-0.141-0.053c-0.112-0.044-0.225-0.087-0.333-0.135c-0.032-0.013-0.063-0.024-0.09-0.038
			c-0.139-0.061-0.277-0.125-0.411-0.189c-0.069-0.035-0.136-0.07-0.205-0.106c-0.041-0.021-0.081-0.041-0.117-0.059
			c-0.092-0.047-0.176-0.098-0.262-0.148c-0.021-0.011-0.042-0.022-0.062-0.034c-0.104-0.063-0.214-0.127-0.313-0.193
			c-0.034-0.02-0.063-0.042-0.097-0.063c-0.068-0.043-0.136-0.088-0.206-0.135c-0.144-0.1-0.283-0.204-0.423-0.31
			c-0.032-0.026-0.063-0.051-0.094-0.077c-1.482-1.166-2.653-2.762-3.208-4.568c-0.586-1.876-0.457-3.982,0.553-5.69"/>
		<path fill="#0769AD" d="M562.304,72.86c-0.899,1.319-0.985,2.959-0.365,4.415c0.658,1.547,2.003,2.761,3.571,3.335
			c0.063,0.025,0.128,0.046,0.193,0.068c0.029,0.009,0.057,0.018,0.088,0.027c0.091,0.029,0.183,0.063,0.277,0.081
			c4.336,0.838,5.511-2.225,5.826-2.675c-1.032,1.483-2.764,1.839-4.888,1.323c-0.167-0.041-0.35-0.101-0.512-0.16
			c-0.207-0.073-0.411-0.158-0.611-0.252c-0.374-0.182-0.736-0.4-1.07-0.653c-1.901-1.442-3.08-4.192-1.84-6.433"/>
		<path fill="#333333" d="M662.779,79.042l0.17,0.718c0.048,0.206-0.082,0.373-0.293,0.373"/>
		<path fill="#333333" d="M649.101,77.808c-0.043,0.199-0.095,0.451-0.129,0.617l-1.501,7.023l1.578-7.398L649.101,77.808
			L649.101,77.808z"/>
		<polygon fill="#333333" points="604.146,82.508 603.317,85.442 604.146,82.509 604.146,82.508 		"/>
		<g>
			<defs>
				<rect id="SVGID_4_" x="548.776" y="71.105" width="128.479" height="32.654"/>
			</defs>
			<clipPath id="SVGID_5_">
				<use xlink:href="#SVGID_4_"  overflow="visible"/>
			</clipPath>
			<path clip-path="url(#SVGID_5_)" fill="#333333" d="M662.949,79.76l-0.433-1.829c-0.341-1.323-1.307-1.948-3.479-1.948h-9.137
				c-0.21,0-0.42,0.095-0.464,0.301l-3.466,16.438c-0.045,0.208-0.059,0.355-0.035,0.458c0.025,0.106,0.432,0.086,0.64,0.086h3.165
				c0.212,0,0.597,0.016,0.708-0.029c0.117-0.048,0.169-0.362,0.212-0.569l1.118-5.764l1.366-6.393
				c0.045-0.205,0.251-0.373,0.462-0.373l9.049-0.006C662.865,80.132,662.997,79.965,662.949,79.76"/>
			<path clip-path="url(#SVGID_5_)" fill="#333333" d="M675.823,73.096c-0.212,0.003-4.014,0-4.014,0c-0.21,0-0.48,0.226-0.598,0.4
				l-7.045,10.364c-0.12,0.174-0.256,0.168-0.303-0.037l-0.521-2.271c-0.044-0.206-0.254-0.374-0.468-0.374h-4.528
				c-0.208,0-0.334,0.174-0.278,0.377l2.029,7.116c0.059,0.204,0.063,0.537,0.012,0.74l-0.946,3.604
				c-0.05,0.204,0.079,0.265,0.292,0.265h4.472c0.21,0,0.427-0.061,0.479-0.265l0.947-3.655c0.052-0.204,0.197-0.481,0.323-0.651
				l11.497-15.247c0.129-0.167,0.11-0.367-0.1-0.367L675.823,73.096L675.823,73.096z"/>
		</g>
		<path fill="#333333" d="M628.682,75.997h-4.086c-0.208,0-0.422,0.073-0.464,0.28l-1.351,6.32l-1.346,6.051
			c-0.043,0.205-0.251,0.191-0.462,0.191h-2.685c-2.657,0-2.351-1.679-1.804-4.195c0.006-0.024,1.703-8.367,1.703-8.367
			c0.038-0.206-0.101-0.28-0.309-0.28h-3.893c-0.21,0-0.42,0.074-0.46,0.28l-1.566,8.361c-0.781,4.521-0.805,8.499,4.438,8.63
			c0.087,0.003,8.278,0,8.278,0c0.212,0,0.42-0.07,0.465-0.273l1.777-8.385l1.771-8.42C628.69,76.189,628.753,75.997,628.682,75.997
			L628.682,75.997z"/>
		<path fill="#333333" d="M587.98,75.983h-4.382c-0.21,0-0.422,0.05-0.468,0.257l-0.791,3.42c-0.045,0.203,0.089,0.364,0.301,0.364
			h4.195c0.212,0,0.422-0.191,0.467-0.395l0.762-3.446C588.064,76.183,588.125,75.983,587.98,75.983L587.98,75.983z"/>
		<path fill="#333333" d="M582.357,81.178c-0.209,0-0.423,0.166-0.468,0.372l-0.591,2.609l-1.318,6.025c0,0-0.701,3.203-0.768,3.404
			c0,0-0.591,2.312-2.001,2.219c-0.656-0.043-1.407-0.194-1.407-0.194h-0.002c-0.394-0.119-0.422,0.291-0.47,0.495l-0.87,3.754
			c-0.05,0.206,0.085,0.39,0.293,0.394c0,0,1.887,0.265,3.218,0.265h0.219c3.291,0,5.029-1.935,6.141-7.188l1.302-6.08l1.222-5.658
			c0.045-0.206-0.079-0.397-0.289-0.397"/>
		<g>
			<defs>
				<rect id="SVGID_6_" x="548.776" y="71.105" width="128.479" height="32.654"/>
			</defs>
			<clipPath id="SVGID_7_">
				<use xlink:href="#SVGID_6_"  overflow="visible"/>
			</clipPath>
			<path clip-path="url(#SVGID_7_)" fill="#333333" d="M640.965,83.189c0,0.229-0.722,0.185-0.722,0.185l-5.745-0.042
				c-0.198,0-0.255-0.278-0.269-0.478c-0.001-0.006,0.014-0.239,0.031-0.296c0.443-1.541,1.769-2.42,3.869-2.42
				c2.363,0,2.868,1.172,2.868,2.472 M639.021,75.958c-7.369,0-9.128,4.555-10.107,9.07c-0.979,4.603-0.895,8.242,6.73,8.242h0.275
				c3.025,0,6.701,0,6.701,0c0.206-0.004,0.412-0.193,0.454-0.397l0.75-2.92c0.043-0.207-0.097-0.267-0.305-0.267h-6.858
				c-2.484,0-3.373-0.766-3.287-2.484c-0.002-0.195,0.223-0.693,0.433-0.693h10.563c0.464-0.003,0.479-0.274,0.479-0.274
				C645.926,81.379,645.995,75.958,639.021,75.958"/>
			<path clip-path="url(#SVGID_7_)" fill="#333333" d="M603.278,85.442l-0.85,2.903c-0.059,0.203-0.298,0.339-0.509,0.339h-4.381
				c-3.324,0-4.133-2.569-3.324-6.403c0.812-3.919,2.419-6.344,5.688-6.59c4.471-0.336,5.386,2.82,4.302,6.449L603.278,85.442
				L603.278,85.442z M607.172,88.519c0,0,2.063-5.014,2.532-7.912c0.641-3.878-1.299-9.502-8.8-9.502
				c-7.456,0-10.691,5.369-11.931,11.207c-1.233,5.879,0.382,10.999,7.797,10.958l11.317-0.007c0.208,0,0.426-0.169,0.479-0.37
				l0.954-3.633c0.052-0.205-0.078-0.371-0.289-0.372l-0.912-0.007l-0.911-0.004c-0.179-0.002-0.282-0.118-0.259-0.272
				C607.154,88.575,607.158,88.548,607.172,88.519"/>
		</g>
	</g>
</g>
<path fill="none" d="M0,114c0,0,234,38.333,400,37.5S800,114,800,114"/>
<text transform="matrix(0.9901 0.14 -0.14 0.9901 49.6714 121.5)"><tspan x="0" y="0" font-family="'MyriadPro-Regular'" font-size="24">F</tspan><tspan x="11.691" y="-0.002" font-family="'MyriadPro-Regular'" font-size="24" rotate="-0.146">r</tspan><tspan x="19.529" y="-0.018" font-family="'MyriadPro-Regular'" font-size="24" rotate="-0.3">o</tspan><tspan x="32.702" y="-0.087" font-family="'MyriadPro-Regular'" font-size="24" rotate="-0.493">n</tspan><tspan x="45.991" y="-0.205" font-family="'MyriadPro-Regular'" font-size="24" rotate="-0.647">t</tspan><tspan x="53.948" y="-0.297" font-family="'MyriadPro-Regular'" font-size="24" rotate="-0.743"> </tspan><tspan x="59.014" y="-0.359" font-family="'MyriadPro-Regular'" font-size="24" rotate="-0.868">E</tspan><tspan x="70.804" y="-0.535" font-family="'MyriadPro-Regular'" font-size="24" rotate="-1.055">n</tspan><tspan x="84.113" y="-0.781" font-family="'MyriadPro-Regular'" font-size="24" rotate="-1.26">d</tspan></text>
</svg>
