<?xml version="1.0" encoding="utf-8"?>
<!-- Generator: Adobe Illustrator 14.0.0, SVG Export Plug-In . SVG Version: 6.00 Build 43363)  -->
<!DOCTYPE svg PUBLIC "-//W3C//DTD SVG 1.1//EN" "http://www.w3.org/Graphics/SVG/1.1/DTD/svg11.dtd" [
	<!ENTITY ns_extend "http://ns.adobe.com/Extensibility/1.0/">
	<!ENTITY ns_ai "http://ns.adobe.com/AdobeIllustrator/10.0/">
	<!ENTITY ns_graphs "http://ns.adobe.com/Graphs/1.0/">
	<!ENTITY ns_vars "http://ns.adobe.com/Variables/1.0/">
	<!ENTITY ns_imrep "http://ns.adobe.com/ImageReplacement/1.0/">
	<!ENTITY ns_sfw "http://ns.adobe.com/SaveForWeb/1.0/">
	<!ENTITY ns_custom "http://ns.adobe.com/GenericCustomNamespace/1.0/">
	<!ENTITY ns_adobe_xpath "http://ns.adobe.com/XPath/1.0/">
]>
<svg version="1.1" id="Layer_1" xmlns:x="&ns_extend;" xmlns:i="&ns_ai;" xmlns:graph="&ns_graphs;"
	 xmlns="http://www.w3.org/2000/svg" xmlns:xlink="http://www.w3.org/1999/xlink" x="0px" y="0px" width="181.314px"
	 height="199.287px" viewBox="0 0 181.314 199.287" enable-background="new 0 0 181.314 199.287" xml:space="preserve">
<metadata>
	<sfw  xmlns="&ns_sfw;">
		<slices></slices>
		<sliceSourceBounds  height="189.573" width="170.682" x="27.186" y="68.713" bottomLeftOrigin="true"></sliceSourceBounds>
	</sfw>
</metadata>
<g id="wSw5q8.tif">
	<g>
		<path fill-rule="evenodd" clip-rule="evenodd" d="M29.48,23.447c0-0.611,0-1.222,0-1.833c-1.824-0.93-2.341-1.912-4.683-2.239
			C26.187,17.803,31.65,20.971,29.48,23.447z"/>
		<path fill-rule="evenodd" clip-rule="evenodd" d="M47.196,35.257c0.457,0.357,1.125,0.505,1.629,0.815
			C48.291,36.592,47.178,35.964,47.196,35.257z"/>
		<path fill-rule="evenodd" clip-rule="evenodd" d="M63.689,47.271c0.377-0.495,0.137,1.342,0.204,1.832
			C63.516,49.599,63.755,47.762,63.689,47.271z"/>
		<path fill-rule="evenodd" clip-rule="evenodd" d="M114.798,55.416c0.057-0.472,0.545-0.468,0.814-0.204c1.357,0,2.715,0,4.072,0
			c0.68,0,1.358,0,2.037,0c0.609-0.14,1.889,0.195,0.611,0.204C119.91,55.385,116.562,55.46,114.798,55.416z"/>
		<path fill-rule="evenodd" clip-rule="evenodd" d="M101.97,55.619c-0.038,0.573-0.354,0.868-1.018,0.815
			C101.226,56.098,101.473,55.732,101.97,55.619z"/>
		<path fill-rule="evenodd" clip-rule="evenodd" d="M94.64,56.638c-2.092,0.258-7.123,0.464-7.941,0
			C88.724,56.755,92.505,56.396,94.64,56.638z"/>
		<path fill-rule="evenodd" clip-rule="evenodd" d="M65.929,59.081c-5.199,0.106-8.813,1.728-14.254,1.019
			C57.814,59.547,61.5,58.853,65.929,59.081z"/>
		<path fill-rule="evenodd" clip-rule="evenodd" d="M146.564,58.878c-0.145,0.738-1.484,0.28-2.24,0.407
			C144.628,58.387,145.855,59.505,146.564,58.878z"/>
		<path fill-rule="evenodd" clip-rule="evenodd" d="M49.639,60.507c-1.558,0.248-5.068,0.795-7.737,0.61
			c-1.282-0.088-1.329-0.161,0.204-0.203c0.611,0,1.222,0,1.833,0C44.575,59.96,47.599,60.264,49.639,60.507z"/>
		<path fill-rule="evenodd" clip-rule="evenodd" d="M31.313,61.524c1.766-0.474,4.411-0.068,6.516-0.203
			C36.264,62.023,33.357,61.707,31.313,61.524z"/>
		<path fill-rule="evenodd" clip-rule="evenodd" d="M29.277,61.932c-0.818,0.472-2.508,0.071-3.665,0.204
			C26.682,61.527,28.134,61.802,29.277,61.932z"/>
		<path fill-rule="evenodd" clip-rule="evenodd" d="M22.761,62.339c1.206,0.287,1.848,1.139,3.054,1.426
			c0.747,0.438-1.139-0.076-1.018,0.407c-0.276-0.199-0.264-0.687-0.611-0.814c-0.239,0.033-0.172,0.371-0.204,0.61
			C23.88,63.121,22.742,63.309,22.761,62.339z"/>
		<path fill-rule="evenodd" clip-rule="evenodd" d="M29.684,66.005c0.8-0.189,0.514,0.708,1.425,0.407
			c-0.168,0.575,0.287,0.527,0.204,1.018c-0.448-0.298-0.875-0.618-1.629-0.61C29.684,66.548,29.684,66.276,29.684,66.005z"/>
		<path fill-rule="evenodd" clip-rule="evenodd" d="M68.373,67.227c0.088-0.456,1.003-0.083,1.425-0.204
			C69.544,67.681,68.758,67.237,68.373,67.227z"/>
		<path fill-rule="evenodd" clip-rule="evenodd" d="M76.314,67.43c-0.596-0.183-0.625-0.183-1.222,0
			C74.8,66.795,76.606,66.795,76.314,67.43z"/>
		<path fill-rule="evenodd" clip-rule="evenodd" d="M77.332,69.059c-3.007,0.93-6.192,1.682-9.774,2.036
			c-0.122-0.362,0.597-0.846,0-1.018C70.63,69.204,74.258,68.996,77.332,69.059z"/>
		<path fill-rule="evenodd" clip-rule="evenodd" d="M148.397,68.855c0.83,0.349,1.749-0.227,3.054,0.203
			C150.934,69.295,148.586,69.622,148.397,68.855z"/>
		<path fill-rule="evenodd" clip-rule="evenodd" d="M146.361,69.466c-0.482,0.469-1.828,0.073-2.647,0.204
			C144.302,68.991,145.434,69.389,146.361,69.466z"/>
		<path fill-rule="evenodd" clip-rule="evenodd" d="M133.125,69.873c-1.161,1.418-4.932,0.228-6.516,1.222c-0.882,0-1.765,0-2.646,0
			c-0.889,0.005-0.035-0.351,0.406-0.203c0.408,0,0.814,0,1.222,0C127.732,70.089,129.872,70.13,133.125,69.873z"/>
		<path fill-rule="evenodd" clip-rule="evenodd" d="M65.522,70.28c0.886,0.073,0.936,0.031,1.425,0.204
			C66.898,70.778,65.271,70.957,65.522,70.28z"/>
		<path fill-rule="evenodd" clip-rule="evenodd" d="M70.001,75.167c-0.414,0.114-2.115,0.993-2.647,0.611
			C68.015,75.353,68.755,75.007,70.001,75.167z"/>
		<path fill-rule="evenodd" clip-rule="evenodd" d="M97.491,76.39c0.555,0.372-0.686,0.655-1.019,0.814
			c0.108-0.164,0.213-0.331,0.204-0.611C96.999,76.576,97.453,76.69,97.491,76.39z"/>
		<path fill-rule="evenodd" clip-rule="evenodd" d="M56.155,77.407c0.607,0.292,0.692-0.166,1.222,0.204
			C57.374,77.922,55.868,78.058,56.155,77.407z"/>
		<path fill-rule="evenodd" clip-rule="evenodd" d="M124.98,78.629c0.167-1.246,3.833-0.237,0.814-0.407
			C125.39,78.225,125.536,78.777,124.98,78.629z"/>
		<path fill-rule="evenodd" clip-rule="evenodd" d="M69.798,78.833c-0.244,0.639-1.01,0.754-1.833,0.814
			C68.667,79.467,68.685,78.602,69.798,78.833z"/>
		<path fill-rule="evenodd" clip-rule="evenodd" d="M82.626,82.905c-0.34-0.765,1.163-1.219,1.425-2.036
			C84.51,81.675,83.48,82.735,82.626,82.905z"/>
		<path fill-rule="evenodd" clip-rule="evenodd" d="M156.338,82.905c0.151-0.459,1.142-0.08,1.629-0.204
			C157.285,83.192,157.083,83.026,156.338,82.905z"/>
		<path fill-rule="evenodd" clip-rule="evenodd" d="M139.234,83.108c2.511,0.814,3.83,2.822,5.09,4.888
			C142.739,86.925,140.909,84.2,139.234,83.108z"/>
		<path fill-rule="evenodd" clip-rule="evenodd" d="M162.447,85.145c0.589,0.226,0.361,1.268,0.814,1.63c-0.271,0-0.543,0-0.814,0
			C162.447,86.231,162.447,85.688,162.447,85.145z"/>
		<path fill-rule="evenodd" clip-rule="evenodd" d="M64.708,85.756c-0.121,0.762-0.712,1.053-1.018,1.629
			C63.307,86.923,63.961,85.765,64.708,85.756z"/>
		<path fill-rule="evenodd" clip-rule="evenodd" d="M61.042,90.235c0.263,1.826-1.928,2.958-2.851,4.276
			C58.416,93.173,60.501,91.937,61.042,90.235z"/>
		<path fill-rule="evenodd" clip-rule="evenodd" d="M15.227,93.086c0.554,0.125,0.798,0.56,0.814,1.222
			C15.461,94.21,15.457,93.535,15.227,93.086z"/>
		<path fill-rule="evenodd" clip-rule="evenodd" d="M5.657,96.345c0.517-0.81,0.549,1.106,0.204,1.222
			C5.188,97.449,6.117,96.249,5.657,96.345z"/>
		<path fill-rule="evenodd" clip-rule="evenodd" d="M5.25,98.381c0.742,0.147,0.348,1.551,0.204,2.036
			C4.989,100.135,5.377,98.999,5.25,98.381z"/>
		<path fill-rule="evenodd" clip-rule="evenodd" d="M19.299,99.398c0.293,0.114,0.497,0.318,0.611,0.611
			c0.029,0.843-0.903,0.726-0.611,1.832C18.976,102.206,18.976,99.711,19.299,99.398z"/>
		<path fill-rule="evenodd" clip-rule="evenodd" d="M16.245,100.213c0.271,0,0.543,0,0.814,0c0.118,0.661-0.139,0.947-0.204,1.426
			C16.597,101.219,16.551,100.586,16.245,100.213z"/>
		<path fill-rule="evenodd" clip-rule="evenodd" d="M9.729,103.878c-0.771-0.586-0.583-1.869,0.204-2.239
			C9.867,102.387,10.106,103.441,9.729,103.878z"/>
		<path fill-rule="evenodd" clip-rule="evenodd" d="M17.467,101.639c0.774-0.163,0.259,0.963,0.407,1.425
			C17.559,102.768,17.447,102.27,17.467,101.639z"/>
		<path fill-rule="evenodd" clip-rule="evenodd" d="M5.25,106.322c1.118,0.578,0.464,2.93,1.222,3.868
			c-0.181,0.091-0.364,0.179-0.407,0.407C4.147,109.882,5.446,107.673,5.25,106.322z"/>
		<path fill-rule="evenodd" clip-rule="evenodd" d="M8.915,107.34c0.898-0.151,0.383,1.11,1.018,1.222
			c0.062,0.537-0.282,0.669-0.814,0.611C9.31,108.299,8.487,107.827,8.915,107.34z"/>
		<path fill-rule="evenodd" clip-rule="evenodd" d="M9.118,111.209c0.853,0.572-0.38,2.54,0.814,3.054
			c-0.78,1.031-0.674,2.925-0.407,4.48c0.049,0.524,0.351-0.28,0.814,0c-0.3,1.183,0.407,1.357,0.611,2.036
			c-0.505-0.241-1.277-0.216-1.018-1.222c-1.384,1.125,0.774,2.335,0.814,3.868c-0.573-0.038-0.867-0.354-0.814-1.018
			c-0.164,0.175-0.558,0.121-0.611,0.407c-0.529-0.488,0.104-2.14-0.814-2.24c0.954-0.571,0.584-2.333,0-3.054
			C10.02,115.881,8.244,113.174,9.118,111.209z"/>
		<path fill-rule="evenodd" clip-rule="evenodd" d="M12.58,112.227c0.828,0.326,0.885,1.423,1.629,1.833
			c-0.06,0.709-0.551-0.018-0.611,0.407C13.318,113.514,12.868,113.447,12.58,112.227z"/>
		<path fill-rule="evenodd" clip-rule="evenodd" d="M152.876,121.594c-1.077,0.416-1.138,1.849-2.24,2.239
			C150.773,122.477,151.585,121.796,152.876,121.594z"/>
		<path fill-rule="evenodd" clip-rule="evenodd" d="M14.209,131.164c-0.701,0.345-1.954-1.64-0.814-2.036
			C13.693,129.779,13.768,130.654,14.209,131.164z"/>
		<path fill-rule="evenodd" clip-rule="evenodd" d="M55.952,136.662c-0.304-1.528,1.193-3.014,2.443-3.666
			C57.799,135.241,56.451,134.32,55.952,136.662z"/>
		<path fill-rule="evenodd" clip-rule="evenodd" d="M151.248,139.716c0.316,1.271-1.65,2.013-2.24,3.055
			C149.035,141.844,150.365,140.465,151.248,139.716z"/>
		<path fill-rule="evenodd" clip-rule="evenodd" d="M146.361,156.82c-0.115,1.039-0.798,1.511-1.833,1.629
			C144.961,157.729,145.486,157.1,146.361,156.82z"/>
		<path fill-rule="evenodd" clip-rule="evenodd" d="M65.929,161.097c0.58,0.099,0.584,0.773,0.814,1.222
			c0.201,0.812-0.608,0.613-0.407,1.425C66.167,162.733,66.654,162.166,65.929,161.097z"/>
		<path fill-rule="evenodd" clip-rule="evenodd" d="M96.88,163.947c0.955,0.083,0.1,1.306-0.408,1.222
			C96.589,164.743,96.978,164.588,96.88,163.947z"/>
		<path fill-rule="evenodd" clip-rule="evenodd" d="M71.631,166.595c0.063-0.276,0.51-0.169,0.814-0.204
			c-0.033,0.237,0.045,0.362,0.204,0.407c-0.06,0.71-0.551-0.017-0.611,0.407C71.745,167.159,71.967,166.598,71.631,166.595z"/>
		<path fill-rule="evenodd" clip-rule="evenodd" d="M163.872,167.409c0.228-0.409,1.575-0.233,1.833,0
			C165.382,167.913,164.28,167.492,163.872,167.409z"/>
		<path fill-rule="evenodd" clip-rule="evenodd" d="M137.808,167.612c0.613,0.368-0.579,0.624-0.203,1.426
			C136.835,168.874,137.589,167.991,137.808,167.612z"/>
		<path fill-rule="evenodd" clip-rule="evenodd" d="M97.695,170.056c0.078,0.826-1.27,0.225-1.833,0.407
			C95.783,169.638,97.13,170.239,97.695,170.056z"/>
		<path fill-rule="evenodd" clip-rule="evenodd" d="M136.383,170.056c0.893,0.149-0.203,1.374-0.611,0.814
			C135.711,170.335,136.562,170.71,136.383,170.056z"/>
		<path fill-rule="evenodd" clip-rule="evenodd" d="M84.459,172.499c-0.593,0.336-1.767,0.314-2.24,0.204
			C83.053,172.457,83.819,171.876,84.459,172.499z"/>
		<path fill-rule="evenodd" clip-rule="evenodd" d="M80.59,172.906c-0.376,0.913-2.649-0.069-2.647,1.222
			c-0.534-0.484-1.777-0.259-2.443-0.61C77.207,173.826,79.03,172.6,80.59,172.906z"/>
		<path fill-rule="evenodd" clip-rule="evenodd" d="M75.092,174.739c0.426,0.374-0.937,0.681-0.814,1.426
			C73.164,175.79,74.69,174.916,75.092,174.739z"/>
		<path fill-rule="evenodd" clip-rule="evenodd" d="M71.631,175.758c0.089,1.106-1.564,0.472-1.833,1.222
			C69.197,176.241,70.766,175.052,71.631,175.758z"/>
		<path fill-rule="evenodd" clip-rule="evenodd" d="M108.283,175.758c0.951,0.078-0.088,1.117-0.814,0.814
			C107.596,176.156,108.498,176.515,108.283,175.758z"/>
		<path fill-rule="evenodd" clip-rule="evenodd" d="M73.26,176.775c0.084,0.7-1.414,1.569-1.629,2.647
			C71.753,178.12,72.278,177.219,73.26,176.775z"/>
		<path fill-rule="evenodd" clip-rule="evenodd" d="M166.316,8.583c-0.32-1.553-0.477-1.98-2.444-2.444
			c0.029-0.582,0.85-0.372,1.426-0.407c0.218,1.397,2.246,1.678,2.647,2.852c1.504,4.401-1.913,8.768-6.924,7.534
			c-0.658,0.251-0.155-0.659-0.814-0.408c-0.767-0.088-0.927,0.431-1.222,0.815c-6.832,2.127-11.132,7.872-16.29,10.995
			c-1.899,1.939-6.358,6.333-9.978,8.96c-0.982,0.713-1.832,1.856-2.646,2.443c-0.687,0.494-1.619,0.576-2.24,1.018
			c-0.366,0.261-0.549,0.85-1.018,1.222c-1.162,0.922-2.595,0.862-2.444,2.036c-0.271,0-0.543,0-0.814,0
			c-2.079,2.204-4.856,4.625-7.33,6.72c-0.153,0.13-0.46-0.157-0.407-0.203c-0.64,0.555-1.236,1.697-2.036,2.036
			c-0.988,0.418-2.865-0.376-2.443,1.629c-1.08,0.82-2.708,1.093-3.055,2.647c-1.988,0.209-3.861,1.007-5.09,2.443
			c-0.123,0.458,1.408-0.585,1.221,0.407c-0.626,0.223-1.961-0.379-1.832,1.018c3.369,0.975,4.016,0.406,7.941,0.407
			c0.061,0.74-1.086,0.272-1.426,0.611c0.224,0.658,0.592,1.174,0.814,1.832c0.463-0.148,0.609-0.612,0.814-1.018
			c0.477,0.474,1.32,0.581,1.833,1.018c3.212-1.422,7.718-0.535,11.199-1.425c2.307-0.123,4.686,0.278,5.498-0.407
			c9.138,1.271,16.878-0.286,25.045-0.611c-0.48-1.216-1.997-1.396-3.665-1.425c-3.903-2.812-10.757-4.162-15.271-6.312
			c1.857-0.682,3.805,1.832,6.516,1.629c4.108,2.707,9.204,3.012,13.847,5.701c1.185,0.105,2.809-0.229,3.665,0.204
			c-0.052,0.423-0.895,0.056-1.018,0.407c3.657,0.995,7.096,3.379,9.978,3.461c0.269,0.327,0.871,0.762,0.407,1.222
			c-0.654,0.18-0.279-0.671-0.814-0.61c-2.595,0.103-3.776-0.406-5.498-1.426c-4.144-0.923-7.743-1.166-12.828-1.018
			c-3.192,1.795-8.352,0.706-13.235,1.018c-0.222,0.051-0.139,0.405-0.407,0.407c-7.043-0.104-12.788,0.672-18.53,1.426
			c-2.206,0.072-2.228,0.246-4.276,0c-0.238,0.033-0.172,0.371-0.203,0.611c-1.967-0.868-4.451-0.233-5.701,1.222
			c-1.146-0.313-2.076-0.498-2.852,0.407c1,0.455,1.145-0.409,2.037,0.407c-4.501,1.937-12.573,1.897-18.123,1.222
			c-0.6-0.073-1.352-1.111-1.832,0c-0.239-0.033-0.172-0.371-0.204-0.611c-2.147,0.478-3.692-0.128-5.905,0
			c0.344-0.81,1.547-0.761,1.833-1.629c0.512,0.302,0.605,1.024,1.629,0.814c0.146-0.705,0.019-1.064,1.018-1.222
			c-0.289-0.594-2.022,0.258-2.036-0.61c-0.294,1.063-1.494,1.221-2.24,1.832c-0.688-0.193-1.07-0.694-1.629-1.018
			c-0.387,0.02,0.126,0.794,0.407,0.814c-0.493,0.347-1.169-0.859-2.443-0.407c-0.227-1.042,0.879-0.75,1.425-1.019
			c0-0.679,0-1.357,0-2.036c0.273,0.134,0.379,0.436,0.407,0.814c0.399,0.099,0.656-0.934,0.204-1.019
			c0.389-0.634,0.884,0.318,1.425,0.204c-0.819,0.397-2.009,1.193-1.018,2.24c0.27-0.478,0.621-0.873,1.018-1.223
			c0.545,0.134,0.774,0.584,1.222,0.815c0.843-0.323,0.569-1.401,0-1.833c-0.228,0.829-2.247-0.898-2.444-2.036
			c-0.339,0-0.679,0-1.018,0c-0.171-0.236-0.269-0.546-0.204-1.019c-2.782-0.807-4.1-2.764-7.331-2.443
			c-1.286,0.128-2.397,1.218-4.072,0.407c1.816-0.288,3.808-0.4,5.498-0.814c-1.522-1.939-4.032-2.892-5.905-4.479
			c-0.623-0.147-0.599,0.352-1.222,0.203c-0.102-0.849-0.921-0.979-1.629-1.222c-1.958-2.725-5.639-3.728-7.738-6.312
			c-0.271,0-0.543,0-0.814,0c-1.2-1.327-3.955-3.108-5.702-4.276c-0.937-0.627-2.34-0.891-3.054-1.629
			c0.168,0.174-0.545-1.095-1.018-1.426c-1.352-0.945-3.435-1.464-5.091-2.646c-0.2-0.144-0.211-0.659-0.407-0.815
			c-0.668-0.533-1.813-0.442-2.036-1.629c-3.655-1.22-5.259-4.179-8.552-5.294c-2.999,1.889-8.618,1.089-9.978-1.629
			c0.065-0.478,0.322-0.765,0.204-1.426c0.537-0.195,1.389-0.038,1.425,0.815c-0.64,0.232-0.495-0.32-0.814-0.408
			c-0.685,0.568,0.302,1.179,0.611,1.426c0.421-0.122,0.771-0.314,0.611-1.018c0.617,0.332,0.97,0.931,1.833,1.018
			c0.413-0.562-0.328-1.33-0.407-2.036c-1.837,0.677-2.424-1.1-3.462-1.222c-0.078-0.689,0.901-0.32,0.611-1.222
			c0.035-0.51-0.312-0.638-0.611-0.814c-1.113,0.794,0.265,3.426-0.611,4.072c-1.405-5.097,2.176-7.97,5.905-7.941
			c-0.069,0.409,0.042,0.638,0.407,0.611c-1.716,1.693-5.251,2.711-3.666,5.904c0.485-0.504,0.334,0.529,1.222,0.204
			c0.203-0.619,0.522-2.182,0.204-2.647c0.796,0.406,0.143,1.979,1.018,2.647c-0.018-0.014,0.744-0.415,0.814-0.407
			c0.546,0.06,1.925,0.692,2.647-0.204c-0.02,0.523-0.795,0.292-0.814,0.814c0.06,0.416,0.551,0.399,0.611,0.814
			c0.396-0.351,0.737-0.756,0.814-1.425c1.509,0.828-0.464,2.012-1.222,2.443c0.731,0.147,1.711,0.065,2.24-0.61
			c0.276,0.062,0.169,0.51,0.204,0.814c1.155-0.657,2.21-0.274,2.851,0.61c0.709-0.06-0.017-0.551,0.408-0.61
			c0.953,0.024-0.222,0.296,0,0.814c0.134,0.609,0.435-0.195,0.814,0c-0.027,0.502-0.031,0.98,0.204,1.222
			c2.192,0.02,3.739,4.097,5.905,3.461c-0.343,1.741,2.484,1.262,2.036,2.443c0.182-0.158,0.46-0.219,0.814-0.203
			c0.033,0.236-0.045,0.362-0.204,0.407c1.694,0.653,3.29,3.062,5.905,3.462c0.1,0.986,0.895,1.277,1.425,1.832
			c0.276-0.062,0.169-0.51,0.204-0.814c0.506,0.965,1.481,2.784,2.647,1.833c0,0.339,0,0.679,0,1.018
			c0.745,0.045,0.781,0.28,1.426,0c0.039,1.115,0.967,1.341,1.629,1.833c0.445-0.03,0.437-0.513,0.407-1.019
			c0.565,0.48,0.131,1.052,0.407,2.036c0.516-0.23,0.591-0.902,0.611-1.629c0.416-0.002-0.137,2.712,1.222,2.444
			c0.276-0.063,0.169-0.511,0.204-0.815c0.33,0.689,0.687,1.35,1.222,1.833c0.198-0.006,0.158-0.249,0.204-0.407
			c0.212,0.874,1.229,0.943,1.425,1.833c0.273-0.134,0.379-0.436,0.407-0.814c0.495,0.319,0.763,0.866,0.815,1.629
			c0.827,0.022,1.203,0.38,1.629,1.222c0.721,0.11,0.5-0.722,1.222-0.611c0,0.407,0,0.814,0,1.222
			c0.237-0.033,0.362,0.045,0.407,0.204c0.877,0.267,0.252-0.97,1.018-0.814c-0.203,0.882,0.228,1.13,0.407,1.629
			c0.464,0.057,0.766-0.049,0.814-0.407c0.443,0.423-0.263,1.185,0.611,1.425c0.441,0.035,0.092-0.722,0.204-1.018
			c0.272-0.06,0.356,1.809,1.222,1.832c0.45-0.025,0.086-0.863,0.204-1.222c0.536-0.006-0.088,1.648,0.814,1.833
			c1.135,0.185,0.058-1.843,1.018-1.833c-0.155,0.777-0.147,1.493,0,2.036c0.286,0.415,0.702-0.199,1.222,0.204
			c0.262,0.48-0.027,0.379,0.204,1.019c0.657,0.182,0.286-0.665,0.611-0.815c0.414,0.197,0.439,0.782,0.407,1.426
			c0.535,0.061,0.16-0.79,0.814-0.61c-0.233,0.844,0.428,0.793,0.407,1.425c0.759,0.217,0.322-0.764,1.018-0.61
			c0,0.339,0,0.679,0,1.018c1.796,0.324,3.192,1.27,4.683,2.443c0.032,0.507-0.32,0.631-0.407,1.019
			c0.347-0.075,0.384,0.158,0.407,0.407c0.537,0.062,0.525-0.425,0.611-0.814c0.578-0.035,0.397,0.688,1.222,0.407
			c-1.318,0.445-0.525,1.106-0.204,2.239c0.441,0.035,0.092-0.722,0.204-1.018c0.83,0.665,2.678-1.455,3.258,0.203
			c0.476-0.066,0.841-0.244,1.221-0.407c0.147-0.622-0.207-0.741-0.203-1.222c-0.34,0-0.679,0-1.018,0
			c0.01-0.281,1.935-0.493,2.647-0.203c-0.229,0.642-0.018,0.461,0,1.222c0.631-0.048,0.635-0.723,0.814-1.222
			c1.367,0.305,3.221-0.96,3.462,0.61c-0.492,0.391-1.636,0.129-2.444,0.204c-0.064,0.472,0.033,0.781,0.204,1.018
			c1.513-0.048,2.33-0.792,4.073-0.61c-1.616,1.812-5.214,0.578-7.127,2.239c0.303,0.961-0.645,1.942-1.629,2.24
			c1.113,1.874,6-0.027,7.738,1.222c1.138-0.642,2.733-0.59,4.072-0.203c0.423-0.053,0.056-0.896,0.407-1.019
			c0.441-0.034,0.092,0.723,0.203,1.019c1.008,0.125,1.303-0.462,2.037-0.611c-0.006-0.198-0.25-0.158-0.408-0.203
			c0.848-0.676,2.731-0.045,3.055-1.63c0.389,0.487,1.971,0.746,2.24-0.203c0.846,1.009,3.229-1.664,4.684-1.426
			c-2.051-2.64-7.67-0.085-10.996-0.814c-1.094-0.239-1.273-1.171-2.24-1.222c-0.199-0.945,0.265-1.229,0.408-1.832
			c0.251,0.767,1.078,1.813,1.221,2.036c1.742-2.263,3.365-4.645,6.312-5.701c1.355-1.187,3.531-2.869,5.701-4.276
			c0.891-1.689,3.543-1.616,3.869-3.869c2.873,0.215,4.076-4.061,6.72-4.072c0.315-0.387,1.073-2.727,2.444-2.036
			c0.696-0.733,1.066-2.239,2.035-1.629c0.228-0.187,0.064-0.379,0.204-1.019c1.371,0.056,2.254-0.707,2.443-1.832
			c0.91,0.443,1.863-0.126,1.833-1.222c0.197,0.005,0.158,0.249,0.203,0.407c0.907-1.197,2.809-1.4,3.258-3.055
			c1.566-0.286,3.339-2.077,4.073-3.869c2.154-0.188,4.107-3.332,5.904-3.869c0.438-1.627,2.282-2.308,3.259-3.258
			c0.614,0.434-0.584,0.759-0.611,1.222c1.188,0.113,0.867-0.969,1.629-0.814c-0.072-0.318-0.358,0.179-0.407-0.203
			c0.313-3.148,3.455-3.468,4.887-5.498c0,0.611,0,1.222,0,1.833c2.489-1.991,5.562-3.397,7.331-6.109
			c0.595,0.185,0.059,0.75,0.407,0.814c1.068-0.492-0.379-1.719-1.019-1.832c0.441-0.78,1.092-1.352,1.833-1.833
			c0,0.407,0,0.814,0,1.222c0.835-0.047,1.558-0.207,1.629-1.018c0.665,0.231,0.169,1.241,0.203,1.629
			c0.672-0.008,0.779-0.579,0.814-1.222c0.548,1.275,2.762,0.078,2.24-1.629c0.641-0.098,0.796,0.29,1.222,0.407
			c0.153,1.442-0.72,1.859-0.407,3.461c-1.609,0.754-4.058,1.338-5.294,0.814c-0.562-0.087-0.191,0.76-0.611,0.814
			c0.814,0.137,0.76,1.141,1.629,1.222c0.641,0.233,0.495-0.319,0.814-0.407c2.856,1.281,4.035-1.143,5.091-2.851
			c-0.825-1.251-0.265-2.729,0-3.665C167.47,8.253,166.837,8.397,166.316,8.583z M159.596,15.302
			c-0.583-0.04-1.111-0.024-1.019,0.611c0.261,0.011,0.282,0.261,0.611,0.204C159.041,15.562,159.593,15.707,159.596,15.302z
			 M27.852,28.538c0.143-0.627,0.143-0.392,0-1.019c-1.094-0.404-1.484,0.946-2.24,0.204c0.612,0.205,0.361-0.454,0.407-0.814
			c-0.744,0.019-1.429,1.046-0.611,1.425c-2.163,0.599-3.369-0.604-4.887-1.222C20.73,29.526,25.368,29.296,27.852,28.538z
			 M149.007,20.8c1.365-0.187,3.4-1.823,2.036-2.851C150.552,19.087,149.161,19.324,149.007,20.8z M131.496,62.136
			c1.09-0.133,2.711,0.268,3.462-0.204C134.226,61.466,131.904,61.15,131.496,62.136z M127.22,62.746
			c0.381-0.297,1.349-0.008,1.629-0.407C128.347,62.297,127.216,61.862,127.22,62.746z M114.392,62.746
			c0.199,0.887,1.99,0.182,2.85,0.407C117.085,62.077,115.173,62.651,114.392,62.746z M111.541,63.561
			c0.066-0.574,1.448,0.904,1.426-0.203C112.841,62.857,110.816,63.212,111.541,63.561z"/>
		<path fill-rule="evenodd" clip-rule="evenodd" d="M146.564,19.985c-2.616,3.696-6.726,5.899-9.978,8.96
			c-0.015-1.442,2.746-1.868,3.258-3.462C142.508,24.075,144.332,21.826,146.564,19.985z"/>
		<path fill-rule="evenodd" clip-rule="evenodd" d="M136.179,28.945c-2.784,2.646-5.71,5.149-8.959,7.33
			c-1.491,1.022-2.969,3.139-4.684,3.258c-3.67,3.6-8.793,7.493-13.439,10.792c1.438-1.746,5.338-4.626,7.534-5.905
			c1.065-1.662,3.272-3.226,4.684-3.868c0.087-0.388,0.438-0.512,0.407-1.019c2.078-0.381,3.225-2.727,4.887-2.851
			c0.39-1.329,3.216-1.927,3.869-3.665C132.809,32.091,133.828,29.851,136.179,28.945z"/>
		<path fill-rule="evenodd" clip-rule="evenodd" d="M49.843,60.507c0.132-0.207,0.468-0.211,0.407-0.611
			c0.743-0.132,1.084,0.138,1.425,0.407C51.545,60.5,50.699,60.508,49.843,60.507z"/>
		<path fill-rule="evenodd" clip-rule="evenodd" d="M19.707,94.512c-0.37-0.882,1.136,0.815,1.425,1.222
			c-0.41-4.547-0.294-8.371-0.204-14.05c1.259,1.456-0.549,5.979,1.019,7.127c0.695-2.521,0.709-7.725-0.204-9.978
			c-2.692-0.04-5.65-0.193-8.348-0.407c-0.276,0.062-0.169,0.51-0.204,0.814c-2.046-0.146-3.172,0.629-3.258,2.443
			c-0.745,0.134-0.781-0.44-1.425-0.407c-0.701,0.656-0.215,2.499-0.611,3.461c-0.955-2.248,0.587-4.839,0.611-6.108
			c-0.034-0.441,0.722-0.092,1.018-0.203c-0.068-0.476-0.208-0.878-0.611-1.019c0.271-0.611,0.798-0.967,1.833-0.814
			c-0.02,0.523-0.794,0.291-0.814,0.814c2.754,0.597,3.532-1.588,5.702-0.407c0.551-0.611-0.336-1.019-0.814-1.222
			c0.409-0.396,1.368,0.387,1.833,0.611c1.392-2.173,4.543-0.673,5.702-2.647c-0.836-1.337-0.04-4.305-0.611-5.905
			c1.38-0.045-0.098-2.949,1.019-3.258c0.591,1.672,0.099,4.854,0.814,7.534c0.025,0.704-0.398,0.96-0.611,1.425
			c1.617,3.937-0.41,10.55,1.222,14.661c-0.051,2.696,0.118,3.805-0.407,5.498c1.15,2.719-0.335,8.073,0.814,10.792
			c-1.221,0.883,0.412,2.778-0.407,3.462c0.134,0.609,0.435-0.195,0.814,0c-0.134,0.272-0.436,0.379-0.814,0.407
			c0,0.475,0,0.95,0,1.425c0.63,0.02,0.606-0.614,0.611-1.222c0.442,0.546,0.276,0.925,0.204,1.629
			c-0.405-0.339-0.259,0.019-0.814,0c0.23,10.502,0.594,22.022,0.407,34.005c-0.556,0.148-0.41-0.404-0.814-0.407
			c0.104,0.508-0.007,1.229,0.611,1.223c-1.125,0.292,0.372,4.463-0.204,7.737c-0.143,0.813-0.586,2.562-0.611,4.072
			c0.73,0.559,0.286,2.293,1.018,2.851c0.112,0.451-0.389,0.29-0.407,0.611c1.266,2.074-0.098,4.244,0.611,6.72
			c0.562,1.961,3.931,3.17,5.498,4.479c0.328,0.274,0.28,0.885,0.611,1.222c0.983,1.003,2.912,1.669,4.276,2.647
			c0.762,0.546,1.356,1.591,2.24,2.239c1.131,0.83,2.657,1.454,3.665,2.443c0.393,0.386,0.586,1.083,1.019,1.426
			c1.732,1.373,3.881,2.431,5.294,3.869c0.371,0.377,0.121,1.168,0.814,1.222c0.027-0.719,0.128-1.947-0.204-2.24
			c-0.054-0.665,0.79-0.432,0.814-1.019c-0.133-0.613-0.65-0.842-0.814-1.425c-0.032-0.901,0.576,0.096,0.814-0.407
			c0.116-0.659-0.062-1.024-0.407-1.222c0.742-13.547,0.407-30.201,0.407-44.594c0-7.1,0.314-15.594-0.407-20.362
			c0.946-7.199,0.139-16.15,0.407-24.027c-0.586-0.024-0.105-1.117-0.814-1.019c-0.086-0.696,0.61-0.611,0.814-1.018
			c0.125-4.118,0.373-7.203-0.407-10.385c-0.997-1.243-1.699-2.78-3.869-2.851c0.026-0.366-0.25-0.43-0.204-0.815
			c-3.403-1.21-7.29-4.19-10.996-6.312c-0.236-0.302-0.236-0.514,0-0.814c-0.688,0.627-1.16-0.195-1.833-0.204
			c-0.064-0.54,1.141,0.19,0.815-0.61c3.726,1.84,6.926,4.204,10.792,5.904c0.451,0.112,0.29-0.389,0.611-0.407
			c0.925,0.908,2.146,1.52,3.665,1.833c0.033,0.236-0.045,0.362-0.204,0.407c2.453,0.47,4.042,3.602,7.534,2.851
			c0.383,0.406,0.739,0.321,0.407,1.019c2.266,0.162,2.877-1.331,5.294-1.019c0.018-1.278-1.315,0.06-1.833-0.61
			c1.23-0.671,3.324-0.478,4.073-1.63c1.227,1.546,2.801-0.682,4.479,0.204c-1.614,0.489-3.534,0.675-5.09,1.222
			c2.12,1.59,5.7-1.445,7.33,1.019c-4.35,0.691-8.508,1.234-13.235,1.222c-0.429,0.426,0.268,0.765,0.611,1.018
			c-0.296,0.604-0.794-0.268-1.425,0c0.377,1.151,1.958,1.216,2.24,0c0.649,0.975,1.453,0.259,2.036-0.407
			c0.258,0.354,0.688,0.534,0.611,1.222c-0.181-0.158-0.459-0.219-0.814-0.203c0.511,0.852-0.144,1.207-0.204,2.036
			c1.079,0.912,3.607,1.386,3.666,2.647c-1.442,0.008-2.94-1.485-4.073-2.444c-1.287-0.133-0.788,1.521-1.833,1.629
			c0.282-0.735,0.896-1.141,1.018-2.036c-0.289,0.018-0.577,0.034-0.611-0.203c-0.033,0.304-0.181,0.643-0.611,1.018
			c-0.276-0.199-0.264-0.686-0.611-0.814c-0.767-0.088-0.927,0.431-1.222,0.814c-0.684-0.896,1.063-1.102,1.018-2.036
			c-1.604-2.292-4.223,1.217-2.851,3.665c1.31-0.115,1.779-1.071,2.443-1.832c-0.121,1.714-3.191,2.237-2.443,5.498
			c0.667,0.78,0.813-1.375,1.425-0.611c-1.139,0.411-1.563,4.178-1.629,6.924c2.297-1.232,3.124-3.936,4.887-5.702
			c0.001,1.789-1.606,2.685-2.647,4.072c-0.178,0.237,0.017,0.702-0.204,1.019c-0.642,0.922-1.613,1.332-1.833,2.24
			c-0.52,2.146,0.203,5.216,0.204,7.94c0.001,4.539-0.76,9.907,0.204,12.625c-0.802,1.506-0.241,4.375-0.407,6.516
			c1.01,0.085,1.946-1.55,2.443-2.646c0.016,1.512-1.963,2.786-2.443,4.479c0.148,1.955-0.369,4.577,0.407,5.905
			c-0.381,1.18-0.506,2.616-0.407,4.276c0.348,0.009,0.527-0.151,0.611-0.407c0.625,0.317-0.354,0.708-0.611,0.814
			c0.094,1.33-0.29,3.14,0.407,3.868c-0.894,0.261-0.177,2.131-0.407,3.055c0.369,0.263,0.987-0.142,1.222,0.61
			c-1.875,1.967-1.385,8.104-0.814,11.2c-0.647,2.065-0.84,7.554,0.611,8.145c0,0.34,0,0.679,0,1.018
			c-0.301,0.236-0.513,0.236-0.814,0c-0.326,0.848-0.252,2.372,0.611,3.055c1.544-1.238,2.268-3.298,3.665-4.684
			c-0.771,2.653-5.577,5.412-3.054,9.57c-0.511,0.514-0.644-0.389-1.018-0.61c-0.909,0.604-0.081,1.64,0.204,2.239
			c-1.407,1.053,0.114,2.689,0.407,3.869c-0.006,0.673-0.859,0.498-1.018,1.019c0.583,1.616,0.197,4.109-0.814,5.294
			c-0.183,0.657,0.664,0.286,0.814,0.611c-0.639,0.04-0.17,1.187-0.611,1.425c0.336,1.021,1.186,1.529,1.833,2.24
			c1.648-0.344,4.728-0.59,5.294-2.647c0.458,0.086,0.006,1.08,0.407,1.222c7.874-1.209,15.548-4.646,24.028-4.479
			c0.095-0.91-1.591-0.038-1.833-0.611c2.176,0.047,3.821,0.357,6.516-0.203c-0.766-1.713-2.963,0.537-4.072-0.204
			c1.216-0.685,3.517-0.284,4.479-1.222c0.943-0.043-0.2,0.727,0.407,1.019c1.657-1.244,2.792-3.028,4.479-4.684
			c0.016,1.173-2.164,1.906-2.443,3.462c2.721,0.301,5.582,0.151,6.312-2.036c0.573,0.205-0.057,0.864,0,1.222
			c0.291,0.23,1.402,0.047,1.629-0.407c4.053-0.155,7.195-1.222,10.792-1.833c7.248-1.091,15.684-1.884,21.381-3.869
			c1.565,0.501,2.929-1.214,3.868,0c-1.22-0.735-1.78,0.742-3.258,0.407c1.383,1.65,3.669-0.524,5.905,0
			c1.345-0.945,7.018-0.586,8.96-2.239c0.626-0.152,0.391,0.559,1.018,0.407c2.616-1.054,5.949-1.527,8.553-1.833
			c0.957-0.112,1.926-0.865,2.239-0.814c0.389,0.063-0.219,0.631,0.204,0.611c0.514-0.024-0.283-0.486,0.203-0.611
			c0.219-0.056,0.915,0.336,1.629,0.204c0.887-0.164,1.477-0.897,2.647-0.407c0.194,0.737-0.879,0.207-1.019,0.61
			c1.506,0.416,3.46-0.475,5.091-0.61c0.918-1.051,1.446-2.49,2.647-3.258c1.323-5.607,1.894-13.125,1.629-19.345
			c-0.903-21.187,0.318-44.124-0.204-65.974c0.112-0.452-0.389-0.29-0.407-0.611c-0.369-4.92,0.592-10.21,0-14.05
			c-0.353,0.729-1.175,0.487-1.629-0.204c0.376-1.026,2.21,0.731,2.851-0.407c0.547,0.269,0.406,1.224,1.222,1.223
			c-0.329,0.281-0.253,0.968-1.018,0.814c-0.574,5.104,1.197,11.645,0,16.696c0.11,0.309,0.307-0.164,0.407,0.204
			c1.05,3.856-0.78,9.936,0,14.254c0.151,0.922-0.56-0.312-0.407,0.61c0.783,2.067,0.357,6.952,0,8.96c0.1,9.282-0.1,26.62,0,37.263
			c0.065,0.677-1.001,0.221-0.611,1.222c0.089,0.303,0.261-0.08,0.611,0c-0.246,3.416-1.343,9.775,0.407,14.864
			c-0.025,3.79-2.777,4.792-4.276,7.534c1.4,0.718,2.494-0.624,4.276-0.203c-0.491,0.73-1.728,0.716-2.647,1.018
			c1.068,1.139,3.658-0.436,5.091,0.407c-2.651,1.828-7.942,1.018-11.199,2.24c-0.777,0.099-1.3-0.058-1.629-0.407
			c-6.341,0.94-12.75,1.64-17.919,3.258c-7.629,0.47-12.108,1.556-18.529,2.851c-3.471,0.535-6.792,1.218-9.164,2.851
			c-2.259,0.426-3.026,0.674-4.887,1.426c-0.428,0.173-1.172,0.416-1.426,1.018c-0.428-0.495-0.904,0.181-1.221-0.203
			c2.246-0.944,4.625-1.756,6.719-2.851c-3.232,0.11-7.597,0.966-11.199,1.629c-6.852,1.261-14.062,3.77-20.158,4.479
			c-0.627-0.189-2.498,0.826-2.851,0.204c-1.371,0.462-3.073,0.592-4.073,1.425c-10.775,1.832-16.603,4.805-26.471,6.72
			c0.768-1.96,3.178-1.508,4.887-2.443c-0.058-0.553-0.745-0.477-0.814-1.019c0.172-0.438,1.05-0.172,1.222-0.61
			c-0.088-0.455-1.003-0.083-1.425-0.204c-0.531,0.759-1.157,1.423-2.443,1.426c-0.086-0.426,0.14-0.539,0.204-0.814
			c-1.522,0.722-2.277-0.008-3.462-0.611c-2.096,0.811-4.304,0.502-5.701,0.814c0.518-1.586,4.185-0.022,4.887-1.425
			c-0.401-0.889-2.578-0.002-3.258-0.611c0.064,0.62-1.426,0.864-1.833,1.629c-0.451-0.159,0.039-1.26-0.814-1.018
			c1.504-0.382,1.603-0.613,2.647-0.814c-0.271-1.698-2.011-1.926-2.851-3.055c-0.632-0.021-0.582,0.641-1.426,0.407
			c-6.063-5.136-10.387-12.011-17.308-16.29c-0.013-2.431-2.279-2.607-3.258-4.072c0.761-0.189,1.218-0.683,1.426-1.426
			c-1.787-1.354-0.709-3.36-0.204-5.09c-4.187-1.583-4.542-6.997-6.516-10.792c-0.696-4.316-2.909-7.356-3.258-11.606
			c-0.231,0.038-0.113,0.204,0,0.203c-1.37-1.654-1.625-6.237-3.869-8.145c-0.053-0.597,0.46-0.626,0.407-1.222
			c-1.46-2.342-1.576-6.026-3.665-7.738c-0.011-0.938,0.09-1.99-0.204-2.646c1.973,2.997,3.058,6.156,5.701,8.756
			c0.056,0.803-0.871,0.622-0.814,1.425c0.432,0.79,0.65,1.794,1.425,2.24c0.13,2.69,1.733,3.915,2.24,5.701
			c-0.884,2.836,2.218,4.523,2.851,7.127c-1.05-0.036-0.457-1.715-1.629-1.629c0.015,1.48,1.299,3.451,2.647,4.276
			c-0.435,0.446-1.45,0.314-1.425,1.222c1.503,2.707,3.743,6.067,5.905,8.756c1.56-2.944-4.078-4.947-2.647-7.127
			c-0.412,0.718,1.52,1.069,0.814,2.036c0.422-0.438,1.661,0.391,1.018,1.018c0.261-0.282,0.961-0.124,1.222-0.407
			c0.034-1.053-1.781-1.111-1.222-2.036c0.642-0.66,0.086,0.777,1.019,0.407c0.364-0.778,0.303-2.877,0-3.665
			c-1.837,0.807-2.712-2.107-3.869-3.258c-1.34,1.763,1.285,2.863,1.629,4.276c-1.797-0.308-2.164-2.045-3.258-3.055
			c0.021-0.726,1.027-0.466,1.018-1.222c-0.87-0.623-0.427-2.56-2.036-2.443c0.017-0.323-0.098-0.777,0.204-0.814
			c-0.456,0.212-1.29-1.386-1.222-1.629c1.413-0.327,0.667,1.504,1.833,1.425c0.445-1.389,0.177-4.478-1.222-4.072
			c0.44-1.241-0.906-2.216,0-2.647c0.684-0.209,0.317,0.634,0.407,1.019c1.701-1.157-0.947-2.708-1.018-4.072
			c-0.353-0.258-0.534-0.688-1.222-0.611c0.312-1.872-1.683-1.439-1.425-3.258c1.464,1.387,2.348,3.354,3.869,4.684
			c0.756-2.451-3.027-3.713-3.258-6.517c1.262,0.367,0.758,2.5,2.443,2.444c-0.324,2.035,2.204,1.062,1.629,2.851
			c2.423-1.562-0.998-3.146-1.018-5.295c-0.365-0.025-0.43,0.25-0.814,0.204c-0.261-1.967-1.328-3.253-2.443-4.479
			c0.261-0.817,0.969,0.604,1.018,0c0.125,0.893,0.769,1.267,0.814,2.239c0.996,0.114,0.486-1.278,0.611-2.036
			c0.474,0.074-0.03,2.877,0.407,3.665c0.955-0.239,0.312-1.286,0.611-1.832c0.469,0.549,0.072,1.964,0.204,2.851
			c1.188-0.576,0.369-3.161,0.611-4.684c-0.063-0.276-0.51-0.169-0.814-0.203c0.082-1.817-1.025-1.919-1.629-3.462
			c0.655-0.707,1.246,0.371,1.018,1.222c0.365,0.026,0.429-0.249,0.814-0.203c0,0.407,0,0.814,0,1.222
			c0.388,0.381,0.512,0.021,1.018,0c-0.278,0.603,0.119,0.887,0,1.832c0.204,0,0.407,0,0.611,0c0.022-1.034,0.789-2.688,0.407-4.072
			c-0.11-0.401-0.831-0.588-1.222-1.222c-0.541-0.877-0.793-2.222-2.036-2.443c0.454-2.219-1.934-1.596-1.629-3.665
			c1.656,1.324,2.626,4.746,5.294,5.701c-0.454,2.082,1.527,1.731,1.629,3.258c0.467-0.415,0.074-1.691,0.204-2.443
			c-0.049-0.525-0.35,0.279-0.814,0c-0.242-3.195-1.717-5.144-3.258-6.516c1.392-0.264,1.986,1.616,2.851,2.646
			c0.344,0.409,1.279,0.195,0.814,1.019c1.092-0.146,0.81-3.283-0.204-3.258c0.34-0.103,1.668-0.095,1.018-1.019
			c-0.06-0.484-0.551,0.227-0.611,0.407c-0.339-0.203-0.144-0.941-0.611-1.018c-0.034-0.859,0.313,0.003,0.611,0
			c0.434-0.066-0.033-0.889-0.204-1.019c0.559-0.881,0.94,0.244,1.629-0.203c-0.133,0.977-0.306,1.723,0,2.646
			c0.778-0.324,0.24-0.324,1.019,0c-0.543-0.141,0.461-3.58-0.815-3.665c0.45-0.187,0.913-0.896,0.408-1.426
			c-1.381,0.386-0.398,1.295-0.815,2.24C18.327,102.41,22.56,97.95,19.707,94.512z M17.874,78.426c0.753-0.069,3.069,0.05,4.48,0
			c-0.189-1.102,0.487-3.067-0.611-3.259c-1.478,1.645-4.869,1.376-6.719,2.647C16.189,77.82,17.877,77.866,17.874,78.426z
			 M23.372,85.756c-0.351-2.468,0.684-5.209-0.611-6.516C23.174,81.641,21.771,84.598,23.372,85.756z M50.861,86.367
			c0.16-1.653-0.657-2.33-0.611-3.869c-0.204,0-0.407,0-0.611,0C48.842,83.69,49.1,86.474,50.861,86.367z M22.15,93.697
			c0.157-1.251,0.795-4.175-0.815-4.276C21.709,90.745,21.661,92.49,22.15,93.697z M49.843,89.625
			c0.302,0.716,0.387,1.649,1.222,1.832c0.522-0.546,0.009-1.205-0.204-1.629c0.113,0.001,0.231-0.165,0-0.203
			C50.688,90.223,50.349,89.359,49.843,89.625z M51.064,96.548c0.565-1.687-0.749-3.161-1.629-4.072
			C49.426,94.399,50.116,95.225,51.064,96.548z M50.861,100.213c-0.273-1.151-0.299-2.551-1.425-2.851
			C49.459,99.04,49.612,99.585,50.861,100.213z M21.539,99.806c0.215-0.212,0.421-1.454,0-1.629
			C21.324,98.389,21.119,99.631,21.539,99.806z M22.354,102.86c-0.052-1.709-0.262-2.24-0.204-3.258
			C20.954,100.123,20.829,102.611,22.354,102.86z M51.064,105.915c0.681-1.664-0.3-2.013-0.611-3.259
			c-0.575,0.169-0.527-0.286-1.018-0.203C49.645,103.94,50.142,105.141,51.064,105.915z M22.965,107.34
			c0.135-0.462,0.526-1.707-0.204-1.832C22.887,106.06,22.502,107.123,22.965,107.34z M51.268,109.58
			c-0.5-0.763-0.283-1.777-1.222-2.443C49.353,107.775,50.153,110.196,51.268,109.58z M21.335,110.395c0.87,0.054,0.87-2.09,0-2.036
			C21.335,109.037,21.335,109.716,21.335,110.395z M22.965,112.227c-0.464-0.282-0.076-1.417-0.204-2.036
			C21.584,110.015,22.452,112.879,22.965,112.227z M21.335,114.06c1.096,0.015,0.618-2.297,0.204-2.647
			C21.03,112.261,21.273,112.831,21.335,114.06z M51.268,114.67c0.285-1.778-0.808-2.179-1.425-3.054
			C49.572,112.482,49.688,114.544,51.268,114.67z M21.335,115.893c0.843,0.176,0.621-1.018,0-1.019
			C21.335,115.214,21.335,115.553,21.335,115.893z M50.25,117.317c0.177-0.2,0.085-1.281-0.204-1.629
			C49.563,115.997,49.469,117.205,50.25,117.317z M22.558,117.521c0.167-0.148,0.546-1.409-0.204-1.222
			C22.118,116.517,22.279,117.237,22.558,117.521z M18.485,119.558c1.104-0.018,0.626-2.47,0.204-2.851
			C18.301,117.719,18.435,118.452,18.485,119.558z M21.335,118.743c0.834-0.405,0.588-1.414,0.204-2.036
			C21.178,117.092,21.391,118.052,21.335,118.743z M22.558,119.354c0.167-0.147,0.546-1.409-0.204-1.222
			C22.471,118.49,22.108,119.328,22.558,119.354z M21.539,123.833c0.428-1.631-1.445-3.765-1.833-5.09
			C18.549,120.717,20.739,122.498,21.539,123.833z M20.928,120.372c0.385-0.046,0.449,0.229,0.814,0.203
			c0.236-1.051-0.431-1.198-0.814-1.629C20.928,119.422,20.928,119.896,20.928,120.372z M23.983,126.888
			c0.354-2.259,0.891-5.583-0.204-7.737C23.852,121.945,23.264,124.357,23.983,126.888z M51.268,123.426
			c0.351-1.349-0.631-2.814-1.222-3.868C49.221,120.777,49.929,123.11,51.268,123.426z M17.06,121.39
			c1.472,0.157,0.644,2.615,1.833,3.055c0.854-2.287-0.679-3.745-1.833-4.684C17.06,120.304,17.06,120.847,17.06,121.39z
			 M17.06,125.055c0.933-0.009,0.63-1.85,0-2.036C17.06,123.697,17.06,124.377,17.06,125.055z M20.725,128.109
			c0.26-0.505,0.325,0.878,1.018,0.611c0.53-3.067-0.939-3.707-1.833-5.702C18.072,124.51,20.89,126.979,20.725,128.109z
			 M51.268,127.295c-0.09-0.385,0.277-1.227-0.407-1.018C50.65,126.47,50.675,127.326,51.268,127.295z M49.843,124.647
			c-0.094,0.978,0.167,1.598,1.018,1.63c-0.279-0.465,0.525-0.766,0-0.814C50.58,125.926,50.638,124.344,49.843,124.647z
			 M18.892,126.277c-0.067-0.612-0.312-1.047-0.814-1.223C17.892,125.92,18.41,126.08,18.892,126.277z M51.064,130.757
			c0.445-1.053-0.028-2.776-1.018-3.055C49.055,128.87,50.578,129.849,51.064,130.757z M19.096,129.128
			c-0.637-0.11-0.344-1.149-1.018-1.222C17.427,128.512,18.549,130.345,19.096,129.128z M23.983,139.105
			c0.431-3.299,0.754-7.812-0.204-10.792C23.915,131.843,23.508,135.915,23.983,139.105z M16.652,131.164
			c2.564,0.755-0.692,5.363,2.24,6.108c0.653-1.323-0.513-2.43-0.611-3.665c0.518-0.025,0.79-0.296,0.814-0.814
			c-0.293-1.972-1.933-2.4-2.443-3.665C16.437,129.957,16.709,130.092,16.652,131.164z M21.947,134.015
			c-1.095-1.62,0.783-3.467-1.426-4.479c-0.705,1.099,0.545,1.854,0.407,2.239C19.557,131.363,20.903,134.96,21.947,134.015z
			 M19.91,131.164c-0.09-0.385,0.277-1.228-0.407-1.019C19.292,130.338,19.317,131.195,19.91,131.164z M51.064,133.607
			c0.508-0.992-0.456-2.067-1.018-2.647C49.024,132.091,50.316,133.055,51.064,133.607z M16.856,134.015
			c0.441-0.485,0.353-1.359,0-2.036C16.607,132.286,16.456,133.732,16.856,134.015z M19.91,135.033c-0.454-0.208,0.267-0.937,0-1.63
			C18.88,133.032,19.598,135.588,19.91,135.033z M50.861,137.477c0.038-0.302,0.492-0.188,0.814-0.204
			c-0.394-1.19-0.406-2.677-1.629-3.462C49.023,135.275,50.361,136.706,50.861,137.477z M21.335,136.865
			c-0.021-0.929-0.058-1.843-1.018-1.832C20.294,136.006,20.571,136.68,21.335,136.865z M21.335,139.513
			c-0.056-1.573-1.711-1.547-1.629-3.258C18.798,137.593,19.853,138.981,21.335,139.513z M21.743,138.698
			c0.057-0.595-0.049-0.7-0.407-0.407c0.03-0.506,0.038-0.988-0.407-1.019C20.789,138.158,21.295,138.399,21.743,138.698z
			 M18.485,141.752c0.385-0.045,0.449,0.229,0.814,0.204c0.647-2.268-1.193-3.064-1.222-4.479c-0.204,0-0.407,0-0.611,0
			C16.906,139.802,18.476,139.997,18.485,141.752z M51.472,140.938c-0.323-1.034-0.234-2.479-1.222-2.851
			c-1.119,1.912-0.706,4.78,0.814,5.905C51.753,142.916,50.147,141.006,51.472,140.938z M23.983,141.752
			c0.4-0.416,0.798-2.161-0.204-2.239C23.908,140.198,23.517,141.403,23.983,141.752z M22.354,145.011c0-0.408,0-0.815,0-1.223
			c-0.895-0.123-1.301-0.735-1.426-1.629c0.536-0.06,0.161,0.79,0.814,0.611c0.706-1.567-0.774-2.584-1.833-3.055
			C19.808,142.062,19.982,144.618,22.354,145.011z M51.064,148.269c0.622-1.42-0.507-2.714-1.222-3.462
			C49.345,146.055,50.008,147.506,51.064,148.269z M50.657,149.693c-0.271,0-0.543,0-0.814,0c0.132,0.922-0.137,0.924-0.407,1.019
			c0.448,0.632,1.603,1.434,1.222,2.239c0.339,0,0.679,0,1.018,0c-0.107-1.581-1.034-1.873-0.407-4.275
			c-0.306-0.146-0.857-0.155-1.018,0C50.552,148.849,50.688,149.188,50.657,149.693z M51.268,154.988
			c-0.471,0.392-0.953-0.938-0.814-1.833c-0.492-0.001-1.301,0.713-0.814,1.018c1.075,2.557-1.746,9.555,2.036,10.589
			c0.125-1.754-0.866-2.392-0.814-4.072c0.361-0.047,1.02,0.205,0.814-0.407c-0.527-0.688-0.396-2.372-1.222-3.258
			c0.375-0.43,0.714-0.579,1.018-0.611C50.821,156.26,51.685,154.907,51.268,154.988z M22.15,162.929
			c-0.251-1.432,0.945-1.667,1.018-3.258C21.96,159.873,21.314,161.925,22.15,162.929z M24.187,162.521
			c-0.003-0.539,0.113-1.198-0.407-1.222C23.902,161.72,23.451,162.715,24.187,162.521z M49.843,171.277
			c0.241-0.548,1.062,0.001,1.425,0c-0.126-0.553,0.259-1.616-0.204-1.832c-0.331,0.317-0.897-0.857-0.814-1.629
			c0.577,0.033,0.849,0.373,1.425,0.407c-0.546-1.219-0.469-3.061-1.833-3.462C49.581,166.66,49.809,170.102,49.843,171.277z
			 M51.064,175.146c0.034-0.237,0.322-0.221,0.611-0.203c-0.278-1.274-0.508-2.422-1.833-3.055
			C49.513,173.711,50.498,174.221,51.064,175.146z M131.903,174.332c0.016-0.694-0.754-0.603-1.425-0.611
			C130.345,174.533,131.251,174.305,131.903,174.332z M51.268,177.997c-0.084-1.272-0.233-2.481-1.425-2.646
			C49.574,176.329,50.016,177.908,51.268,177.997z M51.268,181.459c0.274-1.644-0.82-2.755-1.833-2.24
			C49.957,180.055,50.059,181.311,51.268,181.459z M37.829,180.848c-0.469-0.16-1.034-1.393-1.425-0.407
			C37.148,180.188,37.495,181.364,37.829,180.848z M50.861,183.291c0.003-0.952-0.668-1.231-1.425-1.425
			C49.607,182.645,49.948,183.254,50.861,183.291z M51.268,185.531c-0.48-0.062-0.378-0.707-1.018-0.61
			C50.1,185.497,50.919,186.126,51.268,185.531z M68.576,187.16c-3.179,0.454-8.341,0.917-11.199,2.851
			c5.803-0.975,11.113-2.17,16.29-3.665C71.927,185.794,69.661,186.388,68.576,187.16z"/>
		<path fill-rule="evenodd" clip-rule="evenodd" d="M139.234,68.855c-0.8,1.576-3.831,0.92-5.702,1.425
			C133.86,69.045,137.606,69.47,139.234,68.855z"/>
		<path fill-rule="evenodd" clip-rule="evenodd" d="M98.712,77.814c0.045-0.648,1.725-1.555,1.629-1.018
			C99.462,76.8,99.591,77.811,98.712,77.814z"/>
		<path fill-rule="evenodd" clip-rule="evenodd" d="M106.247,79.443c-0.573,0.513-1.491,0.681-1.833,1.426
			c2.66,0.238,5.474-0.986,7.941-0.611c0.125,0.804-1.117,0.24-1.629,0.407c1.25,1.496,2.854-0.736,4.48-1.222
			c1.002-0.299,2.372,0.086,3.054-0.407c0.333,0.697-0.024,0.612-0.407,1.019c1.216,0.344,1.895-0.148,2.646,0.203
			c0.222-0.05,0.139-0.404,0.408-0.407c0.318-1.065-1.363-0.13-1.223-1.018c0.777-0.099,1.301,0.058,1.63,0.407
			c0.595-0.185,0.059-0.75,0.407-0.814c0.95,0,1.9,0,2.851,0c-0.966,0.422-2.575,0.269-3.054,1.629
			c0.509,0.496,1.672-0.082,1.832-0.611c0.498,0.253-0.61,0.593-0.611,1.019c2.723-1.855,6.927-1.469,12.014-1.629
			c-2.735,0.547-6.85,0.718-9.366,0.814c-0.419,0.057-0.406,0.544-0.61,0.814c3.794-0.084,7.516-0.147,10.588-0.204
			c1.305,1.637,2.428,1.451,3.462,2.851c-1.721-0.481-2.808-2.09-4.684-2.443c-3.615-0.681-8.105,0.632-11.81,1.019
			c-0.195,0.021-4.578-0.367-5.295,0.407c-9.154,0.951-16.652,1.513-24.23,2.851c-3.052,0.007-5.341,0.137-7.127,1.019
			c-1.154,0-2.308,0-3.461,0c-0.641,0.988-2.811,0.446-3.869,1.018c-0.324-1.139,0.702-0.927,1.222-1.222
			c-0.017-0.322,0.098-0.776-0.204-0.814c1.111-0.653,1.794-1.735,3.055-2.24c0.571,0.596-0.803,0.395-0.611,1.222
			c-0.065,0.54,1.141-0.19,0.814,0.611c-1.293-0.003-2.411,0.169-2.444,1.426c0.595-0.59,2.446-0.324,3.666-0.815
			c0.867-0.348,1.364-1.422,2.036-1.629c0.93-0.286,2.062,0.352,3.055,0.204c2.348-0.35,3.114-2.867,5.09-4.072
			c0.123,1.076-2.129,1.533-2.239,3.054c0.149,0.19,0.37,0.309,0.61,0.407c0.814-0.406,2.021-0.422,2.647-1.018
			c2.39,0.268,4.003,0.031,6.108-0.407C103.056,81.287,104.462,79.981,106.247,79.443z"/>
		<path fill-rule="evenodd" clip-rule="evenodd" d="M62.671,80.869c0.833,0.7-0.016,2.431-0.814,2.443
			c0.033-0.237-0.045-0.362-0.204-0.407C62.211,82.445,62.917,82.132,62.671,80.869z"/>
		<path fill-rule="evenodd" clip-rule="evenodd" d="M68.169,81.276c-0.005,0.881-1.852,1.675-2.24,2.851
			C65.823,83.135,67.432,82.103,68.169,81.276z"/>
		<path fill-rule="evenodd" clip-rule="evenodd" d="M155.116,84.33c-2.42,1.627-1.228,5.268-1.832,8.553
			c0.074,0.604,0.353,1.005,0.814,1.222c0.561-0.409-0.781-1.368-0.204-1.833c0.646,0.646,0.784,1.796,0.814,3.055
			c0.975,0.044,1.099,0.938,1.426,1.629c0.956,0.006,0.98-0.92,1.222-1.629c2.908,1.812,5.745-0.084,5.498-3.665
			c-0.017-0.236-0.203-0.109-0.204,0c0.007-1.666-0.038-2.746,0.407-4.072c0.462,0.709-0.154,3.06,1.222,2.239
			c0.234,3.213,0.677,5.089,0,7.941c-0.102-1.263,0.7-1.962-0.407-2.646c-1.034,0.17-0.857,2.465-2.036,1.832
			c0.583,0.316-0.424,0.95,0.204,1.222c0.73-0.083,0.323-1.306,1.222-1.222c0,0.407,0,0.814,0,1.222
			c-1.726,0.311-2.659,1.413-4.684,1.426c-0.194-0.734,0.879-0.361,1.019-0.204c-0.597-1.689-4.441-1.062-4.276-3.258
			c-0.182,0.158-0.46,0.219-0.814,0.204c-0.528-0.9-1.828-2.104-1.629-3.055c-0.177-0.308-0.305,0.056-0.814-0.204
			c-0.446-1.561,0.124-2.881,0-4.683C153.979,87.944,152.979,84.568,155.116,84.33z"/>
		<path fill-rule="evenodd" clip-rule="evenodd" d="M76.925,85.553c-0.013,0.801-1.49,0.139-1.425,1.018
			c0.646,1.229,1.712-1.242,2.443,0c-2.324,1.667-7.648,1.584-9.163,4.684c0.173,0.598,0.513-0.265,1.018,0
			c-0.342,1.613-1.912-0.312-2.443,1.018c0.259,0.488,1.564-0.071,1.425,0.814c-8.051,3.045-8.273,13.326-7.738,24.843
			c0.359,7.714,0.155,15.75,0.204,22.806c-0.112,0.451,0.389,0.29,0.408,0.61c0.459,6.787,0.335,14.765,0.814,20.974
			c0.151,0.83-0.657,0.701-0.407,1.629c1.397,3.247,3.09,5.985,6.719,6.108c-0.021,0.632,0.641,0.581,0.407,1.426
			c-4.93-0.64-7.629-4.741-8.145-8.553c-0.424,0.322-0.068,1.425-0.407,1.833c-0.207-0.132-0.21-0.468-0.611-0.407
			c0.242-0.681,0.39-4.242-0.204-4.684c0.373-3.772-0.482-11.105,0-15.679c0.186-0.6-0.32-0.094-0.407-0.407
			c-1.34-4.845,1.293-10.834-1.018-14.457c0.722-1.54,0.044-2.097,0.407-4.073c-0.063-0.276-0.51-0.168-0.814-0.203
			c0.587-0.352,0.549-3.312,0.204-3.258c-0.745-0.32,0.473-0.305,0.204-0.814c-1.479-2.983,0.542-6.198,0.407-9.774
			c-1.579,1.848-0.612,4.507-2.036,6.924c1.134,2.28-0.822,6.007,0.611,8.349c-0.693,0.121-0.441,1.188-0.611,1.832
			c-0.54,0.065,0.19-1.141-0.611-0.814c0.792-4.809,0.007-9.996,1.222-14.457c-0.046-0.361,0.205-1.02-0.407-0.814
			c1.042-2.521,1.357-6.08,1.833-8.756c-1.565,0.335-1.852,1.948-3.054,2.647c0.651-1.657,2.587-2.029,2.647-4.276
			c1.25-0.542,2.007-2.573,1.833-3.869c-1.378,0.251-1.249,2.01-2.24,2.647c-0.103-1.53,2.089-2.525,2.443-4.276
			c0.47-0.062,0.227,0.588,0.611,0.611c0.617-0.846,0.619-3.268,1.833-2.852c0.235-2.625,2.548-4.91,4.887-6.108
			C71.705,88.023,74.481,86.486,76.925,85.553z M64.504,91.457c1.521-0.515,2.378-1.693,3.461-2.646
			C66.253,89.134,65.477,90.395,64.504,91.457z M58.395,109.173c0.968-0.31,0.759,1.105,1.425,1.629c0-2.104,0-4.208,0-6.312
			c-0.204,0-0.407,0-0.611,0C58.926,106.104,58.647,107.842,58.395,109.173z M61.653,157.024c0.043-0.058,0.145-1.9-0.204-2.24
			C61.262,155.12,60.866,157.025,61.653,157.024z M61.042,162.521c0.541-0.768,0.593-2.538-0.204-3.054
			C60.97,160.422,60.572,161.906,61.042,162.521z"/>
		<path fill-rule="evenodd" clip-rule="evenodd" d="M17.67,87.385c0.325-0.958,1.074,0.88,1.222,1.426
			C17.975,88.846,18.514,87.424,17.67,87.385z"/>
		<path fill-rule="evenodd" clip-rule="evenodd" d="M8.1,87.996c1.011,0.878-0.074,1.753-0.204,2.646
			c-0.63,4.356-1.183,9.3-1.222,13.847c-0.138,0.473-0.677,0.545-0.814,1.019C6.177,99.81,6.678,92.789,8.1,87.996z"/>
		<path fill-rule="evenodd" clip-rule="evenodd" d="M62.671,88.403c0.29,0.901-0.689,0.532-0.611,1.222
			C61.693,89.439,62.236,88.459,62.671,88.403z"/>
		<path fill-rule="evenodd" clip-rule="evenodd" d="M146.157,150.101c-0.462-0.294-0.394-1.554-1.019-0.61
			c-0.466-0.349-0.074-1.555-0.203-2.24c-0.176-0.721-0.755,0.124-1.019-0.61c0.185-0.595,0.75-0.06,0.814-0.407
			c-0.505-0.541,0.09-1.426-1.222-1.426c0-0.475,0-0.95,0-1.426c0.423,0.053,0.056,0.896,0.407,1.019
			c0.796-0.02,0.636-0.994,1.426-1.019c-0.253-6.738,0.518-14.499-0.407-20.565c0.401-6.83,1.105-15.378,0.407-22.195
			c0.534-2.979-0.018-7.083,0-9.773c-0.343-0.724-1.225-1.364-0.814-2.24c0.665,0.488,0.323,1.984,1.629,1.833
			c-0.346,0.197-0.523,0.562-0.407,1.222c0.003,0.607,0.529,0.692,0.611,1.222c0.022,3.834,0.081,8.083,0.407,11.606
			c0.234,2.54-0.165,4.966,1.222,6.312c-1.29,0.23-1.208,5.07,0,4.684c-0.391,0.424-0.314,1.314-0.814,1.629
			c-0.089,0.767,0.43,0.927,0.814,1.222c-0.555,0.127-0.535,1.441-0.204,1.832c1.831-0.748,2.474-2.685,3.665-4.072
			c-0.144,1.578-2.238,3.508-3.258,4.276c-0.951,4.499-0.138,7.416-0.407,11.81c0.251-0.089,0.418-0.261,0.407-0.61
			c0.85,1.095-1.299,2.914-0.814,4.684c1.293-1.016,2.078-2.538,3.258-3.666c0.562,0.317-0.63,0.573-0.203,1.426
			c-2.341,1.442-3.814,4.438-3.665,7.737c1.729-0.714,1.837-3.05,3.461-3.868c-0.099,0.383-0.879,1.831-1.629,2.239
			c0.1,1.525-1.666,1.185-1.425,2.851c-0.165-0.038-0.203-0.204-0.407-0.203C146.386,145.775,146.182,147.14,146.157,150.101z
			 M146.564,108.358c0.4-0.627,0.545-1.651-0.203-2.036C146.121,106.974,146.117,108.139,146.564,108.358z M146.768,122.611
			c0.625,0.312,0.625-1.329,0-1.018C146.768,121.933,146.768,122.272,146.768,122.611z M147.175,125.463
			c-0.004-0.54,0.112-1.199-0.407-1.223C146.904,125.001,146.204,125.436,147.175,125.463z M146.971,131.774
			c0.233-0.258,0.409-1.605,0-1.832C146.693,130.293,146.171,131.568,146.971,131.774z"/>
		<path fill-rule="evenodd" clip-rule="evenodd" d="M13.802,90.643c0.634,0.452,1.004,1.168,1.222,2.036
			c-0.393-0.082-0.161-0.789-0.814-0.61C14.767,91.186,13.672,91.6,13.802,90.643z"/>
		<path fill-rule="evenodd" clip-rule="evenodd" d="M8.1,96.141c0.694-0.011,1.688,1.432,2.24,2.24
			C9.464,98.573,9.083,96.519,8.1,96.141z"/>
		<path fill-rule="evenodd" clip-rule="evenodd" d="M56.766,95.938c0.282,0.295-0.589,1.165-1.222,1.222
			C55.803,96.603,56.361,96.347,56.766,95.938z"/>
		<path fill-rule="evenodd" clip-rule="evenodd" d="M17.06,96.752c0.447-0.564,0.834,0.645,1.425,0.61
			c-0.002,0.541,0.077,1.163-0.204,1.426C17.779,98.204,17.928,96.97,17.06,96.752z"/>
		<path fill-rule="evenodd" clip-rule="evenodd" d="M55.544,97.974c-0.466,0.416-0.77,0.995-1.629,1.018
			c-0.245-0.233-0.08-0.516,0-0.203C54.915,98.973,54.691,97.935,55.544,97.974z"/>
		<path fill-rule="evenodd" clip-rule="evenodd" d="M12.376,101.639c1.38,0.52,1.221,2.58,2.851,2.851
			C13.892,104.735,13.148,102.634,12.376,101.639z"/>
		<path fill-rule="evenodd" clip-rule="evenodd" d="M18.078,103.471c0.531-0.963,0.926,1.072,1.629,1.222
			c-0.21,1.07-0.807-0.567-1.018,0C18.258,104.491,19.083,103.452,18.078,103.471z"/>
		<path fill-rule="evenodd" clip-rule="evenodd" d="M157.763,110.19c1.155-0.186,2.607,1.79,4.072,0.611
			c0.218,0.761-0.506,0.58-0.407,1.222c-0.062,0.413,0.589-0.042,0.611-0.204c0.471,2.172,1.001,3.251,0.203,5.498
			c-1.224,0.134-2.5,0.214-3.258,0.814c-0.574-0.247-1.404-1.3-2.036-0.814C155.334,115.257,156.496,111.748,157.763,110.19z
			 M158.782,111.005c-3.835,0.458-0.446,6.312,2.239,3.869C161.413,112.164,159.49,110.921,158.782,111.005z M158.578,116.91
			c0.204-0.68-0.282-0.668-0.814-0.61C157.702,116.837,158.188,116.824,158.578,116.91z"/>
		<path fill-rule="evenodd" clip-rule="evenodd" d="M152.062,112.227c0.198,0.146-0.435,1.184-1.019,1.222
			C151.113,112.771,151.815,112.727,152.062,112.227z"/>
		<path fill-rule="evenodd" clip-rule="evenodd" d="M150.84,114.06c-0.642,1.463-1.573,2.635-2.647,3.665
			C148.804,115.958,150.064,115.206,150.84,114.06z"/>
		<path fill-rule="evenodd" clip-rule="evenodd" d="M157.153,124.037c0.61,0,1.222,0,1.832,0c-0.212,0.649-1.698,0.051-2.239,0.814
			c-0.611,2.376,1.021,2.508,2.443,2.851c0.164-0.038,0.203-0.204,0.407-0.203c0.15-0.897-0.659-0.835-0.814-1.426
			c0.062-0.616,0.63-0.728,0.407-1.629c3.26,0.459,2.596,6.643-1.426,5.091c0.242-0.908-0.227-0.267-0.203-1.222
			c-0.231,0.038-0.113,0.204,0,0.203C156.133,128.63,155.525,124.864,157.153,124.037z M159.392,125.463
			c-0.087,0.901,0.34,1.289,1.019,1.425c-0.1-0.643,0.366-0.719,0.203-1.425C160.138,125.399,159.773,125.063,159.392,125.463z"/>
		<path fill-rule="evenodd" clip-rule="evenodd" d="M152.469,127.906c-0.669,1.163-1.382,2.283-2.851,2.646
			C150.157,129.259,151.814,129.084,152.469,127.906z"/>
		<path fill-rule="evenodd" clip-rule="evenodd" d="M56.97,130.553c0.592,1.727-1.973,2.794-2.647,4.276
			C54.555,133.566,56.607,132.363,56.97,130.553z"/>
		<path fill-rule="evenodd" clip-rule="evenodd" d="M160.003,139.716c0.619-0.127,1.041-0.452,1.018-1.222
			c0.365-0.025,0.43,0.25,0.814,0.204c-0.449-0.979-1.729-2.885-3.665-3.055c1.818-0.594,2.726,1.48,4.072,2.036
			c-0.035,2.748-1.763,3.803-3.665,4.684c0.205-0.612-0.453-0.361-0.814-0.407c0.679-2.473-3.38-4.997-0.203-6.108
			c0.047,0.726-1.149,0.208-1.019,1.018c0.647,1.253,1.176,2.625,2.443,3.258c0.274-0.383,1.017-1.568,2.036-1.832
			C160.835,138.92,159.941,138.84,160.003,139.716z"/>
		<path fill-rule="evenodd" clip-rule="evenodd" d="M133.125,159.671c0.481,0.057-0.233,0.544-0.203,0.814
			c1.893-0.076,2.057-1.88,3.258-2.646c0.058,1.008-0.686,1.215-0.814,2.036c1.228,0.544,1.564-1.555,3.055-1.426
			c0.206-0.842-0.818-2.312,0.203-2.646c0.736-0.193,0.284,0.802,0.407,1.222c1.745-0.938,4.042-2.29,3.869-4.48
			c0.921,0.082,1.477-1.211,1.425-2.443c0.426,0.661,0.985,1.188,1.833,1.426c0.065,0.472-0.033,0.781-0.204,1.018
			c0.408,0,0.815,0,1.223,0c0,0.407,0,0.814,0,1.222c-0.556,0.148-0.41-0.404-0.814-0.407c-0.164,0.707,0.303,0.783,0.203,1.426
			c-0.64,0.097-0.538-0.548-1.019-0.611c-0.595,1.237-1.618,2.048-2.036,3.462c1.439-0.325,1.246-2.283,2.443-2.851
			c-0.083,0.49,0.372,0.442,0.204,1.019c-0.759-0.39-1.058,1.518-2.036,2.443c-0.667,0.63-1.353,0.881-2.24,1.222
			c-0.148,0.556,0.405,0.409,0.407,0.814c0.524-0.223,0.979-0.515,1.222-1.019c0.233,0.066-0.494,1.479,0.407,0.814
			c0.472,0.354-0.391,1.09-0.814,1.222c-0.836-0.046-0.866-0.898-1.832-0.814c-0.591,0.292-1.01,0.756-1.222,1.426
			c-0.619,0.195-2.065-0.437-2.036,0.407c-2.552-0.976-3.722,2.733-5.905,3.462c0.396-1.029,1.063-1.787,1.629-2.647
			c-1.234-0.078-3.147,0.923-4.684,1.222c-0.14-0.548,0.421-0.394,0.611-0.611c-0.495-0.881-2.148,0.001-2.036,1.019
			c-1.329,0.52-3.142-0.012-3.869,1.426c-2.661-0.85-5.333,1.322-8.349,1.425c-0.071-1.115,1.606-1.068,2.443-1.222
			c1.691-0.31,3.775-0.191,4.48-1.425c-2.143,0.457-4.814,0.889-7.535,1.425c-0.355,0.188-0.449,0.637-0.406,1.222
			c-1.858-0.296-2.463,0.66-4.277,0.407c0.185-0.427,1.15-0.072,1.223-0.61c-0.152-0.46-1.143-0.08-1.629-0.204
			c-0.355,0.188-0.449,0.637-0.408,1.222c-0.381,0.045-1.349,0.525-1.629,0c-0.203,0.161,0.076,0.712-0.406,1.019
			c-2.199-0.866-5.939-0.413-7.127,1.018c-0.64-0.039-0.553-0.805-1.426-0.61c0.742-0.412,2.283-0.024,2.443-1.019
			c-2.143-0.143-4.133,0.367-6.312,0.814c0,0.407,0,0.814,0,1.222c-0.845,0.963-1.988-0.638-2.443,0.611
			c-0.357-1.341,2.197-0.258,2.24-1.833c-1.543,0.422-3.635,0.45-5.498,1.019c0.277,0.605,1.407,0.357,2.24,0.407
			c-0.685,0.946-4.692,0.329-5.702,1.629c-0.388-0.087-0.369-0.582-1.018-0.407c0.537-0.519,1.438-0.217,1.833-1.222
			c-2.517,0.068-5.839,1.255-7.535,0.814c-0.134,0.612-1.173,0.32-1.222,1.018c-1.787-0.409-3.436,0.303-5.09-0.203
			c0.455-0.36,1.393-0.236,1.425-1.019c-5.691,0.758-7.796,6.865-11.606,10.182c2.772-4.198,5.282-7.913,9.978-10.792
			c0.083-0.491-0.372-0.442-0.204-1.019c1.763-0.282,2.438,0.669,4.479,0c0.971-0.861,1.201-2.464,2.647-2.851
			c0.376,0.801-1.146,1.235-1.425,2.036c1.055,1.121,2.225-0.799,3.258-1.018c-0.228,0.641-0.018,0.461,0,1.222
			c1.138-0.22,1.973-0.742,2.444-1.629c0.376,0.03,0.125,0.689,0.407,0.814c0.543,0,1.086,0,1.629,0
			c3.358-2.021,9.395-1.549,12.829-3.258c1.841-0.06,3.572-0.229,4.684-1.019c0.739,1.049,1.875-0.218,2.646-0.407
			c1.398,0.589,4.016-0.287,4.887-1.833c0.48,0.173-0.561,0.502-0.203,1.222c0.968,0.154,1.115-0.513,1.629-0.814
			c0.926,0.945,2.883-0.105,2.851-1.425c0.374,0.972,1.222,1.157,2.443,0.814c-0.228-0.251-0.177-0.418,0.204-0.407
			c-0.636-0.392-0.404-1.124,0.61-1.222c-0.208,0.268-0.2,0.75-0.407,1.018c1.168,1.074,2.178-0.918,2.851-1.629
			c0.673,0.306-0.423,0.498-0.204,1.019c0.039,0.165,0.205,0.203,0.204,0.407c0.952,0.138,1.164-0.466,1.426-1.019
			c0.96,1.192,1.909,0.062,2.647-0.61c0.232,0.641-0.32,0.494-0.408,0.814c0.203,0.271,0.551,0.399,0.611,0.814
			c1.664-0.032,3.119-0.274,3.869-1.222c0.057,0.329-0.192,0.351-0.204,0.61C130.245,160.32,131.477,159.788,133.125,159.671z
			 M143.713,155.191c-0.501-0.144,0.707-1.17-0.204-1.222c-0.474,0.529-1.317,1.216-0.814,1.629c0.031-0.377,0.69-0.125,0.814-0.407
			C143.509,155.305,143.674,155.423,143.713,155.191z M112.763,167.002c0.479-0.005,0.6,0.351,1.221,0.203c0-0.136,0-0.271,0-0.407
			c-0.204,0.001-0.242-0.165-0.406-0.203C113.722,167.147,112.617,166.448,112.763,167.002z M103.396,168.427
			c1.911,0.363,4.102,0.588,4.887-0.814C106.33,167.574,105.376,168.136,103.396,168.427z M86.699,171.277
			c0.263,0.281,0.885,0.202,1.426,0.204C88.232,170.517,86.978,170.933,86.699,171.277z M75.5,171.481c-0.339,0-0.679,0-1.018,0
			C74.305,172.324,75.499,172.102,75.5,171.481z"/>
		<path fill-rule="evenodd" clip-rule="evenodd" d="M141.88,161.097c0.015,1.304-1.164,1.415-1.629,2.239
			C140.169,162.773,141.504,161.879,141.88,161.097z"/>
		<path fill-rule="evenodd" clip-rule="evenodd" d="M137.198,164.966c-0.502,0.517-1.053,0.983-1.426,1.629
			C135.527,166.137,136.475,165.133,137.198,164.966z"/>
		<path fill-rule="evenodd" clip-rule="evenodd" d="M75.092,167.816c0.355,0.187,0.449,0.636,0.407,1.222
			c-0.63-0.076-0.791-0.693-1.222,0C73.846,168.724,74.939,168.22,75.092,167.816z"/>
		<path fill-rule="evenodd" clip-rule="evenodd" d="M106.247,169.853c0.34,0.191-1.058,2.024-2.036,2.239
			C104.688,171.145,105.74,170.771,106.247,169.853z"/>
		<path fill-rule="evenodd" clip-rule="evenodd" d="M101.97,173.721c-0.25,1.043-1.994,2.349-3.055,3.259
			C99.778,175.736,100.923,174.778,101.97,173.721z"/>
		<path fill-rule="evenodd" clip-rule="evenodd" d="M90.364,174.943c0.312,0.457-1.028,1-1.222,1.629
			C88.609,175.893,90.119,175.52,90.364,174.943z"/>
		<path fill-rule="evenodd" clip-rule="evenodd" d="M57.377,184.31c-0.555,1.143-1.932,1.462-2.24,2.851
			C54.594,185.977,56.999,183.902,57.377,184.31z"/>
		<path fill-rule="evenodd" clip-rule="evenodd" d="M157.763,6.343c-0.399-0.772,1.519-1.567,3.055-1.629
			c0.141,0.665-1.59,1.234-0.407,1.629c-1.256,0.103-1.929,0.787-3.258,0.814c-0.648,1.066-1.989,4.229,0,4.887
			c-0.133,0.207-0.469,0.211-0.407,0.611c-0.866-0.361-1.105-0.481-1.223,0.61c-0.625-2.905-0.381-5.271,1.223-7.127
			C157.042,6.251,157.797,5.901,157.763,6.343z"/>
		<path fill-rule="evenodd" clip-rule="evenodd" d="M158.17,70.484c-3.813,0.491-7.048,0.193-10.181,0.61
			c-0.454,0.061-0.763,0.494-1.222,0.611c-1.758,0.448-4.478-0.626-6.72,0c-1.874,0.522-5.388,0.248-8.349,0.814
			c-0.594,0.057-0.7-0.049-0.407-0.407c-4.234,1.067-7.234,0.934-12.218,1.018c-0.451-0.111-0.29,0.389-0.61,0.407
			c-9.352,0.552-21.22,1.651-33.191,2.852c-2.08,0.208-4.053,0.927-5.905,0.61c-1.371,0.598-3.562,0.374-5.498,0.407
			c-1.854,0.538-4.559,1.276-5.091-0.814c5.02,0.018,10.188-1.905,15.272-1.019c1.922-1.63,5.868-0.066,7.738-1.832
			c0.837,0.046,0.866,0.898,1.833,0.814c0.801,0.326,0.07-0.88,0.61-0.814c1.095,0.127,2.774-0.331,3.258,0.407
			c2.205-2.029,4.763,0.56,7.127-1.426c0.087,0.426-0.14,0.54-0.204,0.814c2.933-0.732,7.677,0.347,9.164-1.832
			c2.684,0.921,6.285-0.22,9.366,0.407c-0.267-1.191-1.614-0.219-2.647-0.407c3.641-0.409,7.457,0.38,11.606,0
			c3.446-0.315,6.812-0.833,10.996-0.814c0.62,0.009,0.792-0.43,1.222-0.611c2.292-0.079,4.271,0.513,6.108-0.203
			c0.831-0.062,0.109,0.425,0.204,0.814c0.505,0.014,1.511-0.504,1.018-0.814C153.862,69.371,156.528,70.29,158.17,70.484z
			 M145.138,71.299c0.508-0.104,1.229,0.007,1.223-0.611C145.64,70.578,145.311,70.86,145.138,71.299z"/>
		<path fill-rule="evenodd" clip-rule="evenodd" d="M18.892,148.064c-0.712-0.51-1.475-0.968-1.833-1.832
			C18.084,145.691,19.035,146.779,18.892,148.064z"/>
		<path fill-rule="evenodd" clip-rule="evenodd" d="M157.153,151.526c0.271,0,0.543,0,0.814,0c0.359,0.59,0.282,1.618,1.425,1.425
			c-0.185,0.359-0.749,0.337-0.814,0.814c0.396,0.491,1.013-0.259,2.036-0.203c0.577-0.17,0.242-1.251,0.611-1.629
			c1.077,0.008,1.187,0.984,1.222,2.036c-0.245,0.638-1.256,0.51-1.019,1.629c-0.705,0.313-1.856,0.18-2.851,0.204
			c0.199-0.399-0.635-1.172-1.222-1.426c-0.062-0.537,0.425-0.525,0.814-0.611C157.817,153.033,157.195,152.57,157.153,151.526z
			 M160.411,154.377c-0.407,0-0.814,0-1.222,0C159.101,155.362,160.375,154.966,160.411,154.377z"/>
	</g>
</g>
</svg>
